<?xml version="1.0" encoding="us-ascii" standalone="no"?><svg xmlns="http://www.w3.org/2000/svg" xmlns:xlink="http://www.w3.org/1999/xlink" contentStyleType="text/css" height="430px" preserveAspectRatio="none" style="width:1429px;height:430px;background:#FFFFFF;" version="1.1" viewBox="0 0 1429 430" width="1429px" zoomAndPan="magnify"><defs/><g><!--cluster fmea_skill_function_builder--><g id="cluster_fmea_skill_function_builder"><path d="M8.5,6 L203.5,6 A3.75,3.75 0 0 1 206,8.5 L213,29.6094 L1419.5,29.6094 A2.5,2.5 0 0 1 1422,32.1094 L1422,420.5 A2.5,2.5 0 0 1 1419.5,423 L8.5,423 A2.5,2.5 0 0 1 6,420.5 L6,8.5 A2.5,2.5 0 0 1 8.5,6 " fill="none" style="stroke:#000000;stroke-width:1.5;"/><line style="stroke:#000000;stroke-width:1.5;" x1="6" x2="213" y1="29.6094" y2="29.6094"/><text fill="#000000" font-family="sans-serif" font-size="14" font-weight="bold" lengthAdjust="spacing" textLength="194" x="10" y="22.5332">fmea_skill_function_builder</text></g><!--class FMEASkillFunctionBuilder--><g id="elem_FMEASkillFunctionBuilder"><rect codeLine="9" fill="#F1F1F1" height="188.875" id="FMEASkillFunctionBuilder" rx="2.5" ry="2.5" style="stroke:#181818;stroke-width:0.5;" width="558" x="22" y="138.5"/><ellipse cx="215.75" cy="154.5" fill="#ADD1B2" rx="11" ry="11" style="stroke:#181818;stroke-width:1.0;"/><path d="M218.5156,150.375 Q218.6719,150.1563 218.8594,150.0469 Q219.0469,149.9375 219.2656,149.9375 Q219.6406,149.9375 219.875,150.1953 Q220.1094,150.4531 220.1094,151.0625 L220.1094,152.5156 Q220.1094,153.125 219.875,153.3906 Q219.6406,153.6563 219.2656,153.6563 Q218.9219,153.6563 218.7188,153.4531 Q218.5156,153.2656 218.4063,152.75 Q218.3594,152.3906 218.1719,152.2031 Q217.8438,151.8281 217.2344,151.6094 Q216.625,151.3906 216,151.3906 Q215.2344,151.3906 214.6016,151.7188 Q213.9688,152.0469 213.4766,152.7969 Q212.9844,153.5469 212.9844,154.5781 L212.9844,155.6719 Q212.9844,156.9063 213.875,157.7266 Q214.7656,158.5469 216.3594,158.5469 Q217.2969,158.5469 217.9531,158.2969 Q218.3438,158.1406 218.7656,157.7031 Q219.0313,157.4375 219.1797,157.3594 Q219.3281,157.2813 219.5313,157.2813 Q219.8594,157.2813 220.1172,157.5391 Q220.375,157.7969 220.375,158.1406 Q220.375,158.4844 220.0313,158.8906 Q219.5313,159.4688 218.7344,159.7969 Q217.6563,160.25 216.3594,160.25 Q214.8438,160.25 213.6406,159.625 Q212.6563,159.125 211.9688,158.0547 Q211.2813,156.9844 211.2813,155.7031 L211.2813,154.5469 Q211.2813,153.2188 211.8984,152.0703 Q212.5156,150.9219 213.6094,150.3047 Q214.7031,149.6875 215.9375,149.6875 Q216.6719,149.6875 217.3203,149.8516 Q217.9688,150.0156 218.5156,150.375 Z " fill="#000000"/><text fill="#000000" font-family="sans-serif" font-size="14" lengthAdjust="spacing" textLength="162" x="236.25" y="160.2285">FMEASkillFunctionBuilder</text><line style="stroke:#181818;stroke-width:0.5;" x1="23" x2="579" y1="170.5" y2="170.5"/><text fill="#000000" font-family="sans-serif" font-size="14" lengthAdjust="spacing" textLength="119" x="28" y="189.0332">-plc_kg_path: Path</text><text fill="#000000" font-family="sans-serif" font-size="14" lengthAdjust="spacing" textLength="132" x="28" y="206.6426">-fmea_kg_path: Path</text><text fill="#000000" font-family="sans-serif" font-size="14" lengthAdjust="spacing" textLength="116" x="28" y="224.252">-plc_graph: Graph</text><text fill="#000000" font-family="sans-serif" font-size="14" lengthAdjust="spacing" textLength="20" x="28" y="241.8613">+...</text><text fill="#000000" font-family="sans-serif" font-size="14" lengthAdjust="spacing" textLength="20" x="28" y="259.4707">+...</text><line style="stroke:#181818;stroke-width:0.5;" x1="23" x2="579" y1="266.5469" y2="266.5469"/><text fill="#000000" font-family="sans-serif" font-size="14" lengthAdjust="spacing" textLength="325" x="28" y="285.0801">+suggest_functions(): list&lt;SkillFunctionSuggestion&gt;</text><text fill="#000000" font-family="sans-serif" font-size="14" lengthAdjust="spacing" textLength="546" x="28" y="302.6895">+resolve_skill_hardware_io(suggestions, max_nodes): dict&lt;str, SkillHardwareIOResult&gt;</text><text fill="#000000" font-family="sans-serif" font-size="14" lengthAdjust="spacing" textLength="381" x="28" y="320.2988">+build_skill_io_map(suggestions, max_nodes): dict&lt;str, dict&gt;</text></g><!--class SkillFunctionSuggestion--><g id="elem_SkillFunctionSuggestion"><rect codeLine="20" fill="#F1F1F1" height="146.75" id="SkillFunctionSuggestion" rx="2.5" ry="2.5" style="stroke:#181818;stroke-width:0.5;" width="183" x="1193" y="259.5"/><ellipse cx="1208" cy="280.8516" fill="#ADD1B2" rx="11" ry="11" style="stroke:#181818;stroke-width:1.0;"/><path d="M1210.7656,276.7266 Q1210.9219,276.5078 1211.1094,276.3984 Q1211.2969,276.2891 1211.5156,276.2891 Q1211.8906,276.2891 1212.125,276.5469 Q1212.3594,276.8047 1212.3594,277.4141 L1212.3594,278.8672 Q1212.3594,279.4766 1212.125,279.7422 Q1211.8906,280.0078 1211.5156,280.0078 Q1211.1719,280.0078 1210.9688,279.8047 Q1210.7656,279.6172 1210.6563,279.1016 Q1210.6094,278.7422 1210.4219,278.5547 Q1210.0938,278.1797 1209.4844,277.9609 Q1208.875,277.7422 1208.25,277.7422 Q1207.4844,277.7422 1206.8516,278.0703 Q1206.2188,278.3984 1205.7266,279.1484 Q1205.2344,279.8984 1205.2344,280.9297 L1205.2344,282.0234 Q1205.2344,283.2578 1206.125,284.0781 Q1207.0156,284.8984 1208.6094,284.8984 Q1209.5469,284.8984 1210.2031,284.6484 Q1210.5938,284.4922 1211.0156,284.0547 Q1211.2813,283.7891 1211.4297,283.7109 Q1211.5781,283.6328 1211.7813,283.6328 Q1212.1094,283.6328 1212.3672,283.8906 Q1212.625,284.1484 1212.625,284.4922 Q1212.625,284.8359 1212.2813,285.2422 Q1211.7813,285.8203 1210.9844,286.1484 Q1209.9063,286.6016 1208.6094,286.6016 Q1207.0938,286.6016 1205.8906,285.9766 Q1204.9063,285.4766 1204.2188,284.4063 Q1203.5313,283.3359 1203.5313,282.0547 L1203.5313,280.8984 Q1203.5313,279.5703 1204.1484,278.4219 Q1204.7656,277.2734 1205.8594,276.6563 Q1206.9531,276.0391 1208.1875,276.0391 Q1208.9219,276.0391 1209.5703,276.2031 Q1210.2188,276.3672 1210.7656,276.7266 Z " fill="#000000"/><text fill="#000000" font-family="sans-serif" font-size="12" font-style="italic" lengthAdjust="spacing" textLength="66" x="1264.5" y="276.957">&#171;dataclass&#187;</text><text fill="#000000" font-family="sans-serif" font-size="14" lengthAdjust="spacing" textLength="151" x="1222" y="294.127">SkillFunctionSuggestion</text><line style="stroke:#181818;stroke-width:0.5;" x1="1194" x2="1375" y1="302.2031" y2="302.2031"/><text fill="#000000" font-family="sans-serif" font-size="14" lengthAdjust="spacing" textLength="101" x="1199" y="320.7363">+function_id: str</text><text fill="#000000" font-family="sans-serif" font-size="14" lengthAdjust="spacing" textLength="164" x="1199" y="338.3457">+runtime_names: set&lt;str&gt;</text><text fill="#000000" font-family="sans-serif" font-size="14" lengthAdjust="spacing" textLength="145" x="1199" y="355.9551">+pou_iris: set&lt;URIRef&gt;</text><text fill="#000000" font-family="sans-serif" font-size="14" lengthAdjust="spacing" textLength="20" x="1199" y="373.5645">+...</text><text fill="#000000" font-family="sans-serif" font-size="14" lengthAdjust="spacing" textLength="134" x="1199" y="391.1738">+function_uri: URIRef</text><line style="stroke:#181818;stroke-width:0.5;" x1="1194" x2="1375" y1="398.25" y2="398.25"/></g><!--class SkillHardwareIOResolver--><g id="elem_SkillHardwareIOResolver"><rect codeLine="28" fill="#F1F1F1" height="188.875" id="SkillHardwareIOResolver" rx="2.5" ry="2.5" style="stroke:#181818;stroke-width:0.5;" width="463" x="640" y="138.5"/><ellipse cx="789.75" cy="154.5" fill="#ADD1B2" rx="11" ry="11" style="stroke:#181818;stroke-width:1.0;"/><path d="M792.5156,150.375 Q792.6719,150.1563 792.8594,150.0469 Q793.0469,149.9375 793.2656,149.9375 Q793.6406,149.9375 793.875,150.1953 Q794.1094,150.4531 794.1094,151.0625 L794.1094,152.5156 Q794.1094,153.125 793.875,153.3906 Q793.6406,153.6563 793.2656,153.6563 Q792.9219,153.6563 792.7188,153.4531 Q792.5156,153.2656 792.4063,152.75 Q792.3594,152.3906 792.1719,152.2031 Q791.8438,151.8281 791.2344,151.6094 Q790.625,151.3906 790,151.3906 Q789.2344,151.3906 788.6016,151.7188 Q787.9688,152.0469 787.4766,152.7969 Q786.9844,153.5469 786.9844,154.5781 L786.9844,155.6719 Q786.9844,156.9063 787.875,157.7266 Q788.7656,158.5469 790.3594,158.5469 Q791.2969,158.5469 791.9531,158.2969 Q792.3438,158.1406 792.7656,157.7031 Q793.0313,157.4375 793.1797,157.3594 Q793.3281,157.2813 793.5313,157.2813 Q793.8594,157.2813 794.1172,157.5391 Q794.375,157.7969 794.375,158.1406 Q794.375,158.4844 794.0313,158.8906 Q793.5313,159.4688 792.7344,159.7969 Q791.6563,160.25 790.3594,160.25 Q788.8438,160.25 787.6406,159.625 Q786.6563,159.125 785.9688,158.0547 Q785.2813,156.9844 785.2813,155.7031 L785.2813,154.5469 Q785.2813,153.2188 785.8984,152.0703 Q786.5156,150.9219 787.6094,150.3047 Q788.7031,149.6875 789.9375,149.6875 Q790.6719,149.6875 791.3203,149.8516 Q791.9688,150.0156 792.5156,150.375 Z " fill="#000000"/><text fill="#000000" font-family="sans-serif" font-size="14" lengthAdjust="spacing" textLength="155" x="810.25" y="160.2285">SkillHardwareIOResolver</text><line style="stroke:#181818;stroke-width:0.5;" x1="641" x2="1102" y1="170.5" y2="170.5"/><text fill="#000000" font-family="sans-serif" font-size="14" lengthAdjust="spacing" textLength="90" x="646" y="189.0332">-graph: Graph</text><text fill="#000000" font-family="sans-serif" font-size="14" lengthAdjust="spacing" textLength="208" x="646" y="206.6426">-asrs_runtime_map: dict&lt;str, str&gt;</text><text fill="#000000" font-family="sans-serif" font-size="14" lengthAdjust="spacing" textLength="176" x="646" y="224.252">-skip_local_names: set&lt;str&gt;</text><text fill="#000000" font-family="sans-serif" font-size="14" lengthAdjust="spacing" textLength="20" x="646" y="241.8613">+...</text><text fill="#000000" font-family="sans-serif" font-size="14" lengthAdjust="spacing" textLength="20" x="646" y="259.4707">+...</text><line style="stroke:#181818;stroke-width:0.5;" x1="641" x2="1102" y1="266.5469" y2="266.5469"/><text fill="#000000" font-family="sans-serif" font-size="14" lengthAdjust="spacing" textLength="360" x="646" y="285.0801">+resolve(suggestion, max_nodes): SkillHardwareIOResult</text><text fill="#000000" font-family="sans-serif" font-size="14" lengthAdjust="spacing" textLength="451" x="646" y="302.6895">+resolve_all(suggestions, max_nodes): dict&lt;str, SkillHardwareIOResult&gt;</text><text fill="#000000" font-family="sans-serif" font-size="14" lengthAdjust="spacing" textLength="346" x="646" y="320.2988">-_seed_calls_for_suggestion(suggestion): list&lt;URIRef&gt;</text></g><!--class SkillHardwareIOResult--><g id="elem_SkillHardwareIOResult"><rect codeLine="39" fill="#F1F1F1" height="181.9688" id="SkillHardwareIOResult" rx="2.5" ry="2.5" style="stroke:#181818;stroke-width:0.5;" width="243" x="1163" y="42"/><ellipse cx="1210.75" cy="63.3516" fill="#ADD1B2" rx="11" ry="11" style="stroke:#181818;stroke-width:1.0;"/><path d="M1213.5156,59.2266 Q1213.6719,59.0078 1213.8594,58.8984 Q1214.0469,58.7891 1214.2656,58.7891 Q1214.6406,58.7891 1214.875,59.0469 Q1215.1094,59.3047 1215.1094,59.9141 L1215.1094,61.3672 Q1215.1094,61.9766 1214.875,62.2422 Q1214.6406,62.5078 1214.2656,62.5078 Q1213.9219,62.5078 1213.7188,62.3047 Q1213.5156,62.1172 1213.4063,61.6016 Q1213.3594,61.2422 1213.1719,61.0547 Q1212.8438,60.6797 1212.2344,60.4609 Q1211.625,60.2422 1211,60.2422 Q1210.2344,60.2422 1209.6016,60.5703 Q1208.9688,60.8984 1208.4766,61.6484 Q1207.9844,62.3984 1207.9844,63.4297 L1207.9844,64.5234 Q1207.9844,65.7578 1208.875,66.5781 Q1209.7656,67.3984 1211.3594,67.3984 Q1212.2969,67.3984 1212.9531,67.1484 Q1213.3438,66.9922 1213.7656,66.5547 Q1214.0313,66.2891 1214.1797,66.2109 Q1214.3281,66.1328 1214.5313,66.1328 Q1214.8594,66.1328 1215.1172,66.3906 Q1215.375,66.6484 1215.375,66.9922 Q1215.375,67.3359 1215.0313,67.7422 Q1214.5313,68.3203 1213.7344,68.6484 Q1212.6563,69.1016 1211.3594,69.1016 Q1209.8438,69.1016 1208.6406,68.4766 Q1207.6563,67.9766 1206.9688,66.9063 Q1206.2813,65.8359 1206.2813,64.5547 L1206.2813,63.3984 Q1206.2813,62.0703 1206.8984,60.9219 Q1207.5156,59.7734 1208.6094,59.1563 Q1209.7031,58.5391 1210.9375,58.5391 Q1211.6719,58.5391 1212.3203,58.7031 Q1212.9688,58.8672 1213.5156,59.2266 Z " fill="#000000"/><text fill="#000000" font-family="sans-serif" font-size="12" font-style="italic" lengthAdjust="spacing" textLength="66" x="1267.75" y="59.457">&#171;dataclass&#187;</text><text fill="#000000" font-family="sans-serif" font-size="14" lengthAdjust="spacing" textLength="139" x="1231.25" y="76.627">SkillHardwareIOResult</text><line style="stroke:#181818;stroke-width:0.5;" x1="1164" x2="1405" y1="84.7031" y2="84.7031"/><text fill="#000000" font-family="sans-serif" font-size="14" lengthAdjust="spacing" textLength="101" x="1169" y="103.2363">+function_id: str</text><text fill="#000000" font-family="sans-serif" font-size="14" lengthAdjust="spacing" textLength="145" x="1169" y="120.8457">+sensors: set&lt;URIRef&gt;</text><text fill="#000000" font-family="sans-serif" font-size="14" lengthAdjust="spacing" textLength="134" x="1169" y="138.4551">+actors: set&lt;URIRef&gt;</text><text fill="#000000" font-family="sans-serif" font-size="14" lengthAdjust="spacing" textLength="20" x="1169" y="156.0645">+...</text><text fill="#000000" font-family="sans-serif" font-size="14" lengthAdjust="spacing" textLength="133" x="1169" y="173.6738">+has_hardware: bool</text><text fill="#000000" font-family="sans-serif" font-size="14" lengthAdjust="spacing" textLength="156" x="1169" y="191.2832">+debug: dict&lt;str, object&gt;</text><line style="stroke:#181818;stroke-width:0.5;" x1="1164" x2="1405" y1="198.3594" y2="198.3594"/><text fill="#000000" font-family="sans-serif" font-size="14" lengthAdjust="spacing" textLength="231" x="1169" y="216.8926">+as_skill_io_entry(): dict&lt;str, object&gt;</text></g><!--reverse link FMEASkillFunctionBuilder to SkillFunctionSuggestion--><g id="link_FMEASkillFunctionBuilder_SkillFunctionSuggestion"><path codeLine="51" d="M301,339.52 C301,361.69 301,367 301,367 C301,367 948.7,367 1192.86,367 " fill="none" id="FMEASkillFunctionBuilder-backto-SkillFunctionSuggestion" style="stroke:#181818;stroke-width:1.0;"/><polygon fill="none" points="301,327.52,297,333.52,301,339.52,305,333.52,301,327.52" style="stroke:#181818;stroke-width:1.0;"/><text fill="#000000" font-family="sans-serif" font-size="13" lengthAdjust="spacing" textLength="43" x="683.19" y="381.4951">creates</text><text fill="#000000" font-family="sans-serif" font-size="13" lengthAdjust="spacing" textLength="32" x="1152.9552" y="383.6016">many</text></g><!--link FMEASkillFunctionBuilder to SkillHardwareIOResolver--><g id="link_FMEASkillFunctionBuilder_SkillHardwareIOResolver"><path codeLine="52" d="M580.4,233 C600.3,233 614.25,233 633.84,233 " fill="none" id="FMEASkillFunctionBuilder-to-SkillHardwareIOResolver" style="stroke:#181818;stroke-width:1.0;stroke-dasharray:7.0,7.0;"/><polygon fill="#181818" points="639.84,233,630.84,229,634.84,233,630.84,237,639.84,233" style="stroke:#181818;stroke-width:1.0;"/><text fill="#000000" font-family="sans-serif" font-size="13" lengthAdjust="spacing" textLength="133" x="476.12" y="247.4951">delegates IO resolution</text></g><!--link FMEASkillFunctionBuilder to SkillHardwareIOResult--><g id="link_FMEASkillFunctionBuilder_SkillHardwareIOResult"><path codeLine="53" d="M301,138.18 C301,111.81 301,90.25 301,90.25 C301,90.25 893.78,90.25 1156.92,90.25 " fill="none" id="FMEASkillFunctionBuilder-to-SkillHardwareIOResult" style="stroke:#181818;stroke-width:1.0;stroke-dasharray:7.0,7.0;"/><polygon fill="#181818" points="1162.92,90.25,1153.92,86.25,1157.92,90.25,1153.92,94.25,1162.92,90.25" style="stroke:#181818;stroke-width:1.0;"/><text fill="#000000" font-family="sans-serif" font-size="13" lengthAdjust="spacing" textLength="40" x="666.99" y="104.7451">returns</text></g><!--link SkillHardwareIOResolver to SkillFunctionSuggestion--><g id="link_SkillHardwareIOResolver_SkillFunctionSuggestion"><path codeLine="55" d="M1103.05,293.5 C1134.72,293.5 1159.58,293.5 1186.62,293.5 " fill="none" id="SkillHardwareIOResolver-to-SkillFunctionSuggestion" style="stroke:#181818;stroke-width:1.0;stroke-dasharray:7.0,7.0;"/><polygon fill="#181818" points="1192.62,293.5,1183.62,289.5,1187.62,293.5,1183.62,297.5,1192.62,293.5" style="stroke:#181818;stroke-width:1.0;"/><text fill="#000000" font-family="sans-serif" font-size="13" lengthAdjust="spacing" textLength="28" x="1118.83" y="307.9951">input</text></g><!--reverse link SkillHardwareIOResolver to SkillHardwareIOResult--><g id="link_SkillHardwareIOResolver_SkillHardwareIOResult"><path codeLine="56" d="M1115.05,181.25 C1135.58,181.25 1143.77,181.25 1162.8,181.25 " fill="none" id="SkillHardwareIOResolver-backto-SkillHardwareIOResult" style="stroke:#181818;stroke-width:1.0;"/><polygon fill="none" points="1103.05,181.25,1109.05,185.25,1115.05,181.25,1109.05,177.25,1103.05,181.25" style="stroke:#181818;stroke-width:1.0;"/><text fill="#000000" font-family="sans-serif" font-size="13" lengthAdjust="spacing" textLength="43" x="1088.93" y="177.7451">creates</text><text fill="#000000" font-family="sans-serif" font-size="13" lengthAdjust="spacing" textLength="32" x="1122.8392" y="198.0081">many</text></g><!--SRC=[fLLDRzim3BthLn2vk4NhR6SZ2D0EwvR3q2BTpePYqOuMMJ8aUMqszB-FybUSpXvMxD8w4lNu-1ufHLvwXN3tvUCDF1waKd1NwynBeu5h0P-v5K_S8cpkOOlEg1ze6NC7gIjkUGcPuixTU6_bhlQuoOn-b3yHtez2t9uByoHr0JbN3aSxIchqnmh1MBytJ67kmHkmijXx4D9YmuEnYcS7NY0iyX9vwWBBDEzOfhjQAe5s0RyOj7IQOffQ-b9ksvWc1226IcNfeKWhxlS9FD3VRht1dze81mhBArhz5FurorVBvRBz05SN1Je_i78NbmcLv_pgZCTZ6qPVw-wWRJNjYjftQgVINBWXrbr3oPzJRGGwWXKoyoldxNNhL-_GvfxygPNlaHjTEbnfqf9N_m8PljRZwbxO8EjCAR1Q2Uvv4xDUTnfVmM2G50aGTbzmhRqiCTMyH4SRs2JkILUcJgMLtSQtxMQB-Vgrs0DoRMK2RT04qpDXciOT_F_3oXYuioxjoP5OOr46WZ6GdbMgJCRLT0Kdbfsp8z7FDPyqxrLNSAN-imzYI1sYI8cmScbkR7h26q7ttJgX-5zbfJnliz-XTiPE-GiyyzCx9qttt0qpai3E6DLj2DpLnLWIi_kEGoUJkQT1GEtjyU9oElY5KRbizlumSGoBaklZOdOO4iWiSezk7cMvNCzsAD52XKK025TkqmXrSmk-4Iuuaz1vNrljM3INBuxNxHXGiBUSbXnHduiUKaqMJjTwxMVFljPkWcslN3IN8x1jMuEY-xi2ta5dBlsOgZI0dvticf0EjZqN48OXOIpIncFt2fbypYhAvBdr3d9hw1qqcjZJiOVxRny8XYRLPtjqInPzxMMbDdIoq2Lr88qoFbVahclccaKLFO4aeFDSPo6Idjwxsz52k9WKYqILq0pqP6w421106f1ob4vGkYro4HkjZgqV4Duo0gGdt65uTZsAXZAB0XckuboP9p2r7u8912b_K87z1W00]--></g></svg>