<?xml version="1.0" encoding="us-ascii" standalone="no"?><svg xmlns="http://www.w3.org/2000/svg" xmlns:xlink="http://www.w3.org/1999/xlink" contentStyleType="text/css" height="637px" preserveAspectRatio="none" style="width:1034px;height:637px;background:#FFFFFF;" version="1.1" viewBox="0 0 1034 637" width="1034px" zoomAndPan="magnify"><defs/><g><!--cluster Generierungs- und Leitplanken-Komponente--><g id="cluster_Generierungs- und Leitplanken-Komponente"><rect fill="none" height="624" rx="2.5" ry="2.5" style="stroke:#000000;stroke-width:1.5;" width="1021" x="7" y="7"/><text fill="#000000" font-family="sans-serif" font-size="14" font-weight="bold" lengthAdjust="spacing" textLength="315" x="360" y="23.5332">Generierungs- und Leitplanken-Komponente</text></g><!--class GenRequest--><g id="elem_GenRequest"><rect codeLine="10" fill="#F1F1F1" height="93.9219" id="GenRequest" rx="2.5" ry="2.5" style="stroke:#181818;stroke-width:0.5;" width="112" x="604" y="521"/><ellipse cx="619" cy="542.3516" fill="#ADD1B2" rx="11" ry="11" style="stroke:#181818;stroke-width:1.0;"/><path d="M621.7656,538.2266 Q621.9219,538.0078 622.1094,537.8984 Q622.2969,537.7891 622.5156,537.7891 Q622.8906,537.7891 623.125,538.0469 Q623.3594,538.3047 623.3594,538.9141 L623.3594,540.3672 Q623.3594,540.9766 623.125,541.2422 Q622.8906,541.5078 622.5156,541.5078 Q622.1719,541.5078 621.9688,541.3047 Q621.7656,541.1172 621.6563,540.6016 Q621.6094,540.2422 621.4219,540.0547 Q621.0938,539.6797 620.4844,539.4609 Q619.875,539.2422 619.25,539.2422 Q618.4844,539.2422 617.8516,539.5703 Q617.2188,539.8984 616.7266,540.6484 Q616.2344,541.3984 616.2344,542.4297 L616.2344,543.5234 Q616.2344,544.7578 617.125,545.5781 Q618.0156,546.3984 619.6094,546.3984 Q620.5469,546.3984 621.2031,546.1484 Q621.5938,545.9922 622.0156,545.5547 Q622.2813,545.2891 622.4297,545.2109 Q622.5781,545.1328 622.7813,545.1328 Q623.1094,545.1328 623.3672,545.3906 Q623.625,545.6484 623.625,545.9922 Q623.625,546.3359 623.2813,546.7422 Q622.7813,547.3203 621.9844,547.6484 Q620.9063,548.1016 619.6094,548.1016 Q618.0938,548.1016 616.8906,547.4766 Q615.9063,546.9766 615.2188,545.9063 Q614.5313,544.8359 614.5313,543.5547 L614.5313,542.3984 Q614.5313,541.0703 615.1484,539.9219 Q615.7656,538.7734 616.8594,538.1563 Q617.9531,537.5391 619.1875,537.5391 Q619.9219,537.5391 620.5703,537.7031 Q621.2188,537.8672 621.7656,538.2266 Z " fill="#000000"/><text fill="#000000" font-family="sans-serif" font-size="12" font-style="italic" lengthAdjust="spacing" textLength="81" x="632.5" y="538.457">&#171;value object&#187;</text><text fill="#000000" font-family="sans-serif" font-size="14" lengthAdjust="spacing" textLength="80" x="633" y="555.627">GenRequest</text><line style="stroke:#181818;stroke-width:0.5;" x1="605" x2="715" y1="563.7031" y2="563.7031"/><text fill="#000000" font-family="sans-serif" font-size="14" lengthAdjust="spacing" textLength="86" x="610" y="582.2363">+question: str</text><text fill="#000000" font-family="sans-serif" font-size="14" lengthAdjust="spacing" textLength="91" x="610" y="599.8457">+extra_Ctx: str</text><line style="stroke:#181818;stroke-width:0.5;" x1="605" x2="715" y1="606.9219" y2="606.9219"/></g><!--class RetrievedCtxBlock--><g id="elem_RetrievedCtxBlock"><rect codeLine="15" fill="#F1F1F1" height="146.75" id="RetrievedCtxBlock" rx="2.5" ry="2.5" style="stroke:#181818;stroke-width:0.5;" width="147" x="865" y="365.5"/><ellipse cx="880" cy="386.8516" fill="#ADD1B2" rx="11" ry="11" style="stroke:#181818;stroke-width:1.0;"/><path d="M882.7656,382.7266 Q882.9219,382.5078 883.1094,382.3984 Q883.2969,382.2891 883.5156,382.2891 Q883.8906,382.2891 884.125,382.5469 Q884.3594,382.8047 884.3594,383.4141 L884.3594,384.8672 Q884.3594,385.4766 884.125,385.7422 Q883.8906,386.0078 883.5156,386.0078 Q883.1719,386.0078 882.9688,385.8047 Q882.7656,385.6172 882.6563,385.1016 Q882.6094,384.7422 882.4219,384.5547 Q882.0938,384.1797 881.4844,383.9609 Q880.875,383.7422 880.25,383.7422 Q879.4844,383.7422 878.8516,384.0703 Q878.2188,384.3984 877.7266,385.1484 Q877.2344,385.8984 877.2344,386.9297 L877.2344,388.0234 Q877.2344,389.2578 878.125,390.0781 Q879.0156,390.8984 880.6094,390.8984 Q881.5469,390.8984 882.2031,390.6484 Q882.5938,390.4922 883.0156,390.0547 Q883.2813,389.7891 883.4297,389.7109 Q883.5781,389.6328 883.7813,389.6328 Q884.1094,389.6328 884.3672,389.8906 Q884.625,390.1484 884.625,390.4922 Q884.625,390.8359 884.2813,391.2422 Q883.7813,391.8203 882.9844,392.1484 Q881.9063,392.6016 880.6094,392.6016 Q879.0938,392.6016 877.8906,391.9766 Q876.9063,391.4766 876.2188,390.4063 Q875.5313,389.3359 875.5313,388.0547 L875.5313,386.8984 Q875.5313,385.5703 876.1484,384.4219 Q876.7656,383.2734 877.8594,382.6563 Q878.9531,382.0391 880.1875,382.0391 Q880.9219,382.0391 881.5703,382.2031 Q882.2188,382.3672 882.7656,382.7266 Z " fill="#000000"/><text fill="#000000" font-family="sans-serif" font-size="12" font-style="italic" lengthAdjust="spacing" textLength="81" x="911" y="382.957">&#171;value object&#187;</text><text fill="#000000" font-family="sans-serif" font-size="14" lengthAdjust="spacing" textLength="115" x="894" y="400.127">RetrievedCtxBlock</text><line style="stroke:#181818;stroke-width:0.5;" x1="866" x2="1011" y1="408.2031" y2="408.2031"/><text fill="#000000" font-family="sans-serif" font-size="14" lengthAdjust="spacing" textLength="59" x="871" y="426.7363">+rank: int</text><text fill="#000000" font-family="sans-serif" font-size="14" lengthAdjust="spacing" textLength="58" x="871" y="444.3457">+kind: str</text><text fill="#000000" font-family="sans-serif" font-size="14" lengthAdjust="spacing" textLength="67" x="871" y="461.9551">+name: str</text><text fill="#000000" font-family="sans-serif" font-size="14" lengthAdjust="spacing" textLength="78" x="871" y="479.5645">+score: float</text><text fill="#000000" font-family="sans-serif" font-size="14" lengthAdjust="spacing" textLength="54" x="871" y="497.1738">+text: str</text><line style="stroke:#181818;stroke-width:0.5;" x1="866" x2="1011" y1="504.25" y2="504.25"/></g><!--class GroundedCtxBundle--><g id="elem_GroundedCtxBundle"><rect codeLine="23" fill="#F1F1F1" height="93.9219" id="GroundedCtxBundle" rx="2.5" ry="2.5" style="stroke:#181818;stroke-width:0.5;" width="290" x="515" y="392"/><ellipse cx="591.75" cy="413.3516" fill="#ADD1B2" rx="11" ry="11" style="stroke:#181818;stroke-width:1.0;"/><path d="M594.5156,409.2266 Q594.6719,409.0078 594.8594,408.8984 Q595.0469,408.7891 595.2656,408.7891 Q595.6406,408.7891 595.875,409.0469 Q596.1094,409.3047 596.1094,409.9141 L596.1094,411.3672 Q596.1094,411.9766 595.875,412.2422 Q595.6406,412.5078 595.2656,412.5078 Q594.9219,412.5078 594.7188,412.3047 Q594.5156,412.1172 594.4063,411.6016 Q594.3594,411.2422 594.1719,411.0547 Q593.8438,410.6797 593.2344,410.4609 Q592.625,410.2422 592,410.2422 Q591.2344,410.2422 590.6016,410.5703 Q589.9688,410.8984 589.4766,411.6484 Q588.9844,412.3984 588.9844,413.4297 L588.9844,414.5234 Q588.9844,415.7578 589.875,416.5781 Q590.7656,417.3984 592.3594,417.3984 Q593.2969,417.3984 593.9531,417.1484 Q594.3438,416.9922 594.7656,416.5547 Q595.0313,416.2891 595.1797,416.2109 Q595.3281,416.1328 595.5313,416.1328 Q595.8594,416.1328 596.1172,416.3906 Q596.375,416.6484 596.375,416.9922 Q596.375,417.3359 596.0313,417.7422 Q595.5313,418.3203 594.7344,418.6484 Q593.6563,419.1016 592.3594,419.1016 Q590.8438,419.1016 589.6406,418.4766 Q588.6563,417.9766 587.9688,416.9063 Q587.2813,415.8359 587.2813,414.5547 L587.2813,413.3984 Q587.2813,412.0703 587.8984,410.9219 Q588.5156,409.7734 589.6094,409.1563 Q590.7031,408.5391 591.9375,408.5391 Q592.6719,408.5391 593.3203,408.7031 Q593.9688,408.8672 594.5156,409.2266 Z " fill="#000000"/><text fill="#000000" font-family="sans-serif" font-size="12" font-style="italic" lengthAdjust="spacing" textLength="81" x="635.75" y="409.457">&#171;value object&#187;</text><text fill="#000000" font-family="sans-serif" font-size="14" lengthAdjust="spacing" textLength="128" x="612.25" y="426.627">GroundedCtxBundle</text><line style="stroke:#181818;stroke-width:0.5;" x1="516" x2="804" y1="434.7031" y2="434.7031"/><text fill="#000000" font-family="sans-serif" font-size="14" lengthAdjust="spacing" textLength="95" x="521" y="453.2363">+event_Ctx: str</text><text fill="#000000" font-family="sans-serif" font-size="14" lengthAdjust="spacing" textLength="278" x="521" y="470.8457">+retrieved_chunks: List&lt;RetrievedCtxBlock&gt;</text><line style="stroke:#181818;stroke-width:0.5;" x1="516" x2="804" y1="477.9219" y2="477.9219"/></g><!--class GuardrailPolicy--><g id="elem_GuardrailPolicy"><rect codeLine="28" fill="#F1F1F1" height="83.2188" id="GuardrailPolicy" rx="2.5" ry="2.5" style="stroke:#181818;stroke-width:0.5;" width="275" x="522.5" y="273.5"/><ellipse cx="607.75" cy="289.5" fill="#ADD1B2" rx="11" ry="11" style="stroke:#181818;stroke-width:1.0;"/><path d="M610.5156,285.375 Q610.6719,285.1563 610.8594,285.0469 Q611.0469,284.9375 611.2656,284.9375 Q611.6406,284.9375 611.875,285.1953 Q612.1094,285.4531 612.1094,286.0625 L612.1094,287.5156 Q612.1094,288.125 611.875,288.3906 Q611.6406,288.6563 611.2656,288.6563 Q610.9219,288.6563 610.7188,288.4531 Q610.5156,288.2656 610.4063,287.75 Q610.3594,287.3906 610.1719,287.2031 Q609.8438,286.8281 609.2344,286.6094 Q608.625,286.3906 608,286.3906 Q607.2344,286.3906 606.6016,286.7188 Q605.9688,287.0469 605.4766,287.7969 Q604.9844,288.5469 604.9844,289.5781 L604.9844,290.6719 Q604.9844,291.9063 605.875,292.7266 Q606.7656,293.5469 608.3594,293.5469 Q609.2969,293.5469 609.9531,293.2969 Q610.3438,293.1406 610.7656,292.7031 Q611.0313,292.4375 611.1797,292.3594 Q611.3281,292.2813 611.5313,292.2813 Q611.8594,292.2813 612.1172,292.5391 Q612.375,292.7969 612.375,293.1406 Q612.375,293.4844 612.0313,293.8906 Q611.5313,294.4688 610.7344,294.7969 Q609.6563,295.25 608.3594,295.25 Q606.8438,295.25 605.6406,294.625 Q604.6563,294.125 603.9688,293.0547 Q603.2813,291.9844 603.2813,290.7031 L603.2813,289.5469 Q603.2813,288.2188 603.8984,287.0703 Q604.5156,285.9219 605.6094,285.3047 Q606.7031,284.6875 607.9375,284.6875 Q608.6719,284.6875 609.3203,284.8516 Q609.9688,285.0156 610.5156,285.375 Z " fill="#000000"/><text fill="#000000" font-family="sans-serif" font-size="14" lengthAdjust="spacing" textLength="96" x="628.25" y="295.2285">GuardrailPolicy</text><line style="stroke:#181818;stroke-width:0.5;" x1="523.5" x2="796.5" y1="305.5" y2="305.5"/><line style="stroke:#181818;stroke-width:0.5;" x1="523.5" x2="796.5" y1="313.5" y2="313.5"/><text fill="#000000" font-family="sans-serif" font-size="14" lengthAdjust="spacing" textLength="263" x="528.5" y="332.0332">+enforce(req: GenRequest): GenRequest</text><text fill="#000000" font-family="sans-serif" font-size="14" lengthAdjust="spacing" textLength="218" x="528.5" y="349.6426">+validate(result: GenResult): None</text></g><!--class AnswerContract--><g id="elem_AnswerContract"><rect codeLine="33" fill="#F1F1F1" height="65.6094" id="AnswerContract" rx="2.5" ry="2.5" style="stroke:#181818;stroke-width:0.5;" width="195" x="562.5" y="172"/><ellipse cx="605.85" cy="188" fill="#ADD1B2" rx="11" ry="11" style="stroke:#181818;stroke-width:1.0;"/><path d="M608.6156,183.875 Q608.7719,183.6563 608.9594,183.5469 Q609.1469,183.4375 609.3656,183.4375 Q609.7406,183.4375 609.975,183.6953 Q610.2094,183.9531 610.2094,184.5625 L610.2094,186.0156 Q610.2094,186.625 609.975,186.8906 Q609.7406,187.1563 609.3656,187.1563 Q609.0219,187.1563 608.8188,186.9531 Q608.6156,186.7656 608.5063,186.25 Q608.4594,185.8906 608.2719,185.7031 Q607.9438,185.3281 607.3344,185.1094 Q606.725,184.8906 606.1,184.8906 Q605.3344,184.8906 604.7016,185.2188 Q604.0688,185.5469 603.5766,186.2969 Q603.0844,187.0469 603.0844,188.0781 L603.0844,189.1719 Q603.0844,190.4063 603.975,191.2266 Q604.8656,192.0469 606.4594,192.0469 Q607.3969,192.0469 608.0531,191.7969 Q608.4438,191.6406 608.8656,191.2031 Q609.1313,190.9375 609.2797,190.8594 Q609.4281,190.7813 609.6313,190.7813 Q609.9594,190.7813 610.2172,191.0391 Q610.475,191.2969 610.475,191.6406 Q610.475,191.9844 610.1313,192.3906 Q609.6313,192.9688 608.8344,193.2969 Q607.7563,193.75 606.4594,193.75 Q604.9438,193.75 603.7406,193.125 Q602.7563,192.625 602.0688,191.5547 Q601.3813,190.4844 601.3813,189.2031 L601.3813,188.0469 Q601.3813,186.7188 601.9984,185.5703 Q602.6156,184.4219 603.7094,183.8047 Q604.8031,183.1875 606.0375,183.1875 Q606.7719,183.1875 607.4203,183.3516 Q608.0688,183.5156 608.6156,183.875 Z " fill="#000000"/><text fill="#000000" font-family="sans-serif" font-size="14" lengthAdjust="spacing" textLength="100" x="626.15" y="193.7285">AnswerContract</text><line style="stroke:#181818;stroke-width:0.5;" x1="563.5" x2="756.5" y1="204" y2="204"/><text fill="#000000" font-family="sans-serif" font-size="14" lengthAdjust="spacing" textLength="183" x="568.5" y="222.5332">+required_sections: List&lt;str&gt;</text><line style="stroke:#181818;stroke-width:0.5;" x1="563.5" x2="756.5" y1="229.6094" y2="229.6094"/></g><!--class GroundedAnswerGenerator--><g id="elem_GroundedAnswerGenerator"><rect codeLine="37" fill="#F1F1F1" height="65.6094" id="GroundedAnswerGenerator" rx="2.5" ry="2.5" style="stroke:#181818;stroke-width:0.5;" width="432" x="23" y="282"/><ellipse cx="147.25" cy="298" fill="#ADD1B2" rx="11" ry="11" style="stroke:#181818;stroke-width:1.0;"/><path d="M150.0156,293.875 Q150.1719,293.6563 150.3594,293.5469 Q150.5469,293.4375 150.7656,293.4375 Q151.1406,293.4375 151.375,293.6953 Q151.6094,293.9531 151.6094,294.5625 L151.6094,296.0156 Q151.6094,296.625 151.375,296.8906 Q151.1406,297.1563 150.7656,297.1563 Q150.4219,297.1563 150.2188,296.9531 Q150.0156,296.7656 149.9063,296.25 Q149.8594,295.8906 149.6719,295.7031 Q149.3438,295.3281 148.7344,295.1094 Q148.125,294.8906 147.5,294.8906 Q146.7344,294.8906 146.1016,295.2188 Q145.4688,295.5469 144.9766,296.2969 Q144.4844,297.0469 144.4844,298.0781 L144.4844,299.1719 Q144.4844,300.4063 145.375,301.2266 Q146.2656,302.0469 147.8594,302.0469 Q148.7969,302.0469 149.4531,301.7969 Q149.8438,301.6406 150.2656,301.2031 Q150.5313,300.9375 150.6797,300.8594 Q150.8281,300.7813 151.0313,300.7813 Q151.3594,300.7813 151.6172,301.0391 Q151.875,301.2969 151.875,301.6406 Q151.875,301.9844 151.5313,302.3906 Q151.0313,302.9688 150.2344,303.2969 Q149.1563,303.75 147.8594,303.75 Q146.3438,303.75 145.1406,303.125 Q144.1563,302.625 143.4688,301.5547 Q142.7813,300.4844 142.7813,299.2031 L142.7813,298.0469 Q142.7813,296.7188 143.3984,295.5703 Q144.0156,294.4219 145.1094,293.8047 Q146.2031,293.1875 147.4375,293.1875 Q148.1719,293.1875 148.8203,293.3516 Q149.4688,293.5156 150.0156,293.875 Z " fill="#000000"/><text fill="#000000" font-family="sans-serif" font-size="14" lengthAdjust="spacing" textLength="175" x="167.75" y="303.7285">GroundedAnswerGenerator</text><line style="stroke:#181818;stroke-width:0.5;" x1="24" x2="454" y1="314" y2="314"/><line style="stroke:#181818;stroke-width:0.5;" x1="24" x2="454" y1="322" y2="322"/><text fill="#000000" font-family="sans-serif" font-size="14" lengthAdjust="spacing" textLength="420" x="29" y="340.5332">+generate(req: GenRequest, ctx: GroundedCtxBundle): GenResult</text></g><!--class GenResult--><g id="elem_GenResult"><rect codeLine="41" fill="#F1F1F1" height="93.9219" id="GenResult" rx="2.5" ry="2.5" style="stroke:#181818;stroke-width:0.5;" width="195" x="562.5" y="43"/><ellipse cx="617.25" cy="64.3516" fill="#ADD1B2" rx="11" ry="11" style="stroke:#181818;stroke-width:1.0;"/><path d="M620.0156,60.2266 Q620.1719,60.0078 620.3594,59.8984 Q620.5469,59.7891 620.7656,59.7891 Q621.1406,59.7891 621.375,60.0469 Q621.6094,60.3047 621.6094,60.9141 L621.6094,62.3672 Q621.6094,62.9766 621.375,63.2422 Q621.1406,63.5078 620.7656,63.5078 Q620.4219,63.5078 620.2188,63.3047 Q620.0156,63.1172 619.9063,62.6016 Q619.8594,62.2422 619.6719,62.0547 Q619.3438,61.6797 618.7344,61.4609 Q618.125,61.2422 617.5,61.2422 Q616.7344,61.2422 616.1016,61.5703 Q615.4688,61.8984 614.9766,62.6484 Q614.4844,63.3984 614.4844,64.4297 L614.4844,65.5234 Q614.4844,66.7578 615.375,67.5781 Q616.2656,68.3984 617.8594,68.3984 Q618.7969,68.3984 619.4531,68.1484 Q619.8438,67.9922 620.2656,67.5547 Q620.5313,67.2891 620.6797,67.2109 Q620.8281,67.1328 621.0313,67.1328 Q621.3594,67.1328 621.6172,67.3906 Q621.875,67.6484 621.875,67.9922 Q621.875,68.3359 621.5313,68.7422 Q621.0313,69.3203 620.2344,69.6484 Q619.1563,70.1016 617.8594,70.1016 Q616.3438,70.1016 615.1406,69.4766 Q614.1563,68.9766 613.4688,67.9063 Q612.7813,66.8359 612.7813,65.5547 L612.7813,64.3984 Q612.7813,63.0703 613.3984,61.9219 Q614.0156,60.7734 615.1094,60.1563 Q616.2031,59.5391 617.4375,59.5391 Q618.1719,59.5391 618.8203,59.7031 Q619.4688,59.8672 620.0156,60.2266 Z " fill="#000000"/><text fill="#000000" font-family="sans-serif" font-size="12" font-style="italic" lengthAdjust="spacing" textLength="81" x="635.75" y="60.457">&#171;value object&#187;</text><text fill="#000000" font-family="sans-serif" font-size="14" lengthAdjust="spacing" textLength="67" x="642.75" y="77.627">GenResult</text><line style="stroke:#181818;stroke-width:0.5;" x1="563.5" x2="756.5" y1="85.7031" y2="85.7031"/><text fill="#000000" font-family="sans-serif" font-size="14" lengthAdjust="spacing" textLength="77" x="568.5" y="104.2363">+answer: str</text><text fill="#000000" font-family="sans-serif" font-size="14" lengthAdjust="spacing" textLength="183" x="568.5" y="121.8457">+uncertainty_notes: List&lt;str&gt;</text><line style="stroke:#181818;stroke-width:0.5;" x1="563.5" x2="756.5" y1="128.9219" y2="128.9219"/></g><!--reverse link GroundedCtxBundle to RetrievedCtxBlock--><g id="link_GroundedCtxBundle_RetrievedCtxBlock"><path codeLine="46" d="M817.37,439 C837.94,439 846.34,439 864.76,439 " fill="none" id="GroundedCtxBundle-backto-RetrievedCtxBlock" style="stroke:#181818;stroke-width:1.0;"/><polygon fill="#181818" points="805.37,439,811.37,443,817.37,439,811.37,435,805.37,439" style="stroke:#181818;stroke-width:1.0;"/></g><!--link GroundedAnswerGenerator to GuardrailPolicy--><g id="link_GroundedAnswerGenerator_GuardrailPolicy"><path codeLine="47" d="M455.05,304 C477.96,304 494.79,304 516.44,304 " fill="none" id="GroundedAnswerGenerator-to-GuardrailPolicy" style="stroke:#181818;stroke-width:1.0;"/><polygon fill="#181818" points="522.44,304,513.44,300,517.44,304,513.44,308,522.44,304" style="stroke:#181818;stroke-width:1.0;"/><text fill="#000000" font-family="sans-serif" font-size="13" lengthAdjust="spacing" textLength="50" x="437.75" y="318.4951">beachtet</text></g><!--link GroundedAnswerGenerator to AnswerContract--><g id="link_GroundedAnswerGenerator_AnswerContract"><path codeLine="48" d="M311,282 C311,249.6 311,205 311,205 C311,205 453.07,205 556.32,205 " fill="none" id="GroundedAnswerGenerator-to-AnswerContract" style="stroke:#181818;stroke-width:1.0;"/><polygon fill="#181818" points="562.32,205,553.32,201,557.32,205,553.32,209,562.32,205" style="stroke:#181818;stroke-width:1.0;"/><text fill="#000000" font-family="sans-serif" font-size="13" lengthAdjust="spacing" textLength="86" x="311.16" y="219.4951">formatiert nach</text></g><!--link GroundedAnswerGenerator to GenRequest--><g id="link_GroundedAnswerGenerator_GenRequest"><path codeLine="49" d="M239,348.08 C239,416.65 239,568 239,568 C239,568 482.94,568 597.66,568 " fill="none" id="GroundedAnswerGenerator-to-GenRequest" style="stroke:#181818;stroke-width:1.0;"/><polygon fill="#181818" points="603.66,568,594.66,564,598.66,568,594.66,572,603.66,568" style="stroke:#181818;stroke-width:1.0;"/><text fill="#000000" font-family="sans-serif" font-size="13" lengthAdjust="spacing" textLength="59" x="251.37" y="582.4951">verarbeitet</text></g><!--link GroundedAnswerGenerator to GroundedCtxBundle--><g id="link_GroundedAnswerGenerator_GroundedCtxBundle"><path codeLine="50" d="M455.11,326 C492.17,326 519,326 519,326 C519,326 519,354.77 519,385.73 " fill="none" id="GroundedAnswerGenerator-to-GroundedCtxBundle" style="stroke:#181818;stroke-width:1.0;"/><polygon fill="#181818" points="519,391.73,523,382.73,519,386.73,515,382.73,519,391.73" style="stroke:#181818;stroke-width:1.0;"/><text fill="#000000" font-family="sans-serif" font-size="13" lengthAdjust="spacing" textLength="29" x="489" y="341.4151">nutzt</text></g><!--link GroundedAnswerGenerator to GenResult--><g id="link_GroundedAnswerGenerator_GenResult"><path codeLine="51" d="M167,281.8 C167,219.21 167,90 167,90 C167,90 412.58,90 556.3,90 " fill="none" id="GroundedAnswerGenerator-to-GenResult" style="stroke:#181818;stroke-width:1.0;"/><polygon fill="#181818" points="562.3,90,553.3,86,557.3,90,553.3,94,562.3,90" style="stroke:#181818;stroke-width:1.0;"/><text fill="#000000" font-family="sans-serif" font-size="13" lengthAdjust="spacing" textLength="43" x="224.75" y="104.4951">erzeugt</text></g><!--SRC=[ZLF1Rjim3BtxAuXUkcupiBCH1EXwA8OLmz1-GA38ZAD5eLoAIfiC_VVHSPAgSOBi9f7KUu-Fr7LSE6eDcoN4kQd3YwC6PiP7BDuprfiORqNOJPFW3nleoMqGlcKbhR4Bq-2Jh3q2enL3ZSynl2EKTOiGMEQXy3WJa03ichb0xRedBb1nBQ7jujCW4fPPejWnmDKz4h93JjJ44XBLy81EMczeWLJ-3Cis49BW5VmjeDSE-kOHdnD6WT5ePNnI7TC_2ZqURwi0lcopobH15Ev3-2fi9dVoke-z5GV4HrGxS8Mrfh_xO1TdWLc5LU18-giwKcSSP9QONQCDhFUP3sPNBwhY1Fyz1sszfzU3kdwENqMIv5rqclRg9tQUQ14hU71HHeEcnaUaoN3DnldVmJkxFZ3GBB35JupFLMRrJNxfArMXgurqfJ5vsHLqHot-fNFxo7TByGNvBf3EmSh1K4NKlQWdiT-DlNhjRdpQf1vdkpX60k-1cZum4FuLREVMmEARJEyHqJvyTWfcAo4RGIABB4RtOZsX87YgY-6GFvVbSFMookDEot8yc5e5KpHsBYWN7XxPhsiPU6b4_vu0AS8btlTFLy5A4ppLZtgHTTXq1PHa8_z3jvr11SWRJ8qKRyK_]--></g></svg>