<?xml version="1.0" encoding="us-ascii" standalone="no"?><svg xmlns="http://www.w3.org/2000/svg" xmlns:xlink="http://www.w3.org/1999/xlink" contentStyleType="text/css" height="1908px" preserveAspectRatio="none" style="width:2598px;height:1908px;background:#FFFFFF;" version="1.1" viewBox="0 0 2598 1908" width="2598px" zoomAndPan="magnify"><defs/><g><text fill="#000000" font-family="sans-serif" font-size="14" font-weight="bold" lengthAdjust="spacing" textLength="314" x="1140.5" y="29.5332">ExcH-RAG Agent Sequence - Initial Diagnosis</text><rect fill="none" height="216.2969" style="stroke:#000000;stroke-width:1.5;" width="902" x="331.5" y="198.9219"/><rect fill="none" height="125.2422" style="stroke:#000000;stroke-width:1.5;" width="784" x="1709.5" y="1404.4688"/><line style="stroke:#181818;stroke-width:0.5;stroke-dasharray:5.0,5.0;" x1="57" x2="57" y1="121.2188" y2="1826.2266"/><line style="stroke:#181818;stroke-width:0.5;stroke-dasharray:5.0,5.0;" x1="471.5" x2="471.5" y1="121.2188" y2="1826.2266"/><line style="stroke:#181818;stroke-width:0.5;stroke-dasharray:5.0,5.0;" x1="879.5" x2="879.5" y1="121.2188" y2="1826.2266"/><line style="stroke:#181818;stroke-width:0.5;stroke-dasharray:5.0,5.0;" x1="996.5" x2="996.5" y1="121.2188" y2="1826.2266"/><line style="stroke:#181818;stroke-width:0.5;stroke-dasharray:5.0,5.0;" x1="1138.5" x2="1138.5" y1="121.2188" y2="1826.2266"/><line style="stroke:#181818;stroke-width:0.5;stroke-dasharray:5.0,5.0;" x1="1397.5" x2="1397.5" y1="121.2188" y2="1826.2266"/><line style="stroke:#181818;stroke-width:0.5;stroke-dasharray:5.0,5.0;" x1="1640.5" x2="1640.5" y1="121.2188" y2="1826.2266"/><line style="stroke:#181818;stroke-width:0.5;stroke-dasharray:5.0,5.0;" x1="1778.5" x2="1778.5" y1="121.2188" y2="1826.2266"/><line style="stroke:#181818;stroke-width:0.5;stroke-dasharray:5.0,5.0;" x1="1919.5" x2="1919.5" y1="121.2188" y2="1826.2266"/><line style="stroke:#181818;stroke-width:0.5;stroke-dasharray:5.0,5.0;" x1="2046.5" x2="2046.5" y1="121.2188" y2="1826.2266"/><line style="stroke:#181818;stroke-width:0.5;stroke-dasharray:5.0,5.0;" x1="2158.5" x2="2158.5" y1="121.2188" y2="1826.2266"/><line style="stroke:#181818;stroke-width:0.5;stroke-dasharray:5.0,5.0;" x1="2292.5" x2="2292.5" y1="121.2188" y2="1826.2266"/><line style="stroke:#181818;stroke-width:0.5;stroke-dasharray:5.0,5.0;" x1="2433.5" x2="2433.5" y1="121.2188" y2="1826.2266"/><text fill="#000000" font-family="sans-serif" font-size="14" lengthAdjust="spacing" textLength="98" x="5" y="118.1426">User / Operator</text><ellipse cx="57" cy="52.1094" fill="#E2E2F0" rx="8" ry="8" style="stroke:#181818;stroke-width:0.5;"/><path d="M57,60.1094 L57,87.1094 M44,68.1094 L70,68.1094 M57,87.1094 L44,102.1094 M57,87.1094 L70,102.1094 " fill="none" style="stroke:#181818;stroke-width:0.5;"/><text fill="#000000" font-family="sans-serif" font-size="14" lengthAdjust="spacing" textLength="98" x="5" y="1839.7598">User / Operator</text><ellipse cx="57" cy="1851.3359" fill="#E2E2F0" rx="8" ry="8" style="stroke:#181818;stroke-width:0.5;"/><path d="M57,1859.3359 L57,1886.3359 M44,1867.3359 L70,1867.3359 M57,1886.3359 L44,1901.3359 M57,1886.3359 L70,1901.3359 " fill="none" style="stroke:#181818;stroke-width:0.5;"/><rect fill="#E2E2F0" height="31.6094" rx="2.5" ry="2.5" style="stroke:#181818;stroke-width:0.5;" width="261" x="341.5" y="88.6094"/><text fill="#000000" font-family="sans-serif" font-size="14" lengthAdjust="spacing" textLength="247" x="348.5" y="110.1426">rag_agent_ui.py\nstart_analysis(event)</text><rect fill="#E2E2F0" height="31.6094" rx="2.5" ry="2.5" style="stroke:#181818;stroke-width:0.5;" width="261" x="341.5" y="1825.2266"/><text fill="#000000" font-family="sans-serif" font-size="14" lengthAdjust="spacing" textLength="247" x="348.5" y="1846.7598">rag_agent_ui.py\nstart_analysis(event)</text><rect fill="#E2E2F0" height="31.6094" rx="2.5" ry="2.5" style="stroke:#181818;stroke-width:0.5;" width="121" x="819.5" y="88.6094"/><text fill="#000000" font-family="sans-serif" font-size="14" lengthAdjust="spacing" textLength="107" x="826.5" y="110.1426">IngestionPipeline</text><rect fill="#E2E2F0" height="31.6094" rx="2.5" ry="2.5" style="stroke:#181818;stroke-width:0.5;" width="121" x="819.5" y="1825.2266"/><text fill="#000000" font-family="sans-serif" font-size="14" lengthAdjust="spacing" textLength="107" x="826.5" y="1846.7598">IngestionPipeline</text><rect fill="#E2E2F0" height="31.6094" style="stroke:#181818;stroke-width:0.5;" width="89" x="954.5" y="84.6094"/><rect fill="#E2E2F0" height="31.6094" style="stroke:#181818;stroke-width:0.5;" width="89" x="950.5" y="88.6094"/><text fill="#000000" font-family="sans-serif" font-size="14" lengthAdjust="spacing" textLength="75" x="957.5" y="110.1426">Event JSON</text><rect fill="#E2E2F0" height="31.6094" style="stroke:#181818;stroke-width:0.5;" width="89" x="954.5" y="1825.2266"/><rect fill="#E2E2F0" height="31.6094" style="stroke:#181818;stroke-width:0.5;" width="89" x="950.5" y="1829.2266"/><text fill="#000000" font-family="sans-serif" font-size="14" lengthAdjust="spacing" textLength="75" x="957.5" y="1850.7598">Event JSON</text><text fill="#000000" font-family="sans-serif" font-size="14" lengthAdjust="spacing" textLength="164" x="1053.5" y="118.1426">export.xml / PLCOpenXML</text><path d="M1120.5,67.6094 C1120.5,57.6094 1138.5,57.6094 1138.5,57.6094 C1138.5,57.6094 1156.5,57.6094 1156.5,67.6094 L1156.5,93.6094 C1156.5,103.6094 1138.5,103.6094 1138.5,103.6094 C1138.5,103.6094 1120.5,103.6094 1120.5,93.6094 L1120.5,67.6094 " fill="#E2E2F0" style="stroke:#181818;stroke-width:1.5;"/><path d="M1120.5,67.6094 C1120.5,77.6094 1138.5,77.6094 1138.5,77.6094 C1138.5,77.6094 1156.5,77.6094 1156.5,67.6094 " fill="none" style="stroke:#181818;stroke-width:1.5;"/><text fill="#000000" font-family="sans-serif" font-size="14" lengthAdjust="spacing" textLength="164" x="1053.5" y="1839.7598">export.xml / PLCOpenXML</text><path d="M1120.5,1852.8359 C1120.5,1842.8359 1138.5,1842.8359 1138.5,1842.8359 C1138.5,1842.8359 1156.5,1842.8359 1156.5,1852.8359 L1156.5,1878.8359 C1156.5,1888.8359 1138.5,1888.8359 1138.5,1888.8359 C1138.5,1888.8359 1120.5,1888.8359 1120.5,1878.8359 L1120.5,1852.8359 " fill="#E2E2F0" style="stroke:#181818;stroke-width:1.5;"/><path d="M1120.5,1852.8359 C1120.5,1862.8359 1138.5,1862.8359 1138.5,1862.8359 C1138.5,1862.8359 1156.5,1862.8359 1156.5,1852.8359 " fill="none" style="stroke:#181818;stroke-width:1.5;"/><rect fill="#E2E2F0" height="31.6094" rx="2.5" ry="2.5" style="stroke:#181818;stroke-width:0.5;" width="329" x="1233.5" y="88.6094"/><text fill="#000000" font-family="sans-serif" font-size="14" lengthAdjust="spacing" textLength="315" x="1240.5" y="110.1426">RagSessionBuilder\nbuild_session_from_input(...)</text><rect fill="#E2E2F0" height="31.6094" rx="2.5" ry="2.5" style="stroke:#181818;stroke-width:0.5;" width="329" x="1233.5" y="1825.2266"/><text fill="#000000" font-family="sans-serif" font-size="14" lengthAdjust="spacing" textLength="315" x="1240.5" y="1846.7598">RagSessionBuilder\nbuild_session_from_input(...)</text><rect fill="#E2E2F0" height="31.6094" rx="2.5" ry="2.5" style="stroke:#181818;stroke-width:0.5;" width="137" x="1572.5" y="88.6094"/><text fill="#000000" font-family="sans-serif" font-size="14" lengthAdjust="spacing" textLength="123" x="1579.5" y="110.1426">RagIncidentContext</text><rect fill="#E2E2F0" height="31.6094" rx="2.5" ry="2.5" style="stroke:#181818;stroke-width:0.5;" width="137" x="1572.5" y="1825.2266"/><text fill="#000000" font-family="sans-serif" font-size="14" lengthAdjust="spacing" textLength="123" x="1579.5" y="1846.7598">RagIncidentContext</text><rect fill="#E2E2F0" height="31.6094" rx="2.5" ry="2.5" style="stroke:#181818;stroke-width:0.5;" width="119" x="1719.5" y="88.6094"/><text fill="#000000" font-family="sans-serif" font-size="14" lengthAdjust="spacing" textLength="105" x="1726.5" y="110.1426">SimpleRagAgent</text><rect fill="#E2E2F0" height="31.6094" rx="2.5" ry="2.5" style="stroke:#181818;stroke-width:0.5;" width="119" x="1719.5" y="1825.2266"/><text fill="#000000" font-family="sans-serif" font-size="14" lengthAdjust="spacing" textLength="105" x="1726.5" y="1846.7598">SimpleRagAgent</text><rect fill="#E2E2F0" height="31.6094" rx="2.5" ry="2.5" style="stroke:#181818;stroke-width:0.5;" width="143" x="1848.5" y="88.6094"/><text fill="#000000" font-family="sans-serif" font-size="14" lengthAdjust="spacing" textLength="129" x="1855.5" y="110.1426">PLCOpenXmlSource</text><rect fill="#E2E2F0" height="31.6094" rx="2.5" ry="2.5" style="stroke:#181818;stroke-width:0.5;" width="143" x="1848.5" y="1825.2266"/><text fill="#000000" font-family="sans-serif" font-size="14" lengthAdjust="spacing" textLength="129" x="1855.5" y="1846.7598">PLCOpenXmlSource</text><rect fill="#E2E2F0" height="31.6094" rx="2.5" ry="2.5" style="stroke:#181818;stroke-width:0.5;" width="90" x="2001.5" y="88.6094"/><text fill="#000000" font-family="sans-serif" font-size="14" lengthAdjust="spacing" textLength="76" x="2008.5" y="110.1426">XmlChunker</text><rect fill="#E2E2F0" height="31.6094" rx="2.5" ry="2.5" style="stroke:#181818;stroke-width:0.5;" width="90" x="2001.5" y="1825.2266"/><text fill="#000000" font-family="sans-serif" font-size="14" lengthAdjust="spacing" textLength="76" x="2008.5" y="1846.7598">XmlChunker</text><rect fill="#E2E2F0" height="31.6094" rx="2.5" ry="2.5" style="stroke:#181818;stroke-width:0.5;" width="115" x="2101.5" y="88.6094"/><text fill="#000000" font-family="sans-serif" font-size="14" lengthAdjust="spacing" textLength="101" x="2108.5" y="110.1426">SimpleRagIndex</text><rect fill="#E2E2F0" height="31.6094" rx="2.5" ry="2.5" style="stroke:#181818;stroke-width:0.5;" width="115" x="2101.5" y="1825.2266"/><text fill="#000000" font-family="sans-serif" font-size="14" lengthAdjust="spacing" textLength="101" x="2108.5" y="1846.7598">SimpleRagIndex</text><rect fill="#E2E2F0" height="31.6094" rx="2.5" ry="2.5" style="stroke:#181818;stroke-width:0.5;" width="132" x="2226.5" y="88.6094"/><text fill="#000000" font-family="sans-serif" font-size="14" lengthAdjust="spacing" textLength="118" x="2233.5" y="110.1426">SimpleRagSession</text><rect fill="#E2E2F0" height="31.6094" rx="2.5" ry="2.5" style="stroke:#181818;stroke-width:0.5;" width="132" x="2226.5" y="1825.2266"/><text fill="#000000" font-family="sans-serif" font-size="14" lengthAdjust="spacing" textLength="118" x="2233.5" y="1846.7598">SimpleRagSession</text><rect fill="#E2E2F0" height="31.6094" rx="2.5" ry="2.5" style="stroke:#181818;stroke-width:0.5;" width="100" x="2383.5" y="88.6094"/><text fill="#000000" font-family="sans-serif" font-size="14" lengthAdjust="spacing" textLength="86" x="2390.5" y="110.1426">LLM / OpenAI</text><rect fill="#E2E2F0" height="31.6094" rx="2.5" ry="2.5" style="stroke:#181818;stroke-width:0.5;" width="100" x="2383.5" y="1825.2266"/><text fill="#000000" font-family="sans-serif" font-size="14" lengthAdjust="spacing" textLength="86" x="2390.5" y="1846.7598">LLM / OpenAI</text><polygon fill="#181818" points="460,149.5703,470,153.5703,460,157.5703,464,153.5703" style="stroke:#181818;stroke-width:1.0;"/><line style="stroke:#181818;stroke-width:1.0;" x1="57" x2="466" y1="153.5703" y2="153.5703"/><text fill="#000000" font-family="sans-serif" font-size="13" lengthAdjust="spacing" textLength="269" x="64" y="148.7139">Klick auf "Weiter"\n(Start der ersten Diagnose)</text><polygon fill="#181818" points="985,179.9219,995,183.9219,985,187.9219,989,183.9219" style="stroke:#181818;stroke-width:1.0;"/><line style="stroke:#181818;stroke-width:1.0;" x1="472" x2="991" y1="183.9219" y2="183.9219"/><text fill="#000000" font-family="sans-serif" font-size="13" lengthAdjust="spacing" textLength="174" x="479" y="179.0654">nutze bereits geladenes Event</text><path d="M331.5,198.9219 L392.5,198.9219 L392.5,207.2734 L382.5,217.2734 L331.5,217.2734 L331.5,198.9219 " fill="#EEEEEE" style="stroke:#000000;stroke-width:1.5;"/><rect fill="none" height="216.2969" style="stroke:#000000;stroke-width:1.5;" width="902" x="331.5" y="198.9219"/><text fill="#000000" font-family="sans-serif" font-size="13" font-weight="bold" lengthAdjust="spacing" textLength="16" x="346.5" y="213.417">alt</text><text fill="#000000" font-family="sans-serif" font-size="11" font-weight="bold" lengthAdjust="spacing" textLength="168" x="407.5" y="212.3408">[Pipeline vor Analyse aktiviert]</text><polygon fill="#181818" points="868,235.625,878,239.625,868,243.625,872,239.625" style="stroke:#181818;stroke-width:1.0;"/><line style="stroke:#181818;stroke-width:1.0;" x1="472" x2="874" y1="239.625" y2="239.625"/><text fill="#000000" font-family="sans-serif" font-size="13" lengthAdjust="spacing" textLength="180" x="479" y="234.7686">run_pipeline(cfg.pipeline, event)</text><polygon fill="#181818" points="1126.5,265.9766,1136.5,269.9766,1126.5,273.9766,1130.5,269.9766" style="stroke:#181818;stroke-width:1.0;"/><line style="stroke:#181818;stroke-width:1.0;" x1="880" x2="1132.5" y1="269.9766" y2="269.9766"/><text fill="#000000" font-family="sans-serif" font-size="13" lengthAdjust="spacing" textLength="183" x="887" y="265.1201">erzeugt / aktualisiert export.xml</text><polygon fill="#181818" points="891,296.3281,881,300.3281,891,304.3281,887,300.3281" style="stroke:#181818;stroke-width:1.0;"/><line style="stroke:#181818;stroke-width:1.0;stroke-dasharray:2.0,2.0;" x1="885" x2="1137.5" y1="300.3281" y2="300.3281"/><text fill="#000000" font-family="sans-serif" font-size="13" lengthAdjust="spacing" textLength="130" x="897" y="295.4717">aktuelle PLCOpenXML</text><polygon fill="#181818" points="483,326.6797,473,330.6797,483,334.6797,479,330.6797" style="stroke:#181818;stroke-width:1.0;"/><line style="stroke:#181818;stroke-width:1.0;stroke-dasharray:2.0,2.0;" x1="477" x2="879" y1="330.6797" y2="330.6797"/><text fill="#000000" font-family="sans-serif" font-size="13" lengthAdjust="spacing" textLength="83" x="489" y="325.8232">ok + xml_path</text><polygon fill="#181818" points="985,357.0313,995,361.0313,985,365.0313,989,361.0313" style="stroke:#181818;stroke-width:1.0;"/><line style="stroke:#181818;stroke-width:1.0;" x1="472" x2="991" y1="361.0313" y2="361.0313"/><text fill="#000000" font-family="sans-serif" font-size="13" lengthAdjust="spacing" textLength="227" x="479" y="356.1748">payload.plcopen_xml_path := xml_path</text><line style="stroke:#000000;stroke-width:1.0;stroke-dasharray:2.0,2.0;" x1="331.5" x2="1233.5" y1="370.0313" y2="370.0313"/><text fill="#000000" font-family="sans-serif" font-size="11" font-weight="bold" lengthAdjust="spacing" textLength="114" x="336.5" y="381.4502">[Pipeline deaktiviert]</text><polygon fill="#181818" points="985,403.2188,995,407.2188,985,411.2188,989,407.2188" style="stroke:#181818;stroke-width:1.0;"/><line style="stroke:#181818;stroke-width:1.0;" x1="472" x2="991" y1="407.2188" y2="407.2188"/><text fill="#000000" font-family="sans-serif" font-size="13" lengthAdjust="spacing" textLength="239" x="479" y="402.3623">nutze XML-Pfad aus Event / Config / ENV</text><polygon fill="#181818" points="1386,440.5703,1396,444.5703,1386,448.5703,1390,444.5703" style="stroke:#181818;stroke-width:1.0;"/><line style="stroke:#181818;stroke-width:1.0;" x1="472" x2="1392" y1="444.5703" y2="444.5703"/><text fill="#000000" font-family="sans-serif" font-size="13" lengthAdjust="spacing" textLength="537" x="479" y="439.7139">build_session_from_input(event, xml_path,\npipeline_config_path, model, temperature, top_k)</text><line style="stroke:#181818;stroke-width:1.0;" x1="1398" x2="1440" y1="474.9219" y2="474.9219"/><line style="stroke:#181818;stroke-width:1.0;" x1="1440" x2="1440" y1="474.9219" y2="487.9219"/><line style="stroke:#181818;stroke-width:1.0;" x1="1399" x2="1440" y1="487.9219" y2="487.9219"/><polygon fill="#181818" points="1409,483.9219,1399,487.9219,1409,491.9219,1405,487.9219" style="stroke:#181818;stroke-width:1.0;"/><text fill="#000000" font-family="sans-serif" font-size="13" lengthAdjust="spacing" textLength="127" x="1405" y="470.0654">_resolve_xml_path(...)</text><polygon fill="#181818" points="1629,514.2734,1639,518.2734,1629,522.2734,1633,518.2734" style="stroke:#181818;stroke-width:1.0;"/><line style="stroke:#181818;stroke-width:1.0;" x1="1398" x2="1635" y1="518.2734" y2="518.2734"/><text fill="#000000" font-family="sans-serif" font-size="13" lengthAdjust="spacing" textLength="159" x="1405" y="513.417">from_input(event, xml_path)</text><polygon fill="#181818" points="1409,544.625,1399,548.625,1409,552.625,1405,548.625" style="stroke:#181818;stroke-width:1.0;"/><line style="stroke:#181818;stroke-width:1.0;stroke-dasharray:2.0,2.0;" x1="1403" x2="1640" y1="548.625" y2="548.625"/><text fill="#000000" font-family="sans-serif" font-size="13" lengthAdjust="spacing" textLength="113" x="1415" y="543.7686">RagIncidentContext</text><polygon fill="#181818" points="1767,574.9766,1777,578.9766,1767,582.9766,1771,578.9766" style="stroke:#181818;stroke-width:1.0;"/><line style="stroke:#181818;stroke-width:1.0;" x1="1398" x2="1773" y1="578.9766" y2="578.9766"/><text fill="#000000" font-family="sans-serif" font-size="13" lengthAdjust="spacing" text-decoration="underline" textLength="17" x="1405" y="574.1201">init</text><text fill="#000000" font-family="sans-serif" font-size="13" lengthAdjust="spacing" textLength="221" x="1422" y="574.1201">(xml_path, model, temperature, top_k)</text><polygon fill="#181818" points="1908,605.3281,1918,609.3281,1908,613.3281,1912,609.3281" style="stroke:#181818;stroke-width:1.0;"/><line style="stroke:#181818;stroke-width:1.0;" x1="1779" x2="1914" y1="609.3281" y2="609.3281"/><text fill="#000000" font-family="sans-serif" font-size="13" lengthAdjust="spacing" textLength="114" x="1786" y="604.4717">load_text(xml_path)</text><polygon fill="#181818" points="1149.5,635.6797,1139.5,639.6797,1149.5,643.6797,1145.5,639.6797" style="stroke:#181818;stroke-width:1.0;"/><line style="stroke:#181818;stroke-width:1.0;" x1="1143.5" x2="1919" y1="639.6797" y2="639.6797"/><text fill="#000000" font-family="sans-serif" font-size="13" lengthAdjust="spacing" textLength="62" x="1155.5" y="634.8232">read_text()</text><polygon fill="#181818" points="1908,666.0313,1918,670.0313,1908,674.0313,1912,670.0313" style="stroke:#181818;stroke-width:1.0;"/><line style="stroke:#181818;stroke-width:1.0;stroke-dasharray:2.0,2.0;" x1="1138.5" x2="1914" y1="670.0313" y2="670.0313"/><text fill="#000000" font-family="sans-serif" font-size="13" lengthAdjust="spacing" textLength="75" x="1145.5" y="665.1748">XML als Text</text><polygon fill="#181818" points="1790,696.3828,1780,700.3828,1790,704.3828,1786,700.3828" style="stroke:#181818;stroke-width:1.0;"/><line style="stroke:#181818;stroke-width:1.0;stroke-dasharray:2.0,2.0;" x1="1784" x2="1919" y1="700.3828" y2="700.3828"/><text fill="#000000" font-family="sans-serif" font-size="13" lengthAdjust="spacing" textLength="50" x="1796" y="695.5264">xml_text</text><polygon fill="#181818" points="2034.5,726.7344,2044.5,730.7344,2034.5,734.7344,2038.5,730.7344" style="stroke:#181818;stroke-width:1.0;"/><line style="stroke:#181818;stroke-width:1.0;" x1="1779" x2="2040.5" y1="730.7344" y2="730.7344"/><text fill="#000000" font-family="sans-serif" font-size="13" lengthAdjust="spacing" textLength="183" x="1786" y="725.8779">chunk_text(xml_text, xml_path)</text><polygon fill="#181818" points="1790,757.0859,1780,761.0859,1790,765.0859,1786,761.0859" style="stroke:#181818;stroke-width:1.0;"/><line style="stroke:#181818;stroke-width:1.0;stroke-dasharray:2.0,2.0;" x1="1784" x2="2045.5" y1="761.0859" y2="761.0859"/><text fill="#000000" font-family="sans-serif" font-size="13" lengthAdjust="spacing" textLength="97" x="1796" y="756.2295">List&lt;RagChunk&gt;</text><polygon fill="#181818" points="2147,787.4375,2157,791.4375,2147,795.4375,2151,791.4375" style="stroke:#181818;stroke-width:1.0;"/><line style="stroke:#181818;stroke-width:1.0;" x1="1779" x2="2153" y1="791.4375" y2="791.4375"/><text fill="#000000" font-family="sans-serif" font-size="13" lengthAdjust="spacing" textLength="153" x="1786" y="786.5811">build lexical index(chunks)</text><polygon fill="#181818" points="1790,817.7891,1780,821.7891,1790,825.7891,1786,821.7891" style="stroke:#181818;stroke-width:1.0;"/><line style="stroke:#181818;stroke-width:1.0;stroke-dasharray:2.0,2.0;" x1="1784" x2="2158" y1="821.7891" y2="821.7891"/><text fill="#000000" font-family="sans-serif" font-size="13" lengthAdjust="spacing" textLength="67" x="1796" y="816.9326">index ready</text><polygon fill="#181818" points="2280.5,848.1406,2290.5,852.1406,2280.5,856.1406,2284.5,852.1406" style="stroke:#181818;stroke-width:1.0;"/><line style="stroke:#181818;stroke-width:1.0;" x1="1398" x2="2286.5" y1="852.1406" y2="852.1406"/><text fill="#000000" font-family="sans-serif" font-size="13" lengthAdjust="spacing" textLength="176" x="1405" y="847.2842">SimpleRagSession(agent, ctx)</text><polygon fill="#181818" points="1409,878.4922,1399,882.4922,1409,886.4922,1405,882.4922" style="stroke:#181818;stroke-width:1.0;"/><line style="stroke:#181818;stroke-width:1.0;stroke-dasharray:2.0,2.0;" x1="1403" x2="2291.5" y1="882.4922" y2="882.4922"/><text fill="#000000" font-family="sans-serif" font-size="13" lengthAdjust="spacing" textLength="45" x="1415" y="877.6357">session</text><polygon fill="#181818" points="483,908.8438,473,912.8438,483,916.8438,479,912.8438" style="stroke:#181818;stroke-width:1.0;"/><line style="stroke:#181818;stroke-width:1.0;stroke-dasharray:2.0,2.0;" x1="477" x2="1397" y1="912.8438" y2="912.8438"/><text fill="#000000" font-family="sans-serif" font-size="13" lengthAdjust="spacing" textLength="110" x="489" y="907.9873">SimpleRagSession</text><polygon fill="#181818" points="2280.5,939.1953,2290.5,943.1953,2280.5,947.1953,2284.5,943.1953" style="stroke:#181818;stroke-width:1.0;"/><line style="stroke:#181818;stroke-width:1.0;" x1="472" x2="2286.5" y1="943.1953" y2="943.1953"/><text fill="#000000" font-family="sans-serif" font-size="13" lengthAdjust="spacing" textLength="104" x="479" y="938.3389">debug_summary()</text><polygon fill="#181818" points="483,969.5469,473,973.5469,483,977.5469,479,973.5469" style="stroke:#181818;stroke-width:1.0;"/><line style="stroke:#181818;stroke-width:1.0;stroke-dasharray:2.0,2.0;" x1="477" x2="2291.5" y1="973.5469" y2="973.5469"/><text fill="#000000" font-family="sans-serif" font-size="13" lengthAdjust="spacing" textLength="240" x="489" y="968.6904">chunk_count + sample_chunks + context</text><polygon fill="#181818" points="2280.5,999.8984,2290.5,1003.8984,2280.5,1007.8984,2284.5,1003.8984" style="stroke:#181818;stroke-width:1.0;"/><line style="stroke:#181818;stroke-width:1.0;" x1="472" x2="2286.5" y1="1003.8984" y2="1003.8984"/><text fill="#000000" font-family="sans-serif" font-size="13" lengthAdjust="spacing" textLength="183" x="479" y="999.042">run_initial_analysis(debug=true)</text><line style="stroke:#181818;stroke-width:1.0;" x1="2292.5" x2="2334.5" y1="1034.25" y2="1034.25"/><line style="stroke:#181818;stroke-width:1.0;" x1="2334.5" x2="2334.5" y1="1034.25" y2="1047.25"/><line style="stroke:#181818;stroke-width:1.0;" x1="2293.5" x2="2334.5" y1="1047.25" y2="1047.25"/><polygon fill="#181818" points="2303.5,1043.25,2293.5,1047.25,2303.5,1051.25,2299.5,1047.25" style="stroke:#181818;stroke-width:1.0;"/><text fill="#000000" font-family="sans-serif" font-size="13" lengthAdjust="spacing" textLength="127" x="2299.5" y="1029.3936">build_default_prompt()</text><polygon fill="#181818" points="1652,1073.6016,1642,1077.6016,1652,1081.6016,1648,1077.6016" style="stroke:#181818;stroke-width:1.0;"/><line style="stroke:#181818;stroke-width:1.0;" x1="1646" x2="2291.5" y1="1077.6016" y2="1077.6016"/><text fill="#000000" font-family="sans-serif" font-size="13" lengthAdjust="spacing" textLength="145" x="1658" y="1072.7451">compact_event_context()</text><polygon fill="#181818" points="2280.5,1103.9531,2290.5,1107.9531,2280.5,1111.9531,2284.5,1107.9531" style="stroke:#181818;stroke-width:1.0;"/><line style="stroke:#181818;stroke-width:1.0;stroke-dasharray:2.0,2.0;" x1="1641" x2="2286.5" y1="1107.9531" y2="1107.9531"/><text fill="#000000" font-family="sans-serif" font-size="13" lengthAdjust="spacing" textLength="88" x="1648" y="1103.0967">compact JSON</text><polygon fill="#181818" points="1652,1134.3047,1642,1138.3047,1652,1142.3047,1648,1138.3047" style="stroke:#181818;stroke-width:1.0;"/><line style="stroke:#181818;stroke-width:1.0;" x1="1646" x2="2291.5" y1="1138.3047" y2="1138.3047"/><text fill="#000000" font-family="sans-serif" font-size="13" lengthAdjust="spacing" textLength="133" x="1658" y="1133.4482">runtime_context_note()</text><polygon fill="#181818" points="2280.5,1164.6563,2290.5,1168.6563,2280.5,1172.6563,2284.5,1168.6563" style="stroke:#181818;stroke-width:1.0;"/><line style="stroke:#181818;stroke-width:1.0;stroke-dasharray:2.0,2.0;" x1="1641" x2="2286.5" y1="1168.6563" y2="1168.6563"/><text fill="#000000" font-family="sans-serif" font-size="13" lengthAdjust="spacing" textLength="101" x="1648" y="1163.7998">Kontext-Hinweise</text><polygon fill="#181818" points="1652,1195.0078,1642,1199.0078,1652,1203.0078,1648,1199.0078" style="stroke:#181818;stroke-width:1.0;"/><line style="stroke:#181818;stroke-width:1.0;" x1="1646" x2="2291.5" y1="1199.0078" y2="1199.0078"/><text fill="#000000" font-family="sans-serif" font-size="13" lengthAdjust="spacing" textLength="102" x="1658" y="1194.1514">default_question()</text><polygon fill="#181818" points="2280.5,1225.3594,2290.5,1229.3594,2280.5,1233.3594,2284.5,1229.3594" style="stroke:#181818;stroke-width:1.0;"/><line style="stroke:#181818;stroke-width:1.0;stroke-dasharray:2.0,2.0;" x1="1641" x2="2286.5" y1="1229.3594" y2="1229.3594"/><text fill="#000000" font-family="sans-serif" font-size="13" lengthAdjust="spacing" textLength="181" x="1648" y="1224.5029">automatisch erzeugte Erstfrage</text><path d="M2297,1242.3594 L2297,1301.3594 L2591,1301.3594 L2591,1252.3594 L2581,1242.3594 L2297,1242.3594 " fill="#FEFFDD" style="stroke:#181818;stroke-width:0.5;"/><path d="M2581,1242.3594 L2581,1252.3594 L2591,1252.3594 L2581,1242.3594 " fill="#FEFFDD" style="stroke:#181818;stroke-width:0.5;"/><text fill="#000000" font-family="sans-serif" font-size="13" lengthAdjust="spacing" textLength="271" x="2303" y="1260.8545">Die erste Frage wird nicht manuell eingegeben.</text><text fill="#000000" font-family="sans-serif" font-size="13" lengthAdjust="spacing" textLength="273" x="2303" y="1277.2061">Sie wird aus Event, Snapshot und XML-Kontext</text><text fill="#000000" font-family="sans-serif" font-size="13" lengthAdjust="spacing" textLength="229" x="2303" y="1293.5576">automatisch als Diagnosefrage erzeugt.</text><polygon fill="#181818" points="1790,1324.7656,1780,1328.7656,1790,1332.7656,1786,1328.7656" style="stroke:#181818;stroke-width:1.0;"/><line style="stroke:#181818;stroke-width:1.0;" x1="1784" x2="2291.5" y1="1328.7656" y2="1328.7656"/><text fill="#000000" font-family="sans-serif" font-size="13" lengthAdjust="spacing" textLength="191" x="1796" y="1323.9092">ask(question, ctx, extra_context)</text><polygon fill="#181818" points="2147,1355.1172,2157,1359.1172,2147,1363.1172,2151,1359.1172" style="stroke:#181818;stroke-width:1.0;"/><line style="stroke:#181818;stroke-width:1.0;" x1="1779" x2="2153" y1="1359.1172" y2="1359.1172"/><text fill="#000000" font-family="sans-serif" font-size="13" lengthAdjust="spacing" textLength="136" x="1786" y="1354.2607">search(question, top_k)</text><polygon fill="#181818" points="1790,1385.4688,1780,1389.4688,1790,1393.4688,1786,1389.4688" style="stroke:#181818;stroke-width:1.0;"/><line style="stroke:#181818;stroke-width:1.0;stroke-dasharray:2.0,2.0;" x1="1784" x2="2158" y1="1389.4688" y2="1389.4688"/><text fill="#000000" font-family="sans-serif" font-size="13" lengthAdjust="spacing" textLength="85" x="1796" y="1384.6123">ranked chunks</text><path d="M1709.5,1404.4688 L1770.5,1404.4688 L1770.5,1412.8203 L1760.5,1422.8203 L1709.5,1422.8203 L1709.5,1404.4688 " fill="#EEEEEE" style="stroke:#000000;stroke-width:1.5;"/><rect fill="none" height="125.2422" style="stroke:#000000;stroke-width:1.5;" width="784" x="1709.5" y="1404.4688"/><text fill="#000000" font-family="sans-serif" font-size="13" font-weight="bold" lengthAdjust="spacing" textLength="16" x="1724.5" y="1418.9639">alt</text><text fill="#000000" font-family="sans-serif" font-size="11" font-weight="bold" lengthAdjust="spacing" textLength="165" x="1785.5" y="1417.8877">[passende Chunks gefunden]</text><polygon fill="#181818" points="2421.5,1441.1719,2431.5,1445.1719,2421.5,1449.1719,2425.5,1445.1719" style="stroke:#181818;stroke-width:1.0;"/><line style="stroke:#181818;stroke-width:1.0;" x1="1779" x2="2427.5" y1="1445.1719" y2="1445.1719"/><text fill="#000000" font-family="sans-serif" font-size="13" lengthAdjust="spacing" textLength="447" x="1786" y="1440.3154">system prompt + event context +\nretrieved PLCOpenXML chunks + question</text><polygon fill="#181818" points="1790,1471.5234,1780,1475.5234,1790,1479.5234,1786,1475.5234" style="stroke:#181818;stroke-width:1.0;"/><line style="stroke:#181818;stroke-width:1.0;stroke-dasharray:2.0,2.0;" x1="1784" x2="2432.5" y1="1475.5234" y2="1475.5234"/><text fill="#000000" font-family="sans-serif" font-size="13" lengthAdjust="spacing" textLength="129" x="1796" y="1470.667">erste Diagnoseantwort</text><line style="stroke:#000000;stroke-width:1.0;stroke-dasharray:2.0,2.0;" x1="1709.5" x2="2493.5" y1="1484.5234" y2="1484.5234"/><text fill="#000000" font-family="sans-serif" font-size="11" font-weight="bold" lengthAdjust="spacing" textLength="150" x="1714.5" y="1495.9424">[keine passenden Chunks]</text><polygon fill="#181818" points="2280.5,1517.7109,2290.5,1521.7109,2280.5,1525.7109,2284.5,1521.7109" style="stroke:#181818;stroke-width:1.0;"/><line style="stroke:#181818;stroke-width:1.0;stroke-dasharray:2.0,2.0;" x1="1779" x2="2286.5" y1="1521.7109" y2="1521.7109"/><text fill="#000000" font-family="sans-serif" font-size="13" lengthAdjust="spacing" textLength="251" x="1786" y="1516.8545">"keine passenden Kontextstellen gefunden"</text><polygon fill="#181818" points="2280.5,1555.0625,2290.5,1559.0625,2280.5,1563.0625,2284.5,1559.0625" style="stroke:#181818;stroke-width:1.0;"/><line style="stroke:#181818;stroke-width:1.0;stroke-dasharray:2.0,2.0;" x1="1779" x2="2286.5" y1="1559.0625" y2="1559.0625"/><text fill="#000000" font-family="sans-serif" font-size="13" lengthAdjust="spacing" textLength="205" x="1786" y="1554.2061">answer + retrieved_chunks + debug</text><line style="stroke:#181818;stroke-width:1.0;" x1="2292.5" x2="2334.5" y1="1589.4141" y2="1589.4141"/><line style="stroke:#181818;stroke-width:1.0;" x1="2334.5" x2="2334.5" y1="1589.4141" y2="1602.4141"/><line style="stroke:#181818;stroke-width:1.0;" x1="2293.5" x2="2334.5" y1="1602.4141" y2="1602.4141"/><polygon fill="#181818" points="2303.5,1598.4141,2293.5,1602.4141,2303.5,1606.4141,2299.5,1602.4141" style="stroke:#181818;stroke-width:1.0;"/><text fill="#000000" font-family="sans-serif" font-size="13" lengthAdjust="spacing" textLength="105" x="2299.5" y="1584.5576">history.append(...)</text><polygon fill="#181818" points="483,1628.7656,473,1632.7656,483,1636.7656,479,1632.7656" style="stroke:#181818;stroke-width:1.0;"/><line style="stroke:#181818;stroke-width:1.0;stroke-dasharray:2.0,2.0;" x1="477" x2="2291.5" y1="1632.7656" y2="1632.7656"/><text fill="#000000" font-family="sans-serif" font-size="13" lengthAdjust="spacing" textLength="66" x="489" y="1627.9092">initial result</text><line style="stroke:#181818;stroke-width:1.0;" x1="472" x2="514" y1="1663.1172" y2="1663.1172"/><line style="stroke:#181818;stroke-width:1.0;" x1="514" x2="514" y1="1663.1172" y2="1676.1172"/><line style="stroke:#181818;stroke-width:1.0;" x1="473" x2="514" y1="1676.1172" y2="1676.1172"/><polygon fill="#181818" points="483,1672.1172,473,1676.1172,483,1680.1172,479,1676.1172" style="stroke:#181818;stroke-width:1.0;"/><text fill="#000000" font-family="sans-serif" font-size="13" lengthAdjust="spacing" textLength="394" x="479" y="1658.2607">speichere rag_session + last_rag_debug\nin streamlit session_state</text><polygon fill="#181818" points="68,1702.4688,58,1706.4688,68,1710.4688,64,1706.4688" style="stroke:#181818;stroke-width:1.0;"/><line style="stroke:#181818;stroke-width:1.0;stroke-dasharray:2.0,2.0;" x1="62" x2="471" y1="1706.4688" y2="1706.4688"/><text fill="#000000" font-family="sans-serif" font-size="13" lengthAdjust="spacing" textLength="391" x="74" y="1701.6123">zeige auto-generierte Erstfrage\nund erste Diagnoseantwort im Chat</text><path d="M1784,1719.4688 L1784,1810.4688 L1960,1810.4688 L1960,1729.4688 L1950,1719.4688 L1784,1719.4688 " fill="#FEFFDD" style="stroke:#181818;stroke-width:0.5;"/><path d="M1950,1719.4688 L1950,1729.4688 L1960,1729.4688 L1950,1719.4688 " fill="#FEFFDD" style="stroke:#181818;stroke-width:0.5;"/><text fill="#000000" font-family="sans-serif" font-size="13" lengthAdjust="spacing" textLength="118" x="1790" y="1737.9639">Minimaler Initialpfad:</text><text fill="#000000" font-family="sans-serif" font-size="13" lengthAdjust="spacing" textLength="75" x="1790" y="1754.3154">1. XML laden</text><text fill="#000000" font-family="sans-serif" font-size="13" lengthAdjust="spacing" textLength="155" x="1790" y="1770.667">2. XML in Chunks zerlegen</text><text fill="#000000" font-family="sans-serif" font-size="13" lengthAdjust="spacing" textLength="143" x="1790" y="1787.0186">3. lexikalisches Retrieval</text><text fill="#000000" font-family="sans-serif" font-size="13" lengthAdjust="spacing" textLength="137" x="1790" y="1803.3701">4. genau ein LLM-Aufruf</text><!--SRC=[VLVRRjiu47tNLmpyP2En5tjv2hO5icbscpPfYtelVIWWCDBO9anHMf9Ax7pz7fAYBd6oRp9vUER2CpEqtKlT22CgiZjHrezIRsaZbENCIQUOhW_5- -NNop_eSilQqPh_RLaNJ4kwqT99eUYT55jTMscpJ1IkDZJxoxAX7-XpmqPWOKR2ab_BOCZ9GZO2J3CZjhdmf7ahLytn-tTj7VPpeOKwWcxE3zXSnDCtqxCtUilMoLf_aGqhgJcWqe-ig9NYmkzRcbrx6lgm_lmfWCBF3xRMMIcSk1UMQSQ7fZPkTQWKtFvoUmNFzRUxsuWFUzygDVNWgzYksLgO-AsLgcG3_-_zLsxZShunTPKZkQsRhrQh64U7FQ6wqOKiuTTLhHqVNC1UkSCKjvPLenZeS1K14xwcgEH-fTPrQugOcVxN58lbgrshznplgFj-nUgDBlaGSE7h5LINb83hlgV8szkxg0rzUHDGMCYo89dbMrmqNT179OizYNP3itzOEdY7vCxNNXs4x14RwrWduV4YmocSxMyM5BfrJqptR73UqfQLG7gvktq8LRbUBVG0pLu6qJ69lPCFaetBY29h3xiWq-gywNxEYyrsbNwSKzGg3lLmxr2I3iwoUU9swn0wJBH2IUkjqA0yd1tmowbXVuGXwP4s9wPIukezdH6uyaQuNH_1E2-DEAfQbAj65JM8yWIcYpV3GKRv3-mbdoRbDDLmQVbb8qfSMvTbX0evR-GM7zUV_ivObrbtKrqPuF2h9HCIUjxxT0u5f6pdHQ2DwrJL9QjpSbo5TjCQt8Qhcto_o9APYSNSiAtL0_UXX-eSOr5umBtkooBpYEM4zRI6nuonTy8s2ANBytaVrl-v7q_XU5-zeF2tbtl- -U3EiFzCT8OJU95DnJMcnDKHEZxzwRqUSOqSzxP2KBrFNQ_0Nk6_1fVynoHN7N1CTokj-nKf2tjl1zBGM98gIF515XWmqg_EWncxo29cp1RsGwp7STAxxWF0y-Oq3sFdd0ftM6G9DhtFJf43Nognvrn9qeErak_RRMxRgXBcE9yQ21GnOKNTmlipii8JvZ4y_2uw-Ppm-kuZuymTPcGmziQPbaU6ngTYWPMy4QroUGDHDsu-mKQv5zZ0-Cw3rlFEYVaWzO6nGuQ9Uie3BvsiE37akdRy8it725Y-b_gH9TuR9rJ9QRmumgn_aKQqhgw4axROfHwBHmi6n0Rl2yuoRv-CtEuSrPj-8hsJ7AS8_UvXz2XDILeMG5L2-rvBZ9SGR_cUzIfRomxIDxTpMclHs5tjgDLbw7vTGDdO8rzMQKm5XvAFAzyEoJkNZGDFaXPsFqzX1vrYmXoS4IcjYzEQiInCiHkTwhh8QRqOWO8iemnjd8MDi1OESInhFp0t28ir6dvlo0zkc3aYQnL58K6kGIz9j7I6DctO6OdbSZIjg9TtyW_Cdd3iLxoGb2uy5XxHiE8mshEVHCbBtRavU3UHnEmvkhiPi6E6wZwuMHn9Br48RHzHzMVK1pCKQ2YvbujjXxvMc-DAD0YxZ8FbfFox6WQrXRfJdOSjsp0qY4SB-STnruDWKWdhShyKR2F7KfDrw7YLaYxrgXpFPyZ9qta-6_hO4qk8pajoYJ3P-2a-gWzGUVc-c7cI5V8itFCQYc_EEuHH2GKZtV-01iF_8ljn5SP9U6vbFyKVCjqNl34ADQMpdrUXk-_zEmW1M_eQyonKziiA5wH5wmlGIsHvsMvCkndgvJy0]--></g></svg>