<?xml version="1.0" encoding="us-ascii" standalone="no"?><svg xmlns="http://www.w3.org/2000/svg" xmlns:xlink="http://www.w3.org/1999/xlink" contentStyleType="text/css" height="445px" preserveAspectRatio="none" style="width:593px;height:445px;background:#FFFFFF;" version="1.1" viewBox="0 0 593 445" width="593px" zoomAndPan="magnify"><defs/><g><!--cluster Exception-Handling-Agent--><g id="cluster_Exception-Handling-Agent"><rect fill="none" height="221" rx="2.5" ry="2.5" style="stroke:#181818;stroke-width:1.0;" width="300" x="149" y="148.5"/><text fill="#000000" font-family="sans-serif" font-size="14" font-weight="bold" lengthAdjust="spacing" textLength="183" x="207.5" y="165.0332">Exception-Handling-Agent</text></g><g id="elem_UC6"><ellipse cx="299.0423" cy="213.3085" fill="#F1F1F1" rx="132.0423" ry="28.8085" style="stroke:#181818;stroke-width:0.5;"/><text fill="#000000" font-family="sans-serif" font-size="14" lengthAdjust="spacing" textLength="175" x="208.5423" y="209.0204">Betriebserkenntnisse in das</text><text fill="#000000" font-family="sans-serif" font-size="14" lengthAdjust="spacing" textLength="162" x="215.0423" y="226.6297">Engineering zur&#252;ckf&#252;hren</text></g><g id="elem_UC6a"><ellipse cx="299.001" cy="324.7002" fill="#F1F1F1" rx="134.001" ry="29.2002" style="stroke:#181818;stroke-width:0.5;"/><text fill="#000000" font-family="sans-serif" font-size="14" lengthAdjust="spacing" textLength="159" x="219.501" y="319.624">Neue Fehlerkontexte und</text><text fill="#000000" font-family="sans-serif" font-size="14" lengthAdjust="spacing" textLength="182" x="208.001" y="337.2334">Reaktionsmuster aufbereiten</text></g><!--entity OP--><g id="elem_OP"><ellipse cx="54" cy="14" fill="#F1F1F1" rx="8" ry="8" style="stroke:#181818;stroke-width:0.5;"/><path d="M54,22 L54,49 M41,30 L67,30 M54,49 L41,64 M54,49 L67,64 " fill="none" style="stroke:#181818;stroke-width:0.5;"/><text fill="#000000" font-family="sans-serif" font-size="14" lengthAdjust="spacing" textLength="57" x="25.5" y="80.0332">Operator</text></g><!--entity IH--><g id="elem_IH"><ellipse cx="54" cy="127" fill="#F1F1F1" rx="8" ry="8" style="stroke:#181818;stroke-width:0.5;"/><path d="M54,135 L54,162 M41,143 L67,143 M54,162 L41,177 M54,162 L67,177 " fill="none" style="stroke:#181818;stroke-width:0.5;"/><text fill="#000000" font-family="sans-serif" font-size="14" lengthAdjust="spacing" textLength="82" x="13" y="193.0332">Instandhalter</text></g><!--entity FMEA--><g id="elem_FMEA"><ellipse cx="54" cy="240" fill="#F1F1F1" rx="8" ry="8" style="stroke:#181818;stroke-width:0.5;"/><path d="M54,248 L54,275 M41,256 L67,256 M54,275 L41,290 M54,275 L67,290 " fill="none" style="stroke:#181818;stroke-width:0.5;"/><text fill="#000000" font-family="sans-serif" font-size="14" lengthAdjust="spacing" textLength="79" x="14.5" y="306.0332">FMEA-Team</text></g><!--entity OPS--><g id="elem_OPS"><ellipse cx="54" cy="353.5" fill="#F1F1F1" rx="8" ry="8" style="stroke:#181818;stroke-width:0.5;"/><path d="M54,361.5 L54,388.5 M41,369.5 L67,369.5 M54,388.5 L41,403.5 M54,388.5 L67,403.5 " fill="none" style="stroke:#181818;stroke-width:0.5;"/><text fill="#000000" font-family="sans-serif" font-size="14" lengthAdjust="spacing" textLength="96" x="6" y="419.5332">Betriebsdaten /</text><text fill="#000000" font-family="sans-serif" font-size="14" lengthAdjust="spacing" textLength="67" x="6" y="437.1426">Fehlerf&#228;lle</text></g><!--entity KG--><g id="elem_KG"><ellipse cx="541" cy="183" fill="#F1F1F1" rx="8" ry="8" style="stroke:#181818;stroke-width:0.5;"/><path d="M541,191 L541,218 M528,199 L554,199 M541,218 L528,233 M541,218 L554,233 " fill="none" style="stroke:#181818;stroke-width:0.5;"/><text fill="#000000" font-family="sans-serif" font-size="14" lengthAdjust="spacing" textLength="90" x="496" y="249.0332">Wissensgraph</text></g><!--link OP to UC6--><g id="link_OP_UC6"><path d="M82.88,63.89 C125.88,93.8 203.6842,147.9042 253.0742,182.2542 " fill="none" id="OP-to-UC6" style="stroke:#181818;stroke-width:1.0;"/><polygon fill="#181818" points="258,185.68,252.8952,177.2574,253.8952,182.8251,248.3274,183.8251,258,185.68" style="stroke:#181818;stroke-width:1.0;"/></g><!--link IH to UC6--><g id="link_IH_UC6"><path d="M95.13,166.75 C125.59,173.77 162.8434,182.3518 201.4834,191.2618 " fill="none" id="IH-to-UC6" style="stroke:#181818;stroke-width:1.0;"/><polygon fill="#181818" points="207.33,192.61,199.4589,186.69,202.4579,191.4865,197.6614,194.4855,207.33,192.61" style="stroke:#181818;stroke-width:1.0;"/></g><!--link FMEA to UC6--><g id="link_FMEA_UC6"><path d="M93.5,261.47 C124.22,254.26 162.6384,245.2495 202.1384,235.9895 " fill="none" id="FMEA-to-UC6" style="stroke:#181818;stroke-width:1.0;"/><polygon fill="#181818" points="207.98,234.62,198.3046,232.7798,203.112,235.7612,200.1305,240.5686,207.98,234.62" style="stroke:#181818;stroke-width:1.0;"/></g><!--link OPS to UC6a--><g id="link_OPS_UC6a"><path d="M102.14,379.31 C134.44,370.27 172.3423,359.6681 210.2623,349.0481 " fill="none" id="OPS-to-UC6a" style="stroke:#181818;stroke-width:1.0;"/><polygon fill="#181818" points="216.04,347.43,206.2947,346.0054,211.2253,348.7784,208.4522,353.709,216.04,347.43" style="stroke:#181818;stroke-width:1.0;"/></g><!--link UC6 to KG--><g id="link_UC6_KG"><path d="M431.24,213.5 C454.54,213.5 471.28,213.5 489.89,213.5 " fill="none" id="UC6-to-KG" style="stroke:#181818;stroke-width:1.0;"/><polygon fill="#181818" points="495.89,213.5,486.89,209.5,490.89,213.5,486.89,217.5,495.89,213.5" style="stroke:#181818;stroke-width:1.0;"/></g><!--link UC6 to UC6a--><g id="link_UC6_UC6a"><path d="M299,242.85 C299,259.07 299,273.15 299,289.34 " fill="none" id="UC6-to-UC6a" style="stroke:#181818;stroke-width:1.0;stroke-dasharray:7.0,7.0;"/><polygon fill="#181818" points="299,295.34,303,286.34,299,290.34,295,286.34,299,295.34" style="stroke:#181818;stroke-width:1.0;"/><text fill="#000000" font-family="sans-serif" font-size="13" lengthAdjust="spacing" textLength="55" x="259.5" y="274.4951">&#171;include&#187;</text></g><!--SRC=[JL11JiD03BplAwpS0pSEgAfKK4ih1AqeY4ilRZ99LjawqUv6512_uHczzMDaKvBsOeqzripO1fadNv7LUU4frHQ9rvKeLsgfsVAEQavAph7sdmOKQ9RSu6B15PnM7rfoojWuACM9hon5ongMMnGHErgk-l52N2kH5cmyJjnYtdEpf-aaVWNlkddeUkOEtcfiNSeUGjSRcQ4miDdnrnZyEwpxvNVj7CJbbkkYunuVb1gYKpJT9wZ3cV6yJMBQwF4aX_Y8lXLHuv2mmzaJjeI8bw1AMYXbjv6fv5e06-x-Qkpna9JPyL1OIEVuTdzpAVMC1dIAN5RYiVUWHjADl83BaCJj6jV-WxZ9jh3G_gp3waUfvOhYUDp9BkO331yQclO1FMRLbgu9bmTyTPhJBOr6MXBJf1YF_m00]--></g></svg>