<?xml version="1.0" encoding="us-ascii" standalone="no"?><svg xmlns="http://www.w3.org/2000/svg" xmlns:xlink="http://www.w3.org/1999/xlink" contentStyleType="text/css" height="698px" preserveAspectRatio="none" style="width:637px;height:698px;background:#FFFFFF;" version="1.1" viewBox="0 0 637 698" width="637px" zoomAndPan="magnify"><defs/><g><text fill="#000000" font-family="sans-serif" font-size="14" font-weight="bold" lengthAdjust="spacing" textLength="344" x="148" y="29.5332">UC_R2: Fehler auf der Ressource behandeln und</text><text fill="#000000" font-family="sans-serif" font-size="14" font-weight="bold" lengthAdjust="spacing" textLength="312" x="164" y="47.1426">die Ressource f&#252;r weitere Prozesse sperren</text><line style="stroke:#181818;stroke-width:0.5;stroke-dasharray:5.0,5.0;" x1="80" x2="80" y1="156.4375" y2="599.1172"/><line style="stroke:#181818;stroke-width:0.5;stroke-dasharray:5.0,5.0;" x1="241" x2="241" y1="156.4375" y2="599.1172"/><line style="stroke:#181818;stroke-width:0.5;stroke-dasharray:5.0,5.0;" x1="374" x2="374" y1="156.4375" y2="599.1172"/><line style="stroke:#181818;stroke-width:0.5;stroke-dasharray:5.0,5.0;" x1="496" x2="496" y1="156.4375" y2="599.1172"/><line style="stroke:#181818;stroke-width:0.5;stroke-dasharray:5.0,5.0;" x1="603" x2="603" y1="156.4375" y2="599.1172"/><rect fill="#E2E2F0" height="49.2188" rx="2.5" ry="2.5" style="stroke:#181818;stroke-width:0.5;" width="131" x="15" y="106.2188"/><text fill="#000000" font-family="sans-serif" font-size="14" lengthAdjust="spacing" textLength="117" x="22" y="127.752">Steuerungssystem</text><text fill="#000000" font-family="sans-serif" font-size="14" lengthAdjust="spacing" textLength="28" x="66.5" y="145.3613">SM1</text><rect fill="#E2E2F0" height="49.2188" rx="2.5" ry="2.5" style="stroke:#181818;stroke-width:0.5;" width="131" x="15" y="598.1172"/><text fill="#000000" font-family="sans-serif" font-size="14" lengthAdjust="spacing" textLength="117" x="22" y="619.6504">Steuerungssystem</text><text fill="#000000" font-family="sans-serif" font-size="14" lengthAdjust="spacing" textLength="28" x="66.5" y="637.2598">SM1</text><rect fill="#E2E2F0" height="49.2188" rx="2.5" ry="2.5" style="stroke:#181818;stroke-width:0.5;" width="130" x="176" y="106.2188"/><text fill="#000000" font-family="sans-serif" font-size="14" lengthAdjust="spacing" textLength="36" x="223" y="127.752">ExcH-</text><text fill="#000000" font-family="sans-serif" font-size="14" lengthAdjust="spacing" textLength="116" x="183" y="145.3613">Laufzeitumgebung</text><rect fill="#E2E2F0" height="49.2188" rx="2.5" ry="2.5" style="stroke:#181818;stroke-width:0.5;" width="130" x="176" y="598.1172"/><text fill="#000000" font-family="sans-serif" font-size="14" lengthAdjust="spacing" textLength="36" x="223" y="619.6504">ExcH-</text><text fill="#000000" font-family="sans-serif" font-size="14" lengthAdjust="spacing" textLength="116" x="183" y="637.2598">Laufzeitumgebung</text><text fill="#000000" font-family="sans-serif" font-size="14" lengthAdjust="spacing" textLength="43" x="349.5" y="135.752">FMEA-</text><text fill="#000000" font-family="sans-serif" font-size="14" lengthAdjust="spacing" textLength="90" x="326" y="153.3613">Wissensgraph</text><path d="M356,85.2188 C356,75.2188 374,75.2188 374,75.2188 C374,75.2188 392,75.2188 392,85.2188 L392,111.2188 C392,121.2188 374,121.2188 374,121.2188 C374,121.2188 356,121.2188 356,111.2188 L356,85.2188 " fill="#E2E2F0" style="stroke:#181818;stroke-width:1.5;"/><path d="M356,85.2188 C356,95.2188 374,95.2188 374,95.2188 C374,95.2188 392,95.2188 392,85.2188 " fill="none" style="stroke:#181818;stroke-width:1.5;"/><text fill="#000000" font-family="sans-serif" font-size="14" lengthAdjust="spacing" textLength="43" x="349.5" y="612.6504">FMEA-</text><text fill="#000000" font-family="sans-serif" font-size="14" lengthAdjust="spacing" textLength="90" x="326" y="630.2598">Wissensgraph</text><path d="M356,643.3359 C356,633.3359 374,633.3359 374,633.3359 C374,633.3359 392,633.3359 392,643.3359 L392,669.3359 C392,679.3359 374,679.3359 374,679.3359 C374,679.3359 356,679.3359 356,669.3359 L356,643.3359 " fill="#E2E2F0" style="stroke:#181818;stroke-width:1.5;"/><path d="M356,643.3359 C356,653.3359 374,653.3359 374,653.3359 C374,653.3359 392,653.3359 392,643.3359 " fill="none" style="stroke:#181818;stroke-width:1.5;"/><rect fill="#E2E2F0" height="66.8281" rx="2.5" ry="2.5" style="stroke:#181818;stroke-width:0.5;" width="109" x="442" y="88.6094"/><text fill="#000000" font-family="sans-serif" font-size="14" lengthAdjust="spacing" textLength="95" x="449" y="110.1426">Unterst&#252;tzende</text><text fill="#000000" font-family="sans-serif" font-size="14" lengthAdjust="spacing" textLength="68" x="462.5" y="127.752">Ressource</text><text fill="#000000" font-family="sans-serif" font-size="14" lengthAdjust="spacing" textLength="39" x="477" y="145.3613">(VSG)</text><rect fill="#E2E2F0" height="66.8281" rx="2.5" ry="2.5" style="stroke:#181818;stroke-width:0.5;" width="109" x="442" y="598.1172"/><text fill="#000000" font-family="sans-serif" font-size="14" lengthAdjust="spacing" textLength="95" x="449" y="619.6504">Unterst&#252;tzende</text><text fill="#000000" font-family="sans-serif" font-size="14" lengthAdjust="spacing" textLength="68" x="462.5" y="637.2598">Ressource</text><text fill="#000000" font-family="sans-serif" font-size="14" lengthAdjust="spacing" textLength="39" x="477" y="654.8691">(VSG)</text><text fill="#000000" font-family="sans-serif" font-size="14" lengthAdjust="spacing" textLength="59" x="571" y="135.752">Nutzende</text><text fill="#000000" font-family="sans-serif" font-size="14" lengthAdjust="spacing" textLength="44" x="578.5" y="153.3613">Instanz</text><ellipse cx="603.5" cy="69.7188" fill="#E2E2F0" rx="8" ry="8" style="stroke:#181818;stroke-width:0.5;"/><path d="M603.5,77.7188 L603.5,104.7188 M590.5,85.7188 L616.5,85.7188 M603.5,104.7188 L590.5,119.7188 M603.5,104.7188 L616.5,119.7188 " fill="none" style="stroke:#181818;stroke-width:0.5;"/><text fill="#000000" font-family="sans-serif" font-size="14" lengthAdjust="spacing" textLength="59" x="571" y="612.6504">Nutzende</text><text fill="#000000" font-family="sans-serif" font-size="14" lengthAdjust="spacing" textLength="44" x="578.5" y="630.2598">Instanz</text><ellipse cx="603.5" cy="641.8359" fill="#E2E2F0" rx="8" ry="8" style="stroke:#181818;stroke-width:0.5;"/><path d="M603.5,649.8359 L603.5,676.8359 M590.5,657.8359 L616.5,657.8359 M603.5,676.8359 L590.5,691.8359 M603.5,676.8359 L616.5,691.8359 " fill="none" style="stroke:#181818;stroke-width:0.5;"/><polygon fill="#181818" points="229,201.1406,239,205.1406,229,209.1406,233,205.1406" style="stroke:#181818;stroke-width:1.0;"/><line style="stroke:#181818;stroke-width:1.0;" x1="80.5" x2="235" y1="205.1406" y2="205.1406"/><text fill="#000000" font-family="sans-serif" font-size="13" lengthAdjust="spacing" textLength="36" x="87.5" y="183.9326">Fehler</text><text fill="#000000" font-family="sans-serif" font-size="13" lengthAdjust="spacing" textLength="4" x="123.5" y="183.9326">&#160;</text><text fill="#000000" font-family="sans-serif" font-size="13" lengthAdjust="spacing" textLength="43" x="127.5" y="183.9326">erkannt</text><text fill="#000000" font-family="sans-serif" font-size="13" lengthAdjust="spacing" textLength="4" x="170.5" y="183.9326">&#160;</text><text fill="#000000" font-family="sans-serif" font-size="13" lengthAdjust="spacing" textLength="21" x="174.5" y="183.9326">und</text><text fill="#000000" font-family="sans-serif" font-size="13" lengthAdjust="spacing" textLength="68" x="87.5" y="200.2842">Fehlerdaten</text><text fill="#000000" font-family="sans-serif" font-size="13" lengthAdjust="spacing" textLength="4" x="155.5" y="200.2842">&#160;</text><text fill="#000000" font-family="sans-serif" font-size="13" lengthAdjust="spacing" textLength="42" x="159.5" y="200.2842">senden</text><polygon fill="#181818" points="362,264.1953,372,268.1953,362,272.1953,366,268.1953" style="stroke:#181818;stroke-width:1.0;"/><line style="stroke:#181818;stroke-width:1.0;" x1="241" x2="368" y1="268.1953" y2="268.1953"/><text fill="#000000" font-family="sans-serif" font-size="13" lengthAdjust="spacing" textLength="62" x="248" y="230.6357">Bedeutung</text><text fill="#000000" font-family="sans-serif" font-size="13" lengthAdjust="spacing" textLength="4" x="310" y="230.6357">&#160;</text><text fill="#000000" font-family="sans-serif" font-size="13" lengthAdjust="spacing" textLength="21" x="314" y="230.6357">und</text><text fill="#000000" font-family="sans-serif" font-size="13" lengthAdjust="spacing" textLength="68" x="248" y="246.9873">Behandlung</text><text fill="#000000" font-family="sans-serif" font-size="13" lengthAdjust="spacing" textLength="49" x="248" y="263.3389">abfragen</text><polygon fill="#181818" points="252,310.8984,242,314.8984,252,318.8984,248,314.8984" style="stroke:#181818;stroke-width:1.0;"/><line style="stroke:#181818;stroke-width:1.0;stroke-dasharray:2.0,2.0;" x1="246" x2="373" y1="314.8984" y2="314.8984"/><text fill="#000000" font-family="sans-serif" font-size="13" lengthAdjust="spacing" textLength="99" x="258" y="293.6904">Behandlungsplan</text><text fill="#000000" font-family="sans-serif" font-size="13" lengthAdjust="spacing" textLength="18" x="258" y="310.042">mit</text><text fill="#000000" font-family="sans-serif" font-size="13" lengthAdjust="spacing" textLength="4" x="276" y="310.042">&#160;</text><text fill="#000000" font-family="sans-serif" font-size="13" lengthAdjust="spacing" textLength="52" x="280" y="310.042">Sperrung</text><polygon fill="#181818" points="91.5,357.6016,81.5,361.6016,91.5,365.6016,87.5,361.6016" style="stroke:#181818;stroke-width:1.0;"/><line style="stroke:#181818;stroke-width:1.0;" x1="85.5" x2="240" y1="361.6016" y2="361.6016"/><text fill="#000000" font-family="sans-serif" font-size="13" lengthAdjust="spacing" textLength="62" x="97.5" y="340.3936">Ressource</text><text fill="#000000" font-family="sans-serif" font-size="13" lengthAdjust="spacing" textLength="4" x="159.5" y="340.3936">&#160;</text><text fill="#000000" font-family="sans-serif" font-size="13" lengthAdjust="spacing" textLength="49" x="163.5" y="340.3936">anhalten</text><text fill="#000000" font-family="sans-serif" font-size="13" lengthAdjust="spacing" textLength="21" x="97.5" y="356.7451">und</text><text fill="#000000" font-family="sans-serif" font-size="13" lengthAdjust="spacing" textLength="4" x="118.5" y="356.7451">&#160;</text><text fill="#000000" font-family="sans-serif" font-size="13" lengthAdjust="spacing" textLength="36" x="122.5" y="356.7451">Fehler</text><text fill="#000000" font-family="sans-serif" font-size="13" lengthAdjust="spacing" textLength="4" x="158.5" y="356.7451">&#160;</text><text fill="#000000" font-family="sans-serif" font-size="13" lengthAdjust="spacing" textLength="52" x="162.5" y="356.7451">anzeigen</text><polygon fill="#181818" points="484.5,420.6563,494.5,424.6563,484.5,428.6563,488.5,424.6563" style="stroke:#181818;stroke-width:1.0;"/><line style="stroke:#181818;stroke-width:1.0;" x1="241" x2="490.5" y1="424.6563" y2="424.6563"/><text fill="#000000" font-family="sans-serif" font-size="13" lengthAdjust="spacing" textLength="62" x="248" y="387.0967">Entfernung</text><text fill="#000000" font-family="sans-serif" font-size="13" lengthAdjust="spacing" textLength="4" x="310" y="387.0967">&#160;</text><text fill="#000000" font-family="sans-serif" font-size="13" lengthAdjust="spacing" textLength="21" x="314" y="387.0967">des</text><text fill="#000000" font-family="sans-serif" font-size="13" lengthAdjust="spacing" textLength="70" x="248" y="403.4482">Werkst&#252;cks</text><text fill="#000000" font-family="sans-serif" font-size="13" lengthAdjust="spacing" textLength="53" x="248" y="419.7998">anfordern</text><polygon fill="#181818" points="252,451.0078,242,455.0078,252,459.0078,248,455.0078" style="stroke:#181818;stroke-width:1.0;"/><line style="stroke:#181818;stroke-width:1.0;stroke-dasharray:2.0,2.0;" x1="246" x2="495.5" y1="455.0078" y2="455.0078"/><text fill="#000000" font-family="sans-serif" font-size="13" lengthAdjust="spacing" textLength="63" x="258" y="450.1514">Werkst&#252;ck</text><text fill="#000000" font-family="sans-serif" font-size="13" lengthAdjust="spacing" textLength="4" x="321" y="450.1514">&#160;</text><text fill="#000000" font-family="sans-serif" font-size="13" lengthAdjust="spacing" textLength="43" x="325" y="450.1514">entfernt</text><polygon fill="#181818" points="91.5,514.0625,81.5,518.0625,91.5,522.0625,87.5,518.0625" style="stroke:#181818;stroke-width:1.0;"/><line style="stroke:#181818;stroke-width:1.0;" x1="85.5" x2="240" y1="518.0625" y2="518.0625"/><text fill="#000000" font-family="sans-serif" font-size="13" lengthAdjust="spacing" textLength="62" x="97.5" y="480.5029">Ressource</text><text fill="#000000" font-family="sans-serif" font-size="13" lengthAdjust="spacing" textLength="4" x="159.5" y="480.5029">&#160;</text><text fill="#000000" font-family="sans-serif" font-size="13" lengthAdjust="spacing" textLength="14" x="163.5" y="480.5029">f&#252;r</text><text fill="#000000" font-family="sans-serif" font-size="13" lengthAdjust="spacing" textLength="41" x="97.5" y="496.8545">weitere</text><text fill="#000000" font-family="sans-serif" font-size="13" lengthAdjust="spacing" textLength="4" x="138.5" y="496.8545">&#160;</text><text fill="#000000" font-family="sans-serif" font-size="13" lengthAdjust="spacing" textLength="55" x="142.5" y="496.8545">Prozesse</text><text fill="#000000" font-family="sans-serif" font-size="13" lengthAdjust="spacing" textLength="43" x="97.5" y="513.2061">sperren</text><polygon fill="#181818" points="591.5,577.1172,601.5,581.1172,591.5,585.1172,595.5,581.1172" style="stroke:#181818;stroke-width:1.0;"/><line style="stroke:#181818;stroke-width:1.0;stroke-dasharray:2.0,2.0;" x1="241" x2="597.5" y1="581.1172" y2="581.1172"/><text fill="#000000" font-family="sans-serif" font-size="13" lengthAdjust="spacing" textLength="67" x="248" y="543.5576">Sperrstatus</text><text fill="#000000" font-family="sans-serif" font-size="13" lengthAdjust="spacing" textLength="4" x="315" y="543.5576">&#160;</text><text fill="#000000" font-family="sans-serif" font-size="13" lengthAdjust="spacing" textLength="21" x="319" y="543.5576">und</text><text fill="#000000" font-family="sans-serif" font-size="13" lengthAdjust="spacing" textLength="51" x="248" y="559.9092">Ergebnis</text><text fill="#000000" font-family="sans-serif" font-size="13" lengthAdjust="spacing" textLength="70" x="248" y="576.2607">bereitstellen</text><!--SRC=[VLB1Yjj03BtFLuYSsaDWiySS2jsIJKkQ4Z9nzs8eYaTsXjYAqSpGhRzjR_jZbPtKxaBfoNZqdjxJayBPSuk23JJulAKGi2BhEuB5_Pq9Ot674dtXM-IuG-SyLx2uCoRwM1DadtxixvVmIAUQ132LuFIxrsQN90N1aKx8Zcg6n2vdv-clOldw8l2JV2GXsCcbqmf1Q4c4s9Xs4eQPZPH84bSX_0gHcfpjTZ43360FRv6hv-BpFEUlQgRJtgcfwAYy0Ri_68SHZwWwiyVjwgC2dxogSgW4szC0sgpVDinO3ORu-X8xqbbo7YV8-Trtktv_jP7j31Rn8Z3xbluWlt28oDq0oAmnzW3p3-fYJ8paZAmYcixjIVqHG-ZvRFO3VhDUmWCvIb7d6A0FGwnr_ul7KdHnR3PhcD-QJ-NGriZG-0YsZrLVRZsjmgPD89-mxdKd7_gcyLMZ2Prl2IkE9Gdtkeu2FAdzFfZY71HUNaINpqQHevC90NJbndyQ-Fyfz0obP7Pv7KD3ZIaCPbUYwsKVzD94wNeQTKty6m00]--></g></svg>