<?xml version="1.0" encoding="us-ascii" standalone="no"?><svg xmlns="http://www.w3.org/2000/svg" xmlns:xlink="http://www.w3.org/1999/xlink" contentStyleType="text/css" height="576px" preserveAspectRatio="none" style="width:776px;height:576px;background:#FFFFFF;" version="1.1" viewBox="0 0 776 576" width="776px" zoomAndPan="magnify"><defs/><g><!--cluster Exception-Handling-Agent--><g id="cluster_Exception-Handling-Agent"><rect fill="none" height="563" rx="2.5" ry="2.5" style="stroke:#181818;stroke-width:1.0;" width="367" x="265" y="7"/><text fill="#000000" font-family="sans-serif" font-size="14" font-weight="bold" lengthAdjust="spacing" textLength="183" x="357" y="23.5332">Exception-Handling-Agent</text></g><g id="elem_UC5"><ellipse cx="448.5513" cy="398.8551" fill="#F1F1F1" rx="117.5513" ry="40.3551" style="stroke:#181818;stroke-width:0.5;"/><text fill="#000000" font-family="sans-serif" font-size="14" lengthAdjust="spacing" textLength="150" x="373.5513" y="384.9743">Steuerungs&#228;nderungen</text><text fill="#000000" font-family="sans-serif" font-size="14" lengthAdjust="spacing" textLength="140" x="378.5513" y="402.5836">nachverfolgen und mit</text><text fill="#000000" font-family="sans-serif" font-size="14" lengthAdjust="spacing" textLength="92" x="402.5513" y="420.193">FMEA koppeln</text></g><g id="elem_UC5a"><ellipse cx="448.6829" cy="523.1366" fill="#F1F1F1" rx="141.1829" ry="30.6366" style="stroke:#181818;stroke-width:0.5;"/><text fill="#000000" font-family="sans-serif" font-size="14" lengthAdjust="spacing" textLength="98" x="399.6829" y="518.0604">&#196;nderungen an</text><text fill="#000000" font-family="sans-serif" font-size="14" lengthAdjust="spacing" textLength="201" x="348.1829" y="535.6698">Steuerungsartefakten erkennen</text></g><g id="elem_UC5b"><ellipse cx="448.4382" cy="182.9438" fill="#F1F1F1" rx="167.4382" ry="40.4438" style="stroke:#181818;stroke-width:0.5;"/><text fill="#000000" font-family="sans-serif" font-size="14" lengthAdjust="spacing" textLength="220" x="335.4382" y="169.851">&#196;nderungen einer FMEA-Funktion,</text><text fill="#000000" font-family="sans-serif" font-size="14" lengthAdjust="spacing" textLength="175" x="357.9382" y="187.4604">Monitoring-Ma&#223;nahme oder</text><text fill="#000000" font-family="sans-serif" font-size="14" lengthAdjust="spacing" textLength="160" x="365.4382" y="205.0698">Systemreaktion zuordnen</text></g><g id="elem_UC5c"><ellipse cx="448.4418" cy="281.9884" fill="#F1F1F1" rx="105.4418" ry="23.4884" style="stroke:#181818;stroke-width:0.5;"/><text fill="#000000" font-family="sans-serif" font-size="14" lengthAdjust="spacing" textLength="173" x="361.9418" y="285.7169">Benachrichtigung erzeugen</text></g><g id="elem_UC5d"><ellipse cx="448.6305" cy="75.1261" fill="#F1F1F1" rx="148.6305" ry="32.1261" style="stroke:#181818;stroke-width:0.5;"/><text fill="#000000" font-family="sans-serif" font-size="14" lengthAdjust="spacing" textLength="84" x="406.6305" y="70.0499">Vorschlag f&#252;r</text><text fill="#000000" font-family="sans-serif" font-size="14" lengthAdjust="spacing" textLength="220" x="338.6305" y="87.6593">Schnittstellenkonfiguration ableiten</text></g><!--entity FMEA--><g id="elem_FMEA"><ellipse cx="84" cy="261.5" fill="#F1F1F1" rx="8" ry="8" style="stroke:#181818;stroke-width:0.5;"/><path d="M84,269.5 L84,296.5 M71,277.5 L97,277.5 M84,296.5 L71,311.5 M84,296.5 L97,311.5 " fill="none" style="stroke:#181818;stroke-width:0.5;"/><text fill="#000000" font-family="sans-serif" font-size="14" lengthAdjust="spacing" textLength="79" x="44.5" y="327.5332">FMEA-Team</text></g><!--entity PE--><g id="elem_PE"><ellipse cx="84" cy="374.5" fill="#F1F1F1" rx="8" ry="8" style="stroke:#181818;stroke-width:0.5;"/><path d="M84,382.5 L84,409.5 M71,390.5 L97,390.5 M84,409.5 L71,424.5 M84,409.5 L97,424.5 " fill="none" style="stroke:#181818;stroke-width:0.5;"/><text fill="#000000" font-family="sans-serif" font-size="14" lengthAdjust="spacing" textLength="109" x="29.5" y="440.5332">Prozessingenieur</text></g><!--entity PLC--><g id="elem_PLC"><ellipse cx="84" cy="492.5" fill="#F1F1F1" rx="8" ry="8" style="stroke:#181818;stroke-width:0.5;"/><path d="M84,500.5 L84,527.5 M71,508.5 L97,508.5 M84,527.5 L71,542.5 M84,527.5 L97,542.5 " fill="none" style="stroke:#181818;stroke-width:0.5;"/><text fill="#000000" font-family="sans-serif" font-size="14" lengthAdjust="spacing" textLength="156" x="6" y="558.5332">SPS / Steuerungssystem</text></g><!--entity KG--><g id="elem_KG"><ellipse cx="724" cy="368.5" fill="#F1F1F1" rx="8" ry="8" style="stroke:#181818;stroke-width:0.5;"/><path d="M724,376.5 L724,403.5 M711,384.5 L737,384.5 M724,403.5 L711,418.5 M724,403.5 L737,418.5 " fill="none" style="stroke:#181818;stroke-width:0.5;"/><text fill="#000000" font-family="sans-serif" font-size="14" lengthAdjust="spacing" textLength="90" x="679" y="434.5332">Wissensgraph</text></g><!--link FMEA to UC5--><g id="link_FMEA_UC5"><path d="M123.79,303.45 C179.41,319.87 277.6155,348.8512 352.7455,371.0312 " fill="none" id="FMEA-to-UC5" style="stroke:#181818;stroke-width:1.0;"/><polygon fill="#181818" points="358.5,372.73,351.0009,366.3454,353.7046,371.3143,348.7357,374.018,358.5,372.73" style="stroke:#181818;stroke-width:1.0;"/></g><!--link PE to UC5--><g id="link_PE_UC5"><path d="M138.88,404.11 C189.37,403.27 260.5208,402.0995 325.0608,401.0295 " fill="none" id="PE-to-UC5" style="stroke:#181818;stroke-width:1.0;"/><polygon fill="#181818" points="331.06,400.93,321.9949,397.0797,326.0607,401.0129,322.1275,405.0786,331.06,400.93" style="stroke:#181818;stroke-width:1.0;"/></g><!--link PLC to UC5a--><g id="link_PLC_UC5a"><path d="M162.32,523 C204.53,523 252.1,523 301.39,523 " fill="none" id="PLC-to-UC5a" style="stroke:#181818;stroke-width:1.0;"/><polygon fill="#181818" points="307.39,523,298.39,519,302.39,523,298.39,527,307.39,523" style="stroke:#181818;stroke-width:1.0;"/></g><!--link UC5 to KG--><g id="link_UC5_KG"><path d="M566.28,399 C606.06,399 642.15,399 672.68,399 " fill="none" id="UC5-to-KG" style="stroke:#181818;stroke-width:1.0;"/><polygon fill="#181818" points="678.68,399,669.68,395,673.68,399,669.68,403,678.68,399" style="stroke:#181818;stroke-width:1.0;"/></g><!--link UC5 to UC5a--><g id="link_UC5_UC5a"><path d="M448.5,439.59 C448.5,456.76 448.5,470.43 448.5,486.35 " fill="none" id="UC5-to-UC5a" style="stroke:#181818;stroke-width:1.0;stroke-dasharray:7.0,7.0;"/><polygon fill="#181818" points="448.5,492.35,452.5,483.35,448.5,487.35,444.5,483.35,448.5,492.35" style="stroke:#181818;stroke-width:1.0;"/><text fill="#000000" font-family="sans-serif" font-size="13" lengthAdjust="spacing" textLength="55" x="409" y="471.4951">&#171;include&#187;</text></g><!--link UC5 to UC5b--><g id="link_UC5_UC5b"><path d="M358.97,372.58 C279.81,344.6 183.57,296.31 230,237 C245.24,217.54 260.6711,206.5307 283.7311,197.7707 " fill="none" id="UC5-to-UC5b" style="stroke:#181818;stroke-width:1.0;stroke-dasharray:7.0,7.0;"/><polygon fill="#181818" points="289.34,195.64,279.5061,195.0968,284.6659,197.4156,282.3471,202.5754,289.34,195.64" style="stroke:#181818;stroke-width:1.0;"/><text fill="#000000" font-family="sans-serif" font-size="13" lengthAdjust="spacing" textLength="55" x="193" y="251.4951">&#171;include&#187;</text></g><!--link UC5 to UC5c--><g id="link_UC5_UC5c"><path d="M448.5,358.41 C448.5,340.85 448.5,326.91 448.5,311.81 " fill="none" id="UC5-to-UC5c" style="stroke:#181818;stroke-width:1.0;stroke-dasharray:7.0,7.0;"/><polygon fill="#181818" points="448.5,305.81,444.5,314.81,448.5,310.81,452.5,314.81,448.5,305.81" style="stroke:#181818;stroke-width:1.0;"/><text fill="#000000" font-family="sans-serif" font-size="13" lengthAdjust="spacing" textLength="55" x="409" y="337.4951">&#171;include&#187;</text></g><!--link UC5 to UC5d--><g id="link_UC5_UC5d"><path d="M345.49,379.12 C312.72,367.87 279.24,350.32 257,323 C208.15,262.99 199.71,222.21 230,151 C244.3,117.37 270.3235,99.831 305.3035,88.891 " fill="none" id="UC5-to-UC5d" style="stroke:#181818;stroke-width:1.0;stroke-dasharray:7.0,7.0;"/><polygon fill="#181818" points="311.03,87.1,301.2463,85.9688,306.2579,88.5925,303.6343,93.6041,311.03,87.1" style="stroke:#181818;stroke-width:1.0;"/><text fill="#000000" font-family="sans-serif" font-size="13" lengthAdjust="spacing" textLength="55" x="193" y="165.4951">&#171;include&#187;</text></g><!--SRC=[TP6_Rjim4CPtFiN1SvHENOh0G68uBT0O4E0qMRoSoPD4Y3uA_9Cq3hhrFRBaCRBvnKeoiAKENeIZle_Vx-veg0aGB3ZTTW6KTYI3jYnyhtb0XpiOKFROqZgy688i8xU69WRVeRBFcbjeq7WI0cMm3cQtg-LrTK-ucm5woAUZKZkx9-_J5M9DqHL3lJpAwteDNs0TA9ABt7h_uWDzfjHtYwFhKNjFx5k7GrUqdz-5EFK7i-LlIKEUfVg1h4o2LTU95sRmAW2Y9ua-sKRCuPrLgOWtp2Yx9tADDUa8aHNiTDXmdW9wEmnak41_BRvEqmv_Jnc0AMPCHnUemJuaWLnFp7GAm7C9f9bSsLnr6xdFmrniU6LPfmtaWLPuU6FiTWGsNKguiYb7MBomZzQf2MWx1TrGdj5fsGNT9bvgQq-n7TrowdwmpilEO7hamqScoIvr4HBE6EBUSfD271OiRWtfC0OfyKU8ihcgcfUDrSknl5iSQnJfKmxvANDz-VaVli7LbMPfegBvVA9ipohohAB-L_u1]--></g></svg>