<?xml version="1.0" encoding="us-ascii" standalone="no"?><svg xmlns="http://www.w3.org/2000/svg" xmlns:xlink="http://www.w3.org/1999/xlink" contentStyleType="text/css" height="2853.75px" preserveAspectRatio="none" style="width:4138px;height:2853px;background:#FFFFFF;" version="1.1" viewBox="0 0 4138 2853" width="4138.125px" zoomAndPan="magnify"><defs/><g><!--cluster rag_agent_ui--><g id="cluster_rag_agent_ui"><rect fill="none" height="1072.5" rx="4.6875" ry="4.6875" style="stroke:#000000;stroke-width:2.8125;" width="678.75" x="183.2813" y="13.125"/><text fill="#000000" font-family="sans-serif" font-size="26.25" font-weight="bold" lengthAdjust="spacing" textLength="172.5" x="436.4063" y="44.1248">rag_agent_ui</text></g><!--cluster simple_rag_agent--><g id="cluster_simple_rag_agent"><rect fill="none" height="2431.875" rx="4.6875" ry="4.6875" style="stroke:#000000;stroke-width:2.8125;" width="1588.125" x="980.1563" y="410.625"/><text fill="#000000" font-family="sans-serif" font-size="26.25" font-weight="bold" lengthAdjust="spacing" textLength="234.375" x="1657.0313" y="441.6248">simple_rag_agent</text></g><!--cluster External Inputs--><g id="cluster_External Inputs"><rect fill="none" height="609.375" rx="4.6875" ry="4.6875" style="stroke:#000000;stroke-width:2.8125;" width="1222.5" x="2905.7813" y="2133.75"/><text fill="#000000" font-family="sans-serif" font-size="26.25" font-weight="bold" lengthAdjust="spacing" textLength="198.75" x="3417.6563" y="2164.7498">External Inputs</text></g><!--class RagAgentUI--><g id="elem_RagAgentUI"><rect codeLine="12" fill="#F1F1F1" height="246.8555" id="RagAgentUI" rx="4.6875" ry="4.6875" style="stroke:#181818;stroke-width:0.9375;" width="375" x="457.0313" y="80.625"/><ellipse cx="566.7188" cy="123.0176" fill="#ADD1B2" rx="18.75" ry="18.75" style="stroke:#181818;stroke-width:1.875;"/><path d="M569.3555,115.6348 Q569.5898,115.3125 569.8828,115.1514 Q570.1758,114.9902 570.498,114.9902 Q571.084,114.9902 571.4502,115.3857 Q571.8164,115.7813 571.8164,116.7188 L571.8164,118.9453 Q571.8164,119.9121 571.4502,120.3076 Q571.084,120.7031 570.498,120.7031 Q569.9707,120.7031 569.6484,120.4102 Q569.3262,120.1172 569.1797,119.3262 Q569.0918,118.7695 568.8281,118.4766 Q568.3008,117.8906 567.3486,117.5537 Q566.3965,117.2168 565.459,117.2168 Q564.2871,117.2168 563.291,117.7295 Q562.2949,118.2422 561.5479,119.3994 Q560.8008,120.5566 560.8008,122.1387 L560.8008,123.8379 Q560.8008,125.7422 562.1777,127.002 Q563.5547,128.2617 565.9863,128.2617 Q567.4512,128.2617 568.4766,127.8809 Q569.0625,127.6465 569.7363,126.9727 Q570.1465,126.5625 570.3662,126.4307 Q570.5859,126.2988 570.8789,126.2988 Q571.4063,126.2988 571.8164,126.709 Q572.2266,127.1191 572.2266,127.6465 Q572.2266,128.1738 571.6699,128.7891 Q570.8789,129.6973 569.6484,130.1953 Q568.0078,130.8984 566.0156,130.8984 Q563.6719,130.8984 561.7969,129.9316 Q560.3027,129.1699 559.2334,127.5146 Q558.1641,125.8594 558.1641,123.8965 L558.1641,122.1094 Q558.1641,120.0586 559.1162,118.2861 Q560.0684,116.5137 561.7676,115.5469 Q563.4668,114.5801 565.3418,114.5801 Q566.4844,114.5801 567.4805,114.8438 Q568.4766,115.1074 569.3555,115.6348 Z " fill="#000000"/><text fill="#000000" font-family="sans-serif" font-size="26.25" font-style="italic" lengthAdjust="spacing" textLength="116.25" x="614.5313" y="117.2498">&#171;module&#187;</text><text fill="#000000" font-family="sans-serif" font-size="26.25" lengthAdjust="spacing" textLength="140.625" x="602.3438" y="150.2673">RagAgentUI</text><line style="stroke:#181818;stroke-width:0.9375;" x1="458.9063" x2="830.1563" y1="165.4102" y2="165.4102"/><line style="stroke:#181818;stroke-width:0.9375;" x1="458.9063" x2="830.1563" y1="180.4102" y2="180.4102"/><text fill="#000000" font-family="sans-serif" font-size="26.25" lengthAdjust="spacing" textLength="281.25" x="468.2813" y="215.1599">+streamlit_main(): None</text><text fill="#000000" font-family="sans-serif" font-size="26.25" lengthAdjust="spacing" textLength="339.375" x="468.2813" y="248.1775">+start_analysis(event): None</text><text fill="#000000" font-family="sans-serif" font-size="26.25" lengthAdjust="spacing" textLength="352.5" x="468.2813" y="281.1951">+run_pipeline(cfg, event): dict</text><text fill="#000000" font-family="sans-serif" font-size="26.25" lengthAdjust="spacing" textLength="300" x="468.2813" y="314.2126">+write_out_json(blob): str</text></g><!--class PipelineConfig--><g id="elem_PipelineConfig"><rect codeLine="19" fill="#F1F1F1" height="279.873" id="PipelineConfig" rx="4.6875" ry="4.6875" style="stroke:#181818;stroke-width:0.9375;" width="238.125" x="214.2188" y="776.25"/><ellipse cx="245.5312" cy="818.6426" fill="#ADD1B2" rx="18.75" ry="18.75" style="stroke:#181818;stroke-width:1.875;"/><path d="M248.168,811.2598 Q248.4023,810.9375 248.6953,810.7764 Q248.9883,810.6152 249.3105,810.6152 Q249.8965,810.6152 250.2627,811.0107 Q250.6289,811.4063 250.6289,812.3438 L250.6289,814.5703 Q250.6289,815.5371 250.2627,815.9326 Q249.8965,816.3281 249.3105,816.3281 Q248.7832,816.3281 248.4609,816.0352 Q248.1387,815.7422 247.9922,814.9512 Q247.9043,814.3945 247.6406,814.1016 Q247.1133,813.5156 246.1611,813.1787 Q245.209,812.8418 244.2715,812.8418 Q243.0996,812.8418 242.1035,813.3545 Q241.1074,813.8672 240.3604,815.0244 Q239.6133,816.1816 239.6133,817.7637 L239.6133,819.4629 Q239.6133,821.3672 240.9902,822.627 Q242.3672,823.8867 244.7988,823.8867 Q246.2637,823.8867 247.2891,823.5059 Q247.875,823.2715 248.5488,822.5977 Q248.959,822.1875 249.1787,822.0557 Q249.3984,821.9238 249.6914,821.9238 Q250.2187,821.9238 250.6289,822.334 Q251.0391,822.7441 251.0391,823.2715 Q251.0391,823.7988 250.4824,824.4141 Q249.6914,825.3223 248.4609,825.8203 Q246.8203,826.5234 244.8281,826.5234 Q242.4844,826.5234 240.6094,825.5566 Q239.1152,824.7949 238.0459,823.1396 Q236.9766,821.4844 236.9766,819.5215 L236.9766,817.7344 Q236.9766,815.6836 237.9287,813.9111 Q238.8809,812.1387 240.5801,811.1719 Q242.2793,810.2051 244.1543,810.2051 Q245.2969,810.2051 246.293,810.4688 Q247.2891,810.7324 248.168,811.2598 Z " fill="#000000"/><text fill="#000000" font-family="sans-serif" font-size="26.25" font-style="italic" lengthAdjust="spacing" textLength="142.5" x="285.0938" y="812.8748">&#171;dataclass&#187;</text><text fill="#000000" font-family="sans-serif" font-size="26.25" lengthAdjust="spacing" textLength="170.625" x="271.0313" y="845.8923">PipelineConfig</text><line style="stroke:#181818;stroke-width:0.9375;" x1="216.0938" x2="450.4688" y1="861.0352" y2="861.0352"/><text fill="#000000" font-family="sans-serif" font-size="26.25" lengthAdjust="spacing" textLength="176.25" x="225.4688" y="895.7849">+enabled: bool</text><text fill="#000000" font-family="sans-serif" font-size="26.25" lengthAdjust="spacing" textLength="90" x="225.4688" y="928.8025">+dir: str</text><text fill="#000000" font-family="sans-serif" font-size="26.25" lengthAdjust="spacing" textLength="138.75" x="225.4688" y="961.8201">+runner: str</text><text fill="#000000" font-family="sans-serif" font-size="26.25" lengthAdjust="spacing" textLength="131.25" x="225.4688" y="994.8376">+config: str</text><text fill="#000000" font-family="sans-serif" font-size="26.25" lengthAdjust="spacing" textLength="215.625" x="225.4688" y="1027.8552">+timeout_sec: int?</text><line style="stroke:#181818;stroke-width:0.9375;" x1="216.0938" x2="450.4688" y1="1041.123" y2="1041.123"/></g><!--class RagConfig--><g id="elem_RagConfig"><rect codeLine="27" fill="#F1F1F1" height="246.8555" id="RagConfig" rx="4.6875" ry="4.6875" style="stroke:#181818;stroke-width:0.9375;" width="247.5" x="584.5313" y="792.1875"/><ellipse cx="636.0938" cy="834.5801" fill="#ADD1B2" rx="18.75" ry="18.75" style="stroke:#181818;stroke-width:1.875;"/><path d="M638.7305,827.1973 Q638.9648,826.875 639.2578,826.7139 Q639.5508,826.5527 639.873,826.5527 Q640.459,826.5527 640.8252,826.9482 Q641.1914,827.3438 641.1914,828.2813 L641.1914,830.5078 Q641.1914,831.4746 640.8252,831.8701 Q640.459,832.2656 639.873,832.2656 Q639.3457,832.2656 639.0234,831.9727 Q638.7012,831.6797 638.5547,830.8887 Q638.4668,830.332 638.2031,830.0391 Q637.6758,829.4531 636.7236,829.1162 Q635.7715,828.7793 634.834,828.7793 Q633.6621,828.7793 632.666,829.292 Q631.6699,829.8047 630.9229,830.9619 Q630.1758,832.1191 630.1758,833.7012 L630.1758,835.4004 Q630.1758,837.3047 631.5527,838.5645 Q632.9297,839.8242 635.3613,839.8242 Q636.8262,839.8242 637.8516,839.4434 Q638.4375,839.209 639.1113,838.5352 Q639.5215,838.125 639.7412,837.9932 Q639.9609,837.8613 640.2539,837.8613 Q640.7813,837.8613 641.1914,838.2715 Q641.6016,838.6816 641.6016,839.209 Q641.6016,839.7363 641.0449,840.3516 Q640.2539,841.2598 639.0234,841.7578 Q637.3828,842.4609 635.3906,842.4609 Q633.0469,842.4609 631.1719,841.4941 Q629.6777,840.7324 628.6084,839.0771 Q627.5391,837.4219 627.5391,835.459 L627.5391,833.6719 Q627.5391,831.6211 628.4912,829.8486 Q629.4434,828.0762 631.1426,827.1094 Q632.8418,826.1426 634.7168,826.1426 Q635.8594,826.1426 636.8555,826.4063 Q637.8516,826.6699 638.7305,827.1973 Z " fill="#000000"/><text fill="#000000" font-family="sans-serif" font-size="26.25" font-style="italic" lengthAdjust="spacing" textLength="142.5" x="662.3438" y="828.8123">&#171;dataclass&#187;</text><text fill="#000000" font-family="sans-serif" font-size="26.25" lengthAdjust="spacing" textLength="125.625" x="670.7813" y="861.8298">RagConfig</text><line style="stroke:#181818;stroke-width:0.9375;" x1="586.4063" x2="830.1563" y1="876.9727" y2="876.9727"/><text fill="#000000" font-family="sans-serif" font-size="26.25" lengthAdjust="spacing" textLength="165" x="595.7813" y="911.7224">+xml_path: str</text><text fill="#000000" font-family="sans-serif" font-size="26.25" lengthAdjust="spacing" textLength="131.25" x="595.7813" y="944.74">+model: str</text><text fill="#000000" font-family="sans-serif" font-size="26.25" lengthAdjust="spacing" textLength="225" x="595.7813" y="977.7576">+temperature: float</text><text fill="#000000" font-family="sans-serif" font-size="26.25" lengthAdjust="spacing" textLength="123.75" x="595.7813" y="1010.7751">+top_k: int</text><line style="stroke:#181818;stroke-width:0.9375;" x1="586.4063" x2="830.1563" y1="1024.043" y2="1024.043"/></g><!--class UiConfig--><g id="elem_UiConfig"><rect codeLine="34" fill="#F1F1F1" height="147.8027" id="UiConfig" rx="4.6875" ry="4.6875" style="stroke:#181818;stroke-width:0.9375;" width="318.75" x="348.2813" y="478.125"/><ellipse cx="432.6563" cy="520.5176" fill="#ADD1B2" rx="18.75" ry="18.75" style="stroke:#181818;stroke-width:1.875;"/><path d="M435.293,513.1348 Q435.5273,512.8125 435.8203,512.6514 Q436.1133,512.4902 436.4355,512.4902 Q437.0215,512.4902 437.3877,512.8857 Q437.7539,513.2813 437.7539,514.2188 L437.7539,516.4453 Q437.7539,517.4121 437.3877,517.8076 Q437.0215,518.2031 436.4355,518.2031 Q435.9082,518.2031 435.5859,517.9102 Q435.2637,517.6172 435.1172,516.8262 Q435.0293,516.2695 434.7656,515.9766 Q434.2383,515.3906 433.2861,515.0537 Q432.334,514.7168 431.3965,514.7168 Q430.2246,514.7168 429.2285,515.2295 Q428.2324,515.7422 427.4854,516.8994 Q426.7383,518.0566 426.7383,519.6387 L426.7383,521.3379 Q426.7383,523.2422 428.1152,524.502 Q429.4922,525.7617 431.9238,525.7617 Q433.3887,525.7617 434.4141,525.3809 Q435,525.1465 435.6738,524.4727 Q436.084,524.0625 436.3037,523.9307 Q436.5234,523.7988 436.8164,523.7988 Q437.3438,523.7988 437.7539,524.209 Q438.1641,524.6191 438.1641,525.1465 Q438.1641,525.6738 437.6074,526.2891 Q436.8164,527.1973 435.5859,527.6953 Q433.9453,528.3984 431.9531,528.3984 Q429.6094,528.3984 427.7344,527.4316 Q426.2402,526.6699 425.1709,525.0146 Q424.1016,523.3594 424.1016,521.3965 L424.1016,519.6094 Q424.1016,517.5586 425.0537,515.7861 Q426.0059,514.0137 427.7051,513.0469 Q429.4043,512.0801 431.2793,512.0801 Q432.4219,512.0801 433.418,512.3438 Q434.4141,512.6074 435.293,513.1348 Z " fill="#000000"/><text fill="#000000" font-family="sans-serif" font-size="26.25" font-style="italic" lengthAdjust="spacing" textLength="142.5" x="464.5313" y="514.7498">&#171;dataclass&#187;</text><text fill="#000000" font-family="sans-serif" font-size="26.25" lengthAdjust="spacing" textLength="99.375" x="486.0938" y="547.7673">UiConfig</text><line style="stroke:#181818;stroke-width:0.9375;" x1="350.1563" x2="665.1563" y1="562.9102" y2="562.9102"/><text fill="#000000" font-family="sans-serif" font-size="26.25" lengthAdjust="spacing" textLength="296.25" x="359.5313" y="597.6599">+openai_api_key_file: str</text><line style="stroke:#181818;stroke-width:0.9375;" x1="350.1563" x2="665.1563" y1="610.9277" y2="610.9277"/></g><!--class RagIncidentContext--><g id="elem_RagIncidentContext"><rect codeLine="44" fill="#F1F1F1" height="477.9785" id="RagIncidentContext" rx="4.6875" ry="4.6875" style="stroke:#181818;stroke-width:0.9375;" width="391.875" x="2089.2188" y="1205.625"/><ellipse cx="2162.7188" cy="1248.0176" fill="#ADD1B2" rx="18.75" ry="18.75" style="stroke:#181818;stroke-width:1.875;"/><path d="M2165.3555,1240.6348 Q2165.5898,1240.3125 2165.8828,1240.1514 Q2166.1758,1239.9902 2166.498,1239.9902 Q2167.084,1239.9902 2167.4502,1240.3857 Q2167.8164,1240.7813 2167.8164,1241.7188 L2167.8164,1243.9453 Q2167.8164,1244.9121 2167.4502,1245.3076 Q2167.084,1245.7031 2166.498,1245.7031 Q2165.9707,1245.7031 2165.6484,1245.4102 Q2165.3262,1245.1172 2165.1797,1244.3262 Q2165.0918,1243.7695 2164.8281,1243.4766 Q2164.3008,1242.8906 2163.3486,1242.5537 Q2162.3965,1242.2168 2161.459,1242.2168 Q2160.2871,1242.2168 2159.291,1242.7295 Q2158.2949,1243.2422 2157.5479,1244.3994 Q2156.8008,1245.5566 2156.8008,1247.1387 L2156.8008,1248.8379 Q2156.8008,1250.7422 2158.1777,1252.002 Q2159.5547,1253.2617 2161.9863,1253.2617 Q2163.4512,1253.2617 2164.4766,1252.8809 Q2165.0625,1252.6465 2165.7363,1251.9727 Q2166.1465,1251.5625 2166.3662,1251.4307 Q2166.5859,1251.2988 2166.8789,1251.2988 Q2167.4063,1251.2988 2167.8164,1251.709 Q2168.2266,1252.1191 2168.2266,1252.6465 Q2168.2266,1253.1738 2167.6699,1253.7891 Q2166.8789,1254.6973 2165.6484,1255.1953 Q2164.0078,1255.8984 2162.0156,1255.8984 Q2159.6719,1255.8984 2157.7969,1254.9316 Q2156.3027,1254.1699 2155.2334,1252.5146 Q2154.1641,1250.8594 2154.1641,1248.8965 L2154.1641,1247.1094 Q2154.1641,1245.0586 2155.1162,1243.2861 Q2156.0684,1241.5137 2157.7676,1240.5469 Q2159.4668,1239.5801 2161.3418,1239.5801 Q2162.4844,1239.5801 2163.4805,1239.8438 Q2164.4766,1240.1074 2165.3555,1240.6348 Z " fill="#000000"/><text fill="#000000" font-family="sans-serif" font-size="26.25" font-style="italic" lengthAdjust="spacing" textLength="142.5" x="2241.6563" y="1242.2498">&#171;dataclass&#187;</text><text fill="#000000" font-family="sans-serif" font-size="26.25" lengthAdjust="spacing" textLength="230.625" x="2197.5938" y="1275.2673">RagIncidentContext</text><line style="stroke:#181818;stroke-width:0.9375;" x1="2091.0938" x2="2479.2188" y1="1290.4102" y2="1290.4102"/><text fill="#000000" font-family="sans-serif" font-size="26.25" lengthAdjust="spacing" textLength="206.25" x="2100.4688" y="1325.1599">+correlationId: str</text><text fill="#000000" font-family="sans-serif" font-size="26.25" lengthAdjust="spacing" textLength="221.25" x="2100.4688" y="1358.1775">+processName: str</text><text fill="#000000" font-family="sans-serif" font-size="26.25" lengthAdjust="spacing" textLength="166.875" x="2100.4688" y="1391.1951">+summary: str</text><text fill="#000000" font-family="sans-serif" font-size="26.25" lengthAdjust="spacing" textLength="204.375" x="2100.4688" y="1424.2126">+triggerEvent: str</text><text fill="#000000" font-family="sans-serif" font-size="26.25" lengthAdjust="spacing" textLength="148.125" x="2100.4688" y="1457.2302">+lastSkill: str</text><text fill="#000000" font-family="sans-serif" font-size="26.25" lengthAdjust="spacing" textLength="165" x="2100.4688" y="1490.2478">+xml_path: str</text><text fill="#000000" font-family="sans-serif" font-size="26.25" lengthAdjust="spacing" textLength="202.5" x="2100.4688" y="1523.2654">+project_root: str</text><text fill="#000000" font-family="sans-serif" font-size="26.25" lengthAdjust="spacing" textLength="136.875" x="2100.4688" y="1556.283">+event: dict</text><line style="stroke:#181818;stroke-width:0.9375;" x1="2091.0938" x2="2479.2188" y1="1569.5508" y2="1569.5508"/><text fill="#000000" font-family="sans-serif" font-size="26.25" lengthAdjust="spacing" textLength="369.375" x="2100.4688" y="1604.3005">+compact_event_context(): dict</text><text fill="#000000" font-family="sans-serif" font-size="26.25" lengthAdjust="spacing" textLength="333.75" x="2100.4688" y="1637.3181">+runtime_context_note(): str</text><text fill="#000000" font-family="sans-serif" font-size="26.25" lengthAdjust="spacing" textLength="275.625" x="2100.4688" y="1670.3357">+default_question(): str</text></g><!--class RagChunk--><g id="elem_RagChunk"><rect codeLine="58" fill="#F1F1F1" height="312.8906" id="RagChunk" rx="4.6875" ry="4.6875" style="stroke:#181818;stroke-width:0.9375;" width="204.375" x="1408.5938" y="2499.375"/><ellipse cx="1440.75" cy="2541.7676" fill="#ADD1B2" rx="18.75" ry="18.75" style="stroke:#181818;stroke-width:1.875;"/><path d="M1443.3867,2534.3848 Q1443.6211,2534.0625 1443.9141,2533.9014 Q1444.207,2533.7402 1444.5293,2533.7402 Q1445.1152,2533.7402 1445.4814,2534.1357 Q1445.8477,2534.5313 1445.8477,2535.4688 L1445.8477,2537.6953 Q1445.8477,2538.6621 1445.4814,2539.0576 Q1445.1152,2539.4531 1444.5293,2539.4531 Q1444.002,2539.4531 1443.6797,2539.1602 Q1443.3574,2538.8672 1443.2109,2538.0762 Q1443.123,2537.5195 1442.8594,2537.2266 Q1442.332,2536.6406 1441.3799,2536.3037 Q1440.4277,2535.9668 1439.4902,2535.9668 Q1438.3184,2535.9668 1437.3223,2536.4795 Q1436.3262,2536.9922 1435.5791,2538.1494 Q1434.832,2539.3066 1434.832,2540.8887 L1434.832,2542.5879 Q1434.832,2544.4922 1436.209,2545.752 Q1437.5859,2547.0117 1440.0176,2547.0117 Q1441.4824,2547.0117 1442.5078,2546.6309 Q1443.0938,2546.3965 1443.7676,2545.7227 Q1444.1777,2545.3125 1444.3975,2545.1807 Q1444.6172,2545.0488 1444.9102,2545.0488 Q1445.4375,2545.0488 1445.8477,2545.459 Q1446.2578,2545.8691 1446.2578,2546.3965 Q1446.2578,2546.9238 1445.7012,2547.5391 Q1444.9102,2548.4473 1443.6797,2548.9453 Q1442.0391,2549.6484 1440.0469,2549.6484 Q1437.7031,2549.6484 1435.8281,2548.6816 Q1434.334,2547.9199 1433.2646,2546.2646 Q1432.1953,2544.6094 1432.1953,2542.6465 L1432.1953,2540.8594 Q1432.1953,2538.8086 1433.1475,2537.0361 Q1434.0996,2535.2637 1435.7988,2534.2969 Q1437.498,2533.3301 1439.373,2533.3301 Q1440.5156,2533.3301 1441.5117,2533.5938 Q1442.5078,2533.8574 1443.3867,2534.3848 Z " fill="#000000"/><text fill="#000000" font-family="sans-serif" font-size="26.25" font-style="italic" lengthAdjust="spacing" textLength="142.5" x="1462.6875" y="2535.9998">&#171;dataclass&#187;</text><text fill="#000000" font-family="sans-serif" font-size="26.25" lengthAdjust="spacing" textLength="125.625" x="1471.125" y="2569.0173">RagChunk</text><line style="stroke:#181818;stroke-width:0.9375;" x1="1410.4688" x2="1611.0938" y1="2584.1602" y2="2584.1602"/><text fill="#000000" font-family="sans-serif" font-size="26.25" lengthAdjust="spacing" textLength="166.875" x="1419.8438" y="2618.9099">+chunk_id: str</text><text fill="#000000" font-family="sans-serif" font-size="26.25" lengthAdjust="spacing" textLength="108.75" x="1419.8438" y="2651.9275">+kind: str</text><text fill="#000000" font-family="sans-serif" font-size="26.25" lengthAdjust="spacing" textLength="125.625" x="1419.8438" y="2684.9451">+name: str</text><text fill="#000000" font-family="sans-serif" font-size="26.25" lengthAdjust="spacing" textLength="101.25" x="1419.8438" y="2717.9626">+text: str</text><text fill="#000000" font-family="sans-serif" font-size="26.25" lengthAdjust="spacing" textLength="181.875" x="1419.8438" y="2750.9802">+metadata: dict</text><line style="stroke:#181818;stroke-width:0.9375;" x1="1410.4688" x2="1611.0938" y1="2764.248" y2="2764.248"/><text fill="#000000" font-family="sans-serif" font-size="26.25" lengthAdjust="spacing" textLength="168.75" x="1419.8438" y="2798.9978">+preview(): str</text></g><!--class PLCOpenXmlSource--><g id="elem_PLCOpenXmlSource"><rect codeLine="67" fill="#F1F1F1" height="119.2676" id="PLCOpenXmlSource" rx="4.6875" ry="4.6875" style="stroke:#181818;stroke-width:0.9375;" width="313.125" x="2224.2188" y="2215.3125"/><ellipse cx="2257.2188" cy="2243.4375" fill="#ADD1B2" rx="18.75" ry="18.75" style="stroke:#181818;stroke-width:1.875;"/><path d="M2259.8555,2236.0547 Q2260.0898,2235.7324 2260.3828,2235.5713 Q2260.6758,2235.4102 2260.998,2235.4102 Q2261.584,2235.4102 2261.9502,2235.8057 Q2262.3164,2236.2012 2262.3164,2237.1387 L2262.3164,2239.3652 Q2262.3164,2240.332 2261.9502,2240.7275 Q2261.584,2241.123 2260.998,2241.123 Q2260.4707,2241.123 2260.1484,2240.8301 Q2259.8262,2240.5371 2259.6797,2239.7461 Q2259.5918,2239.1895 2259.3281,2238.8965 Q2258.8008,2238.3105 2257.8486,2237.9736 Q2256.8965,2237.6367 2255.959,2237.6367 Q2254.7871,2237.6367 2253.791,2238.1494 Q2252.7949,2238.6621 2252.0479,2239.8193 Q2251.3008,2240.9766 2251.3008,2242.5586 L2251.3008,2244.2578 Q2251.3008,2246.1621 2252.6777,2247.4219 Q2254.0547,2248.6816 2256.4863,2248.6816 Q2257.9512,2248.6816 2258.9766,2248.3008 Q2259.5625,2248.0664 2260.2363,2247.3926 Q2260.6465,2246.9824 2260.8662,2246.8506 Q2261.0859,2246.7188 2261.3789,2246.7188 Q2261.9063,2246.7188 2262.3164,2247.1289 Q2262.7266,2247.5391 2262.7266,2248.0664 Q2262.7266,2248.5938 2262.1699,2249.209 Q2261.3789,2250.1172 2260.1484,2250.6152 Q2258.5078,2251.3184 2256.5156,2251.3184 Q2254.1719,2251.3184 2252.2969,2250.3516 Q2250.8027,2249.5898 2249.7334,2247.9346 Q2248.6641,2246.2793 2248.6641,2244.3164 L2248.6641,2242.5293 Q2248.6641,2240.4785 2249.6162,2238.7061 Q2250.5684,2236.9336 2252.2676,2235.9668 Q2253.9668,2235 2255.8418,2235 Q2256.9844,2235 2257.9805,2235.2637 Q2258.9766,2235.5273 2259.8555,2236.0547 Z " fill="#000000"/><text fill="#000000" font-family="sans-serif" font-size="26.25" lengthAdjust="spacing" textLength="241.875" x="2283.0938" y="2254.1785">PLCOpenXmlSource</text><line style="stroke:#181818;stroke-width:0.9375;" x1="2226.0938" x2="2535.4688" y1="2271.5625" y2="2271.5625"/><line style="stroke:#181818;stroke-width:0.9375;" x1="2226.0938" x2="2535.4688" y1="2286.5625" y2="2286.5625"/><text fill="#000000" font-family="sans-serif" font-size="26.25" lengthAdjust="spacing" textLength="290.625" x="2235.4688" y="2321.3123">+load_text(xml_path): str</text></g><!--class XmlChunker--><g id="elem_XmlChunker"><rect codeLine="71" fill="#F1F1F1" height="119.2676" id="XmlChunker" rx="4.6875" ry="4.6875" style="stroke:#181818;stroke-width:0.9375;" width="556.875" x="1536.0938" y="2215.3125"/><ellipse cx="1735.7813" cy="2243.4375" fill="#ADD1B2" rx="18.75" ry="18.75" style="stroke:#181818;stroke-width:1.875;"/><path d="M1738.418,2236.0547 Q1738.6523,2235.7324 1738.9453,2235.5713 Q1739.2383,2235.4102 1739.5605,2235.4102 Q1740.1465,2235.4102 1740.5127,2235.8057 Q1740.8789,2236.2012 1740.8789,2237.1387 L1740.8789,2239.3652 Q1740.8789,2240.332 1740.5127,2240.7275 Q1740.1465,2241.123 1739.5605,2241.123 Q1739.0332,2241.123 1738.7109,2240.8301 Q1738.3887,2240.5371 1738.2422,2239.7461 Q1738.1543,2239.1895 1737.8906,2238.8965 Q1737.3633,2238.3105 1736.4111,2237.9736 Q1735.459,2237.6367 1734.5215,2237.6367 Q1733.3496,2237.6367 1732.3535,2238.1494 Q1731.3574,2238.6621 1730.6104,2239.8193 Q1729.8633,2240.9766 1729.8633,2242.5586 L1729.8633,2244.2578 Q1729.8633,2246.1621 1731.2402,2247.4219 Q1732.6172,2248.6816 1735.0488,2248.6816 Q1736.5137,2248.6816 1737.5391,2248.3008 Q1738.125,2248.0664 1738.7988,2247.3926 Q1739.209,2246.9824 1739.4287,2246.8506 Q1739.6484,2246.7188 1739.9414,2246.7188 Q1740.4688,2246.7188 1740.8789,2247.1289 Q1741.2891,2247.5391 1741.2891,2248.0664 Q1741.2891,2248.5938 1740.7324,2249.209 Q1739.9414,2250.1172 1738.7109,2250.6152 Q1737.0703,2251.3184 1735.0781,2251.3184 Q1732.7344,2251.3184 1730.8594,2250.3516 Q1729.3652,2249.5898 1728.2959,2247.9346 Q1727.2266,2246.2793 1727.2266,2244.3164 L1727.2266,2242.5293 Q1727.2266,2240.4785 1728.1787,2238.7061 Q1729.1309,2236.9336 1730.8301,2235.9668 Q1732.5293,2235 1734.4043,2235 Q1735.5469,2235 1736.543,2235.2637 Q1737.5391,2235.5273 1738.418,2236.0547 Z " fill="#000000"/><text fill="#000000" font-family="sans-serif" font-size="26.25" lengthAdjust="spacing" textLength="142.5" x="1771.4063" y="2254.1785">XmlChunker</text><line style="stroke:#181818;stroke-width:0.9375;" x1="1537.9688" x2="2091.0938" y1="2271.5625" y2="2271.5625"/><line style="stroke:#181818;stroke-width:0.9375;" x1="1537.9688" x2="2091.0938" y1="2286.5625" y2="2286.5625"/><text fill="#000000" font-family="sans-serif" font-size="26.25" lengthAdjust="spacing" textLength="534.375" x="1547.3438" y="2321.3123">+chunk_text(text, xml_path): List&lt;RagChunk&gt;</text></g><!--class SimpleRagIndex--><g id="elem_SimpleRagIndex"><rect codeLine="75" fill="#F1F1F1" height="119.2676" id="SimpleRagIndex" rx="4.6875" ry="4.6875" style="stroke:#181818;stroke-width:0.9375;" width="393.75" x="1010.1563" y="2215.3125"/><ellipse cx="1104.8438" cy="2243.4375" fill="#ADD1B2" rx="18.75" ry="18.75" style="stroke:#181818;stroke-width:1.875;"/><path d="M1107.4805,2236.0547 Q1107.7148,2235.7324 1108.0078,2235.5713 Q1108.3008,2235.4102 1108.623,2235.4102 Q1109.209,2235.4102 1109.5752,2235.8057 Q1109.9414,2236.2012 1109.9414,2237.1387 L1109.9414,2239.3652 Q1109.9414,2240.332 1109.5752,2240.7275 Q1109.209,2241.123 1108.623,2241.123 Q1108.0957,2241.123 1107.7734,2240.8301 Q1107.4512,2240.5371 1107.3047,2239.7461 Q1107.2168,2239.1895 1106.9531,2238.8965 Q1106.4258,2238.3105 1105.4736,2237.9736 Q1104.5215,2237.6367 1103.584,2237.6367 Q1102.4121,2237.6367 1101.416,2238.1494 Q1100.4199,2238.6621 1099.6729,2239.8193 Q1098.9258,2240.9766 1098.9258,2242.5586 L1098.9258,2244.2578 Q1098.9258,2246.1621 1100.3027,2247.4219 Q1101.6797,2248.6816 1104.1113,2248.6816 Q1105.5762,2248.6816 1106.6016,2248.3008 Q1107.1875,2248.0664 1107.8613,2247.3926 Q1108.2715,2246.9824 1108.4912,2246.8506 Q1108.7109,2246.7188 1109.0039,2246.7188 Q1109.5313,2246.7188 1109.9414,2247.1289 Q1110.3516,2247.5391 1110.3516,2248.0664 Q1110.3516,2248.5938 1109.7949,2249.209 Q1109.0039,2250.1172 1107.7734,2250.6152 Q1106.1328,2251.3184 1104.1406,2251.3184 Q1101.7969,2251.3184 1099.9219,2250.3516 Q1098.4277,2249.5898 1097.3584,2247.9346 Q1096.2891,2246.2793 1096.2891,2244.3164 L1096.2891,2242.5293 Q1096.2891,2240.4785 1097.2412,2238.7061 Q1098.1934,2236.9336 1099.8926,2235.9668 Q1101.5918,2235 1103.4668,2235 Q1104.6094,2235 1105.6055,2235.2637 Q1106.6016,2235.5273 1107.4805,2236.0547 Z " fill="#000000"/><text fill="#000000" font-family="sans-serif" font-size="26.25" lengthAdjust="spacing" textLength="189.375" x="1140.4688" y="2254.1785">SimpleRagIndex</text><line style="stroke:#181818;stroke-width:0.9375;" x1="1012.0313" x2="1402.0313" y1="2271.5625" y2="2271.5625"/><line style="stroke:#181818;stroke-width:0.9375;" x1="1012.0313" x2="1402.0313" y1="2286.5625" y2="2286.5625"/><text fill="#000000" font-family="sans-serif" font-size="26.25" lengthAdjust="spacing" textLength="371.25" x="1021.4063" y="2321.3123">+search(question, k): List&lt;dict&gt;</text></g><!--class SimpleRagAgent--><g id="elem_SimpleRagAgent"><rect codeLine="79" fill="#F1F1F1" height="218.3203" id="SimpleRagAgent" rx="4.6875" ry="4.6875" style="stroke:#181818;stroke-width:0.9375;" width="474.375" x="1991.7188" y="1833.75"/><ellipse cx="2122.9688" cy="1861.875" fill="#ADD1B2" rx="18.75" ry="18.75" style="stroke:#181818;stroke-width:1.875;"/><path d="M2125.6055,1854.4922 Q2125.8398,1854.1699 2126.1328,1854.0088 Q2126.4258,1853.8477 2126.748,1853.8477 Q2127.334,1853.8477 2127.7002,1854.2432 Q2128.0664,1854.6387 2128.0664,1855.5762 L2128.0664,1857.8027 Q2128.0664,1858.7695 2127.7002,1859.165 Q2127.334,1859.5605 2126.748,1859.5605 Q2126.2207,1859.5605 2125.8984,1859.2676 Q2125.5762,1858.9746 2125.4297,1858.1836 Q2125.3418,1857.627 2125.0781,1857.334 Q2124.5508,1856.748 2123.5986,1856.4111 Q2122.6465,1856.0742 2121.709,1856.0742 Q2120.5371,1856.0742 2119.541,1856.5869 Q2118.5449,1857.0996 2117.7979,1858.2568 Q2117.0508,1859.4141 2117.0508,1860.9961 L2117.0508,1862.6953 Q2117.0508,1864.5996 2118.4277,1865.8594 Q2119.8047,1867.1191 2122.2363,1867.1191 Q2123.7012,1867.1191 2124.7266,1866.7383 Q2125.3125,1866.5039 2125.9863,1865.8301 Q2126.3965,1865.4199 2126.6162,1865.2881 Q2126.8359,1865.1563 2127.1289,1865.1563 Q2127.6563,1865.1563 2128.0664,1865.5664 Q2128.4766,1865.9766 2128.4766,1866.5039 Q2128.4766,1867.0313 2127.9199,1867.6465 Q2127.1289,1868.5547 2125.8984,1869.0527 Q2124.2578,1869.7559 2122.2656,1869.7559 Q2119.9219,1869.7559 2118.0469,1868.7891 Q2116.5527,1868.0273 2115.4834,1866.3721 Q2114.4141,1864.7168 2114.4141,1862.7539 L2114.4141,1860.9668 Q2114.4141,1858.916 2115.3662,1857.1436 Q2116.3184,1855.3711 2118.0176,1854.4043 Q2119.7168,1853.4375 2121.5918,1853.4375 Q2122.7344,1853.4375 2123.7305,1853.7012 Q2124.7266,1853.9648 2125.6055,1854.4922 Z " fill="#000000"/><text fill="#000000" font-family="sans-serif" font-size="26.25" lengthAdjust="spacing" textLength="196.875" x="2158.5938" y="1872.616">SimpleRagAgent</text><line style="stroke:#181818;stroke-width:0.9375;" x1="1993.5938" x2="2464.2188" y1="1890" y2="1890"/><text fill="#000000" font-family="sans-serif" font-size="26.25" lengthAdjust="spacing" textLength="165" x="2002.9688" y="1924.7498">+xml_path: str</text><text fill="#000000" font-family="sans-serif" font-size="26.25" lengthAdjust="spacing" textLength="123.75" x="2002.9688" y="1957.7673">+top_k: int</text><line style="stroke:#181818;stroke-width:0.9375;" x1="1993.5938" x2="2464.2188" y1="1971.0352" y2="1971.0352"/><text fill="#000000" font-family="sans-serif" font-size="26.25" lengthAdjust="spacing" textLength="286.875" x="2002.9688" y="2005.7849">+debug_summary(): dict</text><text fill="#000000" font-family="sans-serif" font-size="26.25" lengthAdjust="spacing" textLength="451.875" x="2002.9688" y="2038.8025">+ask(question, ctx, extra_context): dict</text></g><!--class SimpleRagSession--><g id="elem_SimpleRagSession"><rect codeLine="86" fill="#F1F1F1" height="251.3379" id="SimpleRagSession" rx="4.6875" ry="4.6875" style="stroke:#181818;stroke-width:0.9375;" width="412.5" x="1409.5313" y="790.3125"/><ellipse cx="1497.6563" cy="818.4375" fill="#ADD1B2" rx="18.75" ry="18.75" style="stroke:#181818;stroke-width:1.875;"/><path d="M1500.293,811.0547 Q1500.5273,810.7324 1500.8203,810.5713 Q1501.1133,810.4102 1501.4355,810.4102 Q1502.0215,810.4102 1502.3877,810.8057 Q1502.7539,811.2012 1502.7539,812.1387 L1502.7539,814.3652 Q1502.7539,815.332 1502.3877,815.7275 Q1502.0215,816.123 1501.4355,816.123 Q1500.9082,816.123 1500.5859,815.8301 Q1500.2637,815.5371 1500.1172,814.7461 Q1500.0293,814.1895 1499.7656,813.8965 Q1499.2383,813.3105 1498.2861,812.9736 Q1497.334,812.6367 1496.3965,812.6367 Q1495.2246,812.6367 1494.2285,813.1494 Q1493.2324,813.6621 1492.4854,814.8193 Q1491.7383,815.9766 1491.7383,817.5586 L1491.7383,819.2578 Q1491.7383,821.1621 1493.1152,822.4219 Q1494.4922,823.6816 1496.9238,823.6816 Q1498.3887,823.6816 1499.4141,823.3008 Q1500,823.0664 1500.6738,822.3926 Q1501.084,821.9824 1501.3037,821.8506 Q1501.5234,821.7188 1501.8164,821.7188 Q1502.3438,821.7188 1502.7539,822.1289 Q1503.1641,822.5391 1503.1641,823.0664 Q1503.1641,823.5938 1502.6074,824.209 Q1501.8164,825.1172 1500.5859,825.6152 Q1498.9453,826.3184 1496.9531,826.3184 Q1494.6094,826.3184 1492.7344,825.3516 Q1491.2402,824.5898 1490.1709,822.9346 Q1489.1016,821.2793 1489.1016,819.3164 L1489.1016,817.5293 Q1489.1016,815.4785 1490.0537,813.7061 Q1491.0059,811.9336 1492.7051,810.9668 Q1494.4043,810 1496.2793,810 Q1497.4219,810 1498.418,810.2637 Q1499.4141,810.5273 1500.293,811.0547 Z " fill="#000000"/><text fill="#000000" font-family="sans-serif" font-size="26.25" lengthAdjust="spacing" textLength="221.25" x="1533.2813" y="829.1785">SimpleRagSession</text><line style="stroke:#181818;stroke-width:0.9375;" x1="1411.4063" x2="1820.1563" y1="846.5625" y2="846.5625"/><text fill="#000000" font-family="sans-serif" font-size="26.25" lengthAdjust="spacing" textLength="221.25" x="1420.7813" y="881.3123">+history: List&lt;dict&gt;</text><line style="stroke:#181818;stroke-width:0.9375;" x1="1411.4063" x2="1820.1563" y1="894.5801" y2="894.5801"/><text fill="#000000" font-family="sans-serif" font-size="26.25" lengthAdjust="spacing" textLength="286.875" x="1420.7813" y="929.3298">+debug_summary(): dict</text><text fill="#000000" font-family="sans-serif" font-size="26.25" lengthAdjust="spacing" textLength="337.5" x="1420.7813" y="962.3474">+ask(user_msg, debug): dict</text><text fill="#000000" font-family="sans-serif" font-size="26.25" lengthAdjust="spacing" textLength="339.375" x="1420.7813" y="995.365">+build_default_prompt(): dict</text><text fill="#000000" font-family="sans-serif" font-size="26.25" lengthAdjust="spacing" textLength="390" x="1420.7813" y="1028.3826">+run_initial_analysis(debug): dict</text></g><!--class RagSessionBuilder--><g id="elem_RagSessionBuilder"><rect codeLine="94" fill="#F1F1F1" height="147.8027" id="RagSessionBuilder" rx="4.6875" ry="4.6875" style="stroke:#181818;stroke-width:0.9375;" width="1336.875" x="1200.4688" y="478.125"/><ellipse cx="1748.9063" cy="520.5176" fill="#ADD1B2" rx="18.75" ry="18.75" style="stroke:#181818;stroke-width:1.875;"/><path d="M1751.543,513.1348 Q1751.7773,512.8125 1752.0703,512.6514 Q1752.3633,512.4902 1752.6855,512.4902 Q1753.2715,512.4902 1753.6377,512.8857 Q1754.0039,513.2813 1754.0039,514.2188 L1754.0039,516.4453 Q1754.0039,517.4121 1753.6377,517.8076 Q1753.2715,518.2031 1752.6855,518.2031 Q1752.1582,518.2031 1751.8359,517.9102 Q1751.5137,517.6172 1751.3672,516.8262 Q1751.2793,516.2695 1751.0156,515.9766 Q1750.4883,515.3906 1749.5361,515.0537 Q1748.584,514.7168 1747.6465,514.7168 Q1746.4746,514.7168 1745.4785,515.2295 Q1744.4824,515.7422 1743.7354,516.8994 Q1742.9883,518.0566 1742.9883,519.6387 L1742.9883,521.3379 Q1742.9883,523.2422 1744.3652,524.502 Q1745.7422,525.7617 1748.1738,525.7617 Q1749.6387,525.7617 1750.6641,525.3809 Q1751.25,525.1465 1751.9238,524.4727 Q1752.334,524.0625 1752.5537,523.9307 Q1752.7734,523.7988 1753.0664,523.7988 Q1753.5938,523.7988 1754.0039,524.209 Q1754.4141,524.6191 1754.4141,525.1465 Q1754.4141,525.6738 1753.8574,526.2891 Q1753.0664,527.1973 1751.8359,527.6953 Q1750.1953,528.3984 1748.2031,528.3984 Q1745.8594,528.3984 1743.9844,527.4316 Q1742.4902,526.6699 1741.4209,525.0146 Q1740.3516,523.3594 1740.3516,521.3965 L1740.3516,519.6094 Q1740.3516,517.5586 1741.3037,515.7861 Q1742.2559,514.0137 1743.9551,513.0469 Q1745.6543,512.0801 1747.5293,512.0801 Q1748.6719,512.0801 1749.668,512.3438 Q1750.6641,512.6074 1751.543,513.1348 Z " fill="#000000"/><text fill="#000000" font-family="sans-serif" font-size="26.25" font-style="italic" lengthAdjust="spacing" textLength="116.25" x="1838.9063" y="514.7498">&#171;module&#187;</text><text fill="#000000" font-family="sans-serif" font-size="26.25" lengthAdjust="spacing" textLength="225" x="1784.5313" y="547.7673">RagSessionBuilder</text><line style="stroke:#181818;stroke-width:0.9375;" x1="1202.3438" x2="2535.4688" y1="562.9102" y2="562.9102"/><line style="stroke:#181818;stroke-width:0.9375;" x1="1202.3438" x2="2535.4688" y1="577.9102" y2="577.9102"/><text fill="#000000" font-family="sans-serif" font-size="26.25" lengthAdjust="spacing" textLength="1314.375" x="1211.7188" y="612.6599">+build_session_from_input(obj, xml_path, pipeline_config_path, model, temperature, top_k): SimpleRagSession</text></g><!--class EventJson--><g id="elem_EventJson"><rect codeLine="111" fill="#F1F1F1" height="114.7852" id="EventJson" rx="4.6875" ry="4.6875" style="stroke:#181818;stroke-width:0.9375;" width="178.125" x="3531.0938" y="2218.125"/><ellipse cx="3557.3438" cy="2260.5176" fill="#ADD1B2" rx="18.75" ry="18.75" style="stroke:#181818;stroke-width:1.875;"/><path d="M3559.9805,2253.1348 Q3560.2148,2252.8125 3560.5078,2252.6514 Q3560.8008,2252.4902 3561.123,2252.4902 Q3561.709,2252.4902 3562.0752,2252.8857 Q3562.4414,2253.2813 3562.4414,2254.2188 L3562.4414,2256.4453 Q3562.4414,2257.4121 3562.0752,2257.8076 Q3561.709,2258.2031 3561.123,2258.2031 Q3560.5957,2258.2031 3560.2734,2257.9102 Q3559.9512,2257.6172 3559.8047,2256.8262 Q3559.7168,2256.2695 3559.4531,2255.9766 Q3558.9258,2255.3906 3557.9736,2255.0537 Q3557.0215,2254.7168 3556.084,2254.7168 Q3554.9121,2254.7168 3553.916,2255.2295 Q3552.9199,2255.7422 3552.1729,2256.8994 Q3551.4258,2258.0566 3551.4258,2259.6387 L3551.4258,2261.3379 Q3551.4258,2263.2422 3552.8027,2264.502 Q3554.1797,2265.7617 3556.6113,2265.7617 Q3558.0762,2265.7617 3559.1016,2265.3809 Q3559.6875,2265.1465 3560.3613,2264.4727 Q3560.7715,2264.0625 3560.9912,2263.9307 Q3561.2109,2263.7988 3561.5039,2263.7988 Q3562.0313,2263.7988 3562.4414,2264.209 Q3562.8516,2264.6191 3562.8516,2265.1465 Q3562.8516,2265.6738 3562.2949,2266.2891 Q3561.5039,2267.1973 3560.2734,2267.6953 Q3558.6328,2268.3984 3556.6406,2268.3984 Q3554.2969,2268.3984 3552.4219,2267.4316 Q3550.9277,2266.6699 3549.8584,2265.0146 Q3548.7891,2263.3594 3548.7891,2261.3965 L3548.7891,2259.6094 Q3548.7891,2257.5586 3549.7412,2255.7861 Q3550.6934,2254.0137 3552.3926,2253.0469 Q3554.0918,2252.0801 3555.9668,2252.0801 Q3557.1094,2252.0801 3558.1055,2252.3438 Q3559.1016,2252.6074 3559.9805,2253.1348 Z " fill="#000000"/><text fill="#000000" font-family="sans-serif" font-size="26.25" font-style="italic" lengthAdjust="spacing" textLength="110.625" x="3587.3438" y="2254.7498">&#171;artifact&#187;</text><text fill="#000000" font-family="sans-serif" font-size="26.25" lengthAdjust="spacing" textLength="121.875" x="3581.7188" y="2287.7673">EventJson</text><line style="stroke:#181818;stroke-width:0.9375;" x1="3532.9688" x2="3707.3438" y1="2302.9102" y2="2302.9102"/><line style="stroke:#181818;stroke-width:0.9375;" x1="3532.9688" x2="3707.3438" y1="2317.9102" y2="2317.9102"/></g><!--class ExportXml--><g id="elem_ExportXml"><rect codeLine="112" fill="#F1F1F1" height="114.7852" id="ExportXml" rx="4.6875" ry="4.6875" style="stroke:#181818;stroke-width:0.9375;" width="172.5" x="2935.7813" y="2598.75"/><ellipse cx="2962.0313" cy="2641.1426" fill="#ADD1B2" rx="18.75" ry="18.75" style="stroke:#181818;stroke-width:1.875;"/><path d="M2964.668,2633.7598 Q2964.9023,2633.4375 2965.1953,2633.2764 Q2965.4883,2633.1152 2965.8105,2633.1152 Q2966.3965,2633.1152 2966.7627,2633.5107 Q2967.1289,2633.9063 2967.1289,2634.8438 L2967.1289,2637.0703 Q2967.1289,2638.0371 2966.7627,2638.4326 Q2966.3965,2638.8281 2965.8105,2638.8281 Q2965.2832,2638.8281 2964.9609,2638.5352 Q2964.6387,2638.2422 2964.4922,2637.4512 Q2964.4043,2636.8945 2964.1406,2636.6016 Q2963.6133,2636.0156 2962.6611,2635.6787 Q2961.709,2635.3418 2960.7715,2635.3418 Q2959.5996,2635.3418 2958.6035,2635.8545 Q2957.6074,2636.3672 2956.8604,2637.5244 Q2956.1133,2638.6816 2956.1133,2640.2637 L2956.1133,2641.9629 Q2956.1133,2643.8672 2957.4902,2645.127 Q2958.8672,2646.3867 2961.2988,2646.3867 Q2962.7637,2646.3867 2963.7891,2646.0059 Q2964.375,2645.7715 2965.0488,2645.0977 Q2965.459,2644.6875 2965.6787,2644.5557 Q2965.8984,2644.4238 2966.1914,2644.4238 Q2966.7188,2644.4238 2967.1289,2644.834 Q2967.5391,2645.2441 2967.5391,2645.7715 Q2967.5391,2646.2988 2966.9824,2646.9141 Q2966.1914,2647.8223 2964.9609,2648.3203 Q2963.3203,2649.0234 2961.3281,2649.0234 Q2958.9844,2649.0234 2957.1094,2648.0566 Q2955.6152,2647.2949 2954.5459,2645.6396 Q2953.4766,2643.9844 2953.4766,2642.0215 L2953.4766,2640.2344 Q2953.4766,2638.1836 2954.4287,2636.4111 Q2955.3809,2634.6387 2957.0801,2633.6719 Q2958.7793,2632.7051 2960.6543,2632.7051 Q2961.7969,2632.7051 2962.793,2632.9688 Q2963.7891,2633.2324 2964.668,2633.7598 Z " fill="#000000"/><text fill="#000000" font-family="sans-serif" font-size="26.25" font-style="italic" lengthAdjust="spacing" textLength="110.625" x="2989.2188" y="2635.3748">&#171;artifact&#187;</text><text fill="#000000" font-family="sans-serif" font-size="26.25" lengthAdjust="spacing" textLength="116.25" x="2986.4063" y="2668.3923">ExportXml</text><line style="stroke:#181818;stroke-width:0.9375;" x1="2937.6563" x2="3106.4063" y1="2683.5352" y2="2683.5352"/><line style="stroke:#181818;stroke-width:0.9375;" x1="2937.6563" x2="3106.4063" y1="2698.5352" y2="2698.5352"/></g><!--class IngestionPipeline--><g id="elem_IngestionPipeline"><rect codeLine="113" fill="#F1F1F1" height="114.7852" id="IngestionPipeline" rx="4.6875" ry="4.6875" style="stroke:#181818;stroke-width:0.9375;" width="256.875" x="3840.4688" y="2218.125"/><ellipse cx="3866.7188" cy="2260.5176" fill="#ADD1B2" rx="18.75" ry="18.75" style="stroke:#181818;stroke-width:1.875;"/><path d="M3869.3555,2253.1348 Q3869.5898,2252.8125 3869.8828,2252.6514 Q3870.1758,2252.4902 3870.498,2252.4902 Q3871.084,2252.4902 3871.4502,2252.8857 Q3871.8164,2253.2813 3871.8164,2254.2188 L3871.8164,2256.4453 Q3871.8164,2257.4121 3871.4502,2257.8076 Q3871.084,2258.2031 3870.498,2258.2031 Q3869.9707,2258.2031 3869.6484,2257.9102 Q3869.3262,2257.6172 3869.1797,2256.8262 Q3869.0918,2256.2695 3868.8281,2255.9766 Q3868.3008,2255.3906 3867.3486,2255.0537 Q3866.3965,2254.7168 3865.459,2254.7168 Q3864.2871,2254.7168 3863.291,2255.2295 Q3862.2949,2255.7422 3861.5479,2256.8994 Q3860.8008,2258.0566 3860.8008,2259.6387 L3860.8008,2261.3379 Q3860.8008,2263.2422 3862.1777,2264.502 Q3863.5547,2265.7617 3865.9863,2265.7617 Q3867.4512,2265.7617 3868.4766,2265.3809 Q3869.0625,2265.1465 3869.7363,2264.4727 Q3870.1465,2264.0625 3870.3662,2263.9307 Q3870.5859,2263.7988 3870.8789,2263.7988 Q3871.4063,2263.7988 3871.8164,2264.209 Q3872.2266,2264.6191 3872.2266,2265.1465 Q3872.2266,2265.6738 3871.6699,2266.2891 Q3870.8789,2267.1973 3869.6484,2267.6953 Q3868.0078,2268.3984 3866.0156,2268.3984 Q3863.6719,2268.3984 3861.7969,2267.4316 Q3860.3027,2266.6699 3859.2334,2265.0146 Q3858.1641,2263.3594 3858.1641,2261.3965 L3858.1641,2259.6094 Q3858.1641,2257.5586 3859.1162,2255.7861 Q3860.0684,2254.0137 3861.7676,2253.0469 Q3863.4668,2252.0801 3865.3418,2252.0801 Q3866.4844,2252.0801 3867.4805,2252.3438 Q3868.4766,2252.6074 3869.3555,2253.1348 Z " fill="#000000"/><text fill="#000000" font-family="sans-serif" font-size="26.25" font-style="italic" lengthAdjust="spacing" textLength="123.75" x="3929.5313" y="2254.7498">&#171;external&#187;</text><text fill="#000000" font-family="sans-serif" font-size="26.25" lengthAdjust="spacing" textLength="200.625" x="3891.0938" y="2287.7673">IngestionPipeline</text><line style="stroke:#181818;stroke-width:0.9375;" x1="3842.3438" x2="4095.4688" y1="2302.9102" y2="2302.9102"/><line style="stroke:#181818;stroke-width:0.9375;" x1="3842.3438" x2="4095.4688" y1="2317.9102" y2="2317.9102"/></g><!--class LLMFactory--><g id="elem_LLMFactory"><rect codeLine="114" fill="#F1F1F1" height="147.8027" id="LLMFactory" rx="4.6875" ry="4.6875" style="stroke:#181818;stroke-width:0.9375;" width="463.125" x="2936.7188" y="2201.25"/><ellipse cx="3090.4688" cy="2243.6426" fill="#ADD1B2" rx="18.75" ry="18.75" style="stroke:#181818;stroke-width:1.875;"/><path d="M3093.1055,2236.2598 Q3093.3398,2235.9375 3093.6328,2235.7764 Q3093.9258,2235.6152 3094.248,2235.6152 Q3094.834,2235.6152 3095.2002,2236.0107 Q3095.5664,2236.4063 3095.5664,2237.3438 L3095.5664,2239.5703 Q3095.5664,2240.5371 3095.2002,2240.9326 Q3094.834,2241.3281 3094.248,2241.3281 Q3093.7207,2241.3281 3093.3984,2241.0352 Q3093.0762,2240.7422 3092.9297,2239.9512 Q3092.8418,2239.3945 3092.5781,2239.1016 Q3092.0508,2238.5156 3091.0986,2238.1787 Q3090.1465,2237.8418 3089.209,2237.8418 Q3088.0371,2237.8418 3087.041,2238.3545 Q3086.0449,2238.8672 3085.2979,2240.0244 Q3084.5508,2241.1816 3084.5508,2242.7637 L3084.5508,2244.4629 Q3084.5508,2246.3672 3085.9277,2247.627 Q3087.3047,2248.8867 3089.7363,2248.8867 Q3091.2012,2248.8867 3092.2266,2248.5059 Q3092.8125,2248.2715 3093.4863,2247.5977 Q3093.8965,2247.1875 3094.1162,2247.0557 Q3094.3359,2246.9238 3094.6289,2246.9238 Q3095.1563,2246.9238 3095.5664,2247.334 Q3095.9766,2247.7441 3095.9766,2248.2715 Q3095.9766,2248.7988 3095.4199,2249.4141 Q3094.6289,2250.3223 3093.3984,2250.8203 Q3091.7578,2251.5234 3089.7656,2251.5234 Q3087.4219,2251.5234 3085.5469,2250.5566 Q3084.0527,2249.7949 3082.9834,2248.1396 Q3081.9141,2246.4844 3081.9141,2244.5215 L3081.9141,2242.7344 Q3081.9141,2240.6836 3082.8662,2238.9111 Q3083.8184,2237.1387 3085.5176,2236.1719 Q3087.2168,2235.2051 3089.0918,2235.2051 Q3090.2344,2235.2051 3091.2305,2235.4688 Q3092.2266,2235.7324 3093.1055,2236.2598 Z " fill="#000000"/><text fill="#000000" font-family="sans-serif" font-size="26.25" font-style="italic" lengthAdjust="spacing" textLength="123.75" x="3134.5313" y="2237.8748">&#171;external&#187;</text><text fill="#000000" font-family="sans-serif" font-size="26.25" lengthAdjust="spacing" textLength="140.625" x="3126.0938" y="2270.8923">LLMFactory</text><line style="stroke:#181818;stroke-width:0.9375;" x1="2938.5938" x2="3397.9688" y1="2286.0352" y2="2286.0352"/><line style="stroke:#181818;stroke-width:0.9375;" x1="2938.5938" x2="3397.9688" y1="2301.0352" y2="2301.0352"/><text fill="#000000" font-family="sans-serif" font-size="26.25" lengthAdjust="spacing" textLength="440.625" x="2947.9688" y="2335.7849">+get_llm_invoke(model, temperature)</text></g><g id="elem_GMN47"><path d="M2598.2813,1833.75 L2598.2813,1935 L2466.5625,1942.5 L2598.2813,1950 L2598.2813,2050.6055 A0,0 0 0 0 2598.2813,2050.6055 L3160.7813,2050.6055 A0,0 0 0 0 3160.7813,2050.6055 L3160.7813,1852.5 L3142.0313,1833.75 L2598.2813,1833.75 A0,0 0 0 0 2598.2813,1833.75 " fill="#FEFFDD" style="stroke:#181818;stroke-width:0.9375;"/><path d="M3142.0313,1833.75 L3142.0313,1852.5 L3160.7813,1852.5 L3142.0313,1833.75 " fill="#FEFFDD" style="stroke:#181818;stroke-width:0.9375;"/><text fill="#000000" font-family="sans-serif" font-size="26.25" lengthAdjust="spacing" textLength="219.375" x="2609.5313" y="1870.3748">Minimal RAG path:</text><text fill="#000000" font-family="sans-serif" font-size="26.25" lengthAdjust="spacing" textLength="193.125" x="2609.5313" y="1903.3923">- load export.xml</text><text fill="#000000" font-family="sans-serif" font-size="26.25" lengthAdjust="spacing" textLength="262.5" x="2609.5313" y="1936.4099">- chunk PLCOpenXML</text><text fill="#000000" font-family="sans-serif" font-size="26.25" lengthAdjust="spacing" textLength="191.25" x="2609.5313" y="1969.4275">- lexical retrieval</text><text fill="#000000" font-family="sans-serif" font-size="26.25" lengthAdjust="spacing" textLength="236.25" x="2609.5313" y="2002.4451">- single LLM answer</text><text fill="#000000" font-family="sans-serif" font-size="26.25" lengthAdjust="spacing" textLength="523.125" x="2609.5313" y="2035.4626">No ToolRegistry, BaseAgentTool or planner.</text></g><g id="elem_GMN50"><path d="M538.5938,1369.6875 L538.5938,1520.5078 L949.2188,1520.5078 L949.2188,1388.4375 L930.4688,1369.6875 L538.5938,1369.6875 " fill="#FEFFDD" style="stroke:#181818;stroke-width:0.9375;"/><path d="M930.4688,1369.6875 L930.4688,1388.4375 L949.2188,1388.4375 L930.4688,1369.6875 " fill="#FEFFDD" style="stroke:#181818;stroke-width:1.875;"/><text fill="#000000" font-family="sans-serif" font-size="26.25" lengthAdjust="spacing" textLength="150" x="549.8438" y="1406.3123">Initial UI flow:</text><text fill="#000000" font-family="sans-serif" font-size="26.25" lengthAdjust="spacing" textLength="268.125" x="549.8438" y="1439.3298">build_default_prompt()</text><text fill="#000000" font-family="sans-serif" font-size="26.25" lengthAdjust="spacing" textLength="275.625" x="549.8438" y="1472.3474">-&gt; run_initial_analysis()</text><text fill="#000000" font-family="sans-serif" font-size="26.25" lengthAdjust="spacing" textLength="371.25" x="549.8438" y="1505.365">-&gt; answer stored in chat history</text></g><!--reverse link UiConfig to PipelineConfig--><g id="link_UiConfig_PipelineConfig"><path codeLine="38" d="M400.3125,649.1813 C400.3125,692.1938 400.3125,725.2125 400.3125,776.1 " fill="none" id="UiConfig-backto-PipelineConfig" style="stroke:#181818;stroke-width:1.875;"/><polygon fill="#181818" points="400.3125,626.6813,392.8125,637.9313,400.3125,649.1813,407.8125,637.9313,400.3125,626.6813" style="stroke:#181818;stroke-width:1.875;"/></g><!--reverse link UiConfig to RagConfig--><g id="link_UiConfig_RagConfig"><path codeLine="39" d="M625.7813,649.1813 C625.7813,696.7687 625.7813,737.1563 625.7813,792.1313 " fill="none" id="UiConfig-backto-RagConfig" style="stroke:#181818;stroke-width:1.875;"/><polygon fill="#181818" points="625.7813,626.6813,618.2813,637.9313,625.7813,649.1813,633.2813,637.9313,625.7813,626.6813" style="stroke:#181818;stroke-width:1.875;"/></g><!--link RagAgentUI to UiConfig--><g id="link_RagAgentUI_UiConfig"><path codeLine="40" d="M562.0313,328.4625 C562.0313,378.4125 562.0313,423.0938 562.0313,466.5375 " fill="none" id="RagAgentUI-to-UiConfig" style="stroke:#181818;stroke-width:1.875;stroke-dasharray:7.0,7.0;"/><polygon fill="#181818" points="562.0313,477.7875,569.5313,460.9125,562.0313,468.4125,554.5313,460.9125,562.0313,477.7875" style="stroke:#181818;stroke-width:1.875;"/><text fill="#000000" font-family="sans-serif" font-size="26.25" lengthAdjust="spacing" textLength="63.75" x="496.4063" y="396.6248">loads</text></g><!--reverse link SimpleRagSession to SimpleRagAgent--><g id="link_SimpleRagSession_SimpleRagAgent"><path codeLine="98" d="M1844.8875,916.875 C1946.1938,916.875 2024.2125,916.875 2024.2125,916.875 C2024.2125,916.875 2024.2125,1569.75 2024.2125,1833.7125 " fill="none" id="SimpleRagSession-backto-SimpleRagAgent" style="stroke:#181818;stroke-width:1.875;"/><polygon fill="#181818" points="1822.3875,916.875,1833.6375,924.375,1844.8875,916.875,1833.6375,909.375,1822.3875,916.875" style="stroke:#181818;stroke-width:1.875;"/></g><!--reverse link SimpleRagSession to RagIncidentContext--><g id="link_SimpleRagSession_RagIncidentContext"><path codeLine="99" d="M1679.0625,1064.3063 C1679.0625,1163.2125 1679.0625,1261.875 1679.0625,1261.875 C1679.0625,1261.875 1912.125,1261.875 2089.2188,1261.875 " fill="none" id="SimpleRagSession-backto-RagIncidentContext" style="stroke:#181818;stroke-width:1.875;"/><polygon fill="#181818" points="1679.0625,1041.8063,1671.5625,1053.0563,1679.0625,1064.3063,1686.5625,1053.0563,1679.0625,1041.8063" style="stroke:#181818;stroke-width:1.875;"/></g><!--link SimpleRagAgent to PLCOpenXmlSource--><g id="link_SimpleRagAgent_PLCOpenXmlSource"><path codeLine="100" d="M2304.8438,2051.475 C2304.8438,2105.8875 2304.8438,2158.3688 2304.8438,2203.8938 " fill="none" id="SimpleRagAgent-to-PLCOpenXmlSource" style="stroke:#181818;stroke-width:1.875;stroke-dasharray:7.0,7.0;"/><polygon fill="#181818" points="2304.8438,2215.1438,2312.3438,2198.2688,2304.8438,2205.7688,2297.3438,2198.2688,2304.8438,2215.1438" style="stroke:#181818;stroke-width:1.875;"/><text fill="#000000" font-family="sans-serif" font-size="26.25" lengthAdjust="spacing" textLength="121.875" x="2181.0938" y="2126.8185">loads XML</text></g><!--link SimpleRagAgent to XmlChunker--><g id="link_SimpleRagAgent_XmlChunker"><path codeLine="101" d="M2042.3438,2051.475 C2042.3438,2105.8875 2042.3438,2158.3688 2042.3438,2203.8938 " fill="none" id="SimpleRagAgent-to-XmlChunker" style="stroke:#181818;stroke-width:1.875;stroke-dasharray:7.0,7.0;"/><polygon fill="#181818" points="2042.3438,2215.1438,2049.8438,2198.2688,2042.3438,2205.7688,2034.8438,2198.2688,2042.3438,2215.1438" style="stroke:#181818;stroke-width:1.875;"/><text fill="#000000" font-family="sans-serif" font-size="26.25" lengthAdjust="spacing" textLength="180" x="1860.4688" y="2126.8185">creates chunks</text></g><!--link SimpleRagAgent to SimpleRagIndex--><g id="link_SimpleRagAgent_SimpleRagIndex"><path codeLine="102" d="M1991.4562,1942.5 C1716.8813,1942.5 1302.1875,1942.5 1302.1875,1942.5 C1302.1875,1942.5 1302.1875,2107.8938 1302.1875,2203.8 " fill="none" id="SimpleRagAgent-to-SimpleRagIndex" style="stroke:#181818;stroke-width:1.875;"/><polygon fill="#181818" points="1302.1875,2215.05,1309.6875,2198.175,1302.1875,2205.675,1294.6875,2198.175,1302.1875,2215.05" style="stroke:#181818;stroke-width:1.875;"/><text fill="#000000" font-family="sans-serif" font-size="26.25" lengthAdjust="spacing" textLength="69.375" x="1439.3063" y="1935.9998">builds</text></g><!--link SimpleRagIndex to RagChunk--><g id="link_SimpleRagIndex_RagChunk"><path codeLine="103" d="M1403.925,2276.25 C1453.9875,2276.25 1493.9063,2276.25 1493.9063,2276.25 C1493.9063,2276.25 1493.9063,2383.4813 1493.9063,2488.0688 " fill="none" id="SimpleRagIndex-to-RagChunk" style="stroke:#181818;stroke-width:1.875;"/><polygon fill="#181818" points="1493.9063,2499.3188,1501.4063,2482.4438,1493.9063,2489.9438,1486.4063,2482.4438,1493.9063,2499.3188" style="stroke:#181818;stroke-width:1.875;"/><text fill="#000000" font-family="sans-serif" font-size="26.25" lengthAdjust="spacing" textLength="65.625" x="1426.4063" y="2336.2935">ranks</text></g><!--link XmlChunker to RagChunk--><g id="link_XmlChunker_RagChunk"><path codeLine="104" d="M1574.5313,2335.6313 C1574.5313,2379.6375 1574.5313,2430.1875 1574.5313,2487.7687 " fill="none" id="XmlChunker-to-RagChunk" style="stroke:#181818;stroke-width:1.875;stroke-dasharray:7.0,7.0;"/><polygon fill="#181818" points="1574.5313,2499.0187,1582.0313,2482.1437,1574.5313,2489.6437,1567.0313,2482.1437,1574.5313,2499.0187" style="stroke:#181818;stroke-width:1.875;"/><text fill="#000000" font-family="sans-serif" font-size="26.25" lengthAdjust="spacing" textLength="88.125" x="1484.5313" y="2410.8248">creates</text></g><!--link RagSessionBuilder to RagIncidentContext--><g id="link_RagSessionBuilder_RagIncidentContext"><path codeLine="105" d="M2285.1563,626.7375 C2285.1563,752.5312 2285.1563,1000.8375 2285.1563,1194 " fill="none" id="RagSessionBuilder-to-RagIncidentContext" style="stroke:#181818;stroke-width:1.875;stroke-dasharray:7.0,7.0;"/><polygon fill="#181818" points="2285.1563,1205.25,2292.6563,1188.375,2285.1563,1195.875,2277.6563,1188.375,2285.1563,1205.25" style="stroke:#181818;stroke-width:1.875;"/><text fill="#000000" font-family="sans-serif" font-size="26.25" lengthAdjust="spacing" textLength="144.375" x="2138.9063" y="909.4935">from_input()</text></g><!--link RagSessionBuilder to SimpleRagAgent--><g id="link_RagSessionBuilder_SimpleRagAgent"><path codeLine="106" d="M2056.725,626.4375 C2056.725,857.0062 2056.725,1550.175 2056.725,1822.3313 " fill="none" id="RagSessionBuilder-to-SimpleRagAgent" style="stroke:#181818;stroke-width:1.875;stroke-dasharray:7.0,7.0;"/><polygon fill="#181818" points="2056.725,1833.5813,2064.225,1816.7063,2056.725,1824.2063,2049.225,1816.7063,2056.725,1833.5813" style="stroke:#181818;stroke-width:1.875;"/><text fill="#000000" font-family="sans-serif" font-size="26.25" lengthAdjust="spacing" textLength="121.875" x="1932.975" y="1223.5185">constructs</text></g><!--link RagSessionBuilder to SimpleRagSession--><g id="link_RagSessionBuilder_SimpleRagSession"><path codeLine="107" d="M1615.7813,626.6813 C1615.7813,673.65 1615.7813,724.2562 1615.7813,778.725 " fill="none" id="RagSessionBuilder-to-SimpleRagSession" style="stroke:#181818;stroke-width:1.875;stroke-dasharray:7.0,7.0;"/><polygon fill="#181818" points="1615.7813,789.975,1623.2813,773.1,1615.7813,780.6,1608.2813,773.1,1615.7813,789.975" style="stroke:#181818;stroke-width:1.875;"/><text fill="#000000" font-family="sans-serif" font-size="26.25" lengthAdjust="spacing" textLength="84.375" x="1529.5313" y="701.8185">returns</text></g><!--link RagAgentUI to RagSessionBuilder--><g id="link_RagAgentUI_RagSessionBuilder"><path codeLine="119" d="M777.0375,328.3125 C777.0375,428.55 777.0375,553.125 777.0375,553.125 C777.0375,553.125 962.3625,553.125 1188.7125,553.125 " fill="none" id="RagAgentUI-to-RagSessionBuilder" style="stroke:#181818;stroke-width:1.875;stroke-dasharray:7.0,7.0;"/><polygon fill="#181818" points="1199.9625,553.125,1183.0875,545.625,1190.5875,553.125,1183.0875,560.625,1199.9625,553.125" style="stroke:#181818;stroke-width:1.875;"/><text fill="#000000" font-family="sans-serif" font-size="26.25" lengthAdjust="spacing" textLength="320.625" x="553.5938" y="546.6248">build_session_from_input()</text></g><!--link RagAgentUI to SimpleRagSession--><g id="link_RagAgentUI_SimpleRagSession"><path codeLine="120" d="M832.125,230.625 C971.3063,230.625 1137.0375,230.625 1137.0375,230.625 C1137.0375,230.625 1137.0375,916.875 1137.0375,916.875 C1137.0375,916.875 1268.4563,916.875 1398.0188,916.875 " fill="none" id="RagAgentUI-to-SimpleRagSession" style="stroke:#181818;stroke-width:1.875;stroke-dasharray:7.0,7.0;"/><polygon fill="#181818" points="1409.2688,916.875,1392.3938,909.375,1399.8938,916.875,1392.3938,924.375,1409.2688,916.875" style="stroke:#181818;stroke-width:1.875;"/><text fill="#000000" font-family="sans-serif" font-size="26.25" lengthAdjust="spacing" textLength="271.875" x="863.2875" y="550.9185">stores in session_state</text></g><!--link RagAgentUI to PipelineConfig--><g id="link_RagAgentUI_PipelineConfig"><path codeLine="121" d="M456.5063,204.375 C367.8563,204.375 281.25,204.375 281.25,204.375 C281.25,204.375 281.25,557.7375 281.25,764.9625 " fill="none" id="RagAgentUI-to-PipelineConfig" style="stroke:#181818;stroke-width:1.875;stroke-dasharray:7.0,7.0;"/><polygon fill="#181818" points="281.25,776.2125,288.75,759.3375,281.25,766.8375,273.75,759.3375,281.25,776.2125" style="stroke:#181818;stroke-width:1.875;"/><text fill="#000000" font-family="sans-serif" font-size="26.25" lengthAdjust="spacing" textLength="266.25" x="13.125" y="396.156">optional run_pipeline()</text></g><!--link RagAgentUI to RagConfig--><g id="link_RagAgentUI_RagConfig"><path codeLine="122" d="M722.025,328.3125 C722.025,458.325 722.025,650.2312 722.025,780.375 " fill="none" id="RagAgentUI-to-RagConfig" style="stroke:#181818;stroke-width:1.875;stroke-dasharray:7.0,7.0;"/><polygon fill="#181818" points="722.025,791.625,729.525,774.75,722.025,782.25,714.525,774.75,722.025,791.625" style="stroke:#181818;stroke-width:1.875;"/><text fill="#000000" font-family="sans-serif" font-size="26.25" lengthAdjust="spacing" textLength="281.25" x="723.9" y="589.0935">passes xml/model/top_k</text></g><!--link RagAgentUI to EventJson--><g id="link_RagAgentUI_EventJson"><path codeLine="123" d="M832.5188,180 C1490.4563,180 3649.8375,180 3649.8375,180 C3649.8375,180 3649.8375,1869.2625 3649.8375,2206.3875 " fill="none" id="RagAgentUI-to-EventJson" style="stroke:#181818;stroke-width:1.875;stroke-dasharray:7.0,7.0;"/><polygon fill="#181818" points="3649.8375,2217.6375,3657.3375,2200.7625,3649.8375,2208.2625,3642.3375,2200.7625,3649.8375,2217.6375" style="stroke:#181818;stroke-width:1.875;"/><text fill="#000000" font-family="sans-serif" font-size="26.25" lengthAdjust="spacing" textLength="228.75" x="3029.3813" y="173.4998">loads event context</text></g><!--link RagAgentUI to IngestionPipeline--><g id="link_RagAgentUI_IngestionPipeline"><path codeLine="124" d="M832.1813,131.25 C1534.65,131.25 3968.9063,131.25 3968.9063,131.25 C3968.9063,131.25 3968.9063,1865.7563 3968.9063,2206.7063 " fill="none" id="RagAgentUI-to-IngestionPipeline" style="stroke:#181818;stroke-width:1.875;stroke-dasharray:7.0,7.0;"/><polygon fill="#181818" points="3968.9063,2217.9563,3976.4063,2201.0813,3968.9063,2208.5813,3961.4063,2201.0813,3968.9063,2217.9563" style="stroke:#181818;stroke-width:1.875;"/><text fill="#000000" font-family="sans-serif" font-size="26.25" lengthAdjust="spacing" textLength="341.25" x="3100.7813" y="124.7498">optional refresh of export.xml</text></g><!--link RagIncidentContext to EventJson--><g id="link_RagIncidentContext_EventJson"><path codeLine="126" d="M2481.2813,1445.625 C2845.6688,1445.625 3590.475,1445.625 3590.475,1445.625 C3590.475,1445.625 3590.475,2018.2312 3590.475,2206.3875 " fill="none" id="RagIncidentContext-to-EventJson" style="stroke:#181818;stroke-width:1.875;stroke-dasharray:7.0,7.0;"/><polygon fill="#181818" points="3590.475,2217.6375,3597.975,2200.7625,3590.475,2208.2625,3582.975,2200.7625,3590.475,2217.6375" style="stroke:#181818;stroke-width:1.875;"/><text fill="#000000" font-family="sans-serif" font-size="26.25" lengthAdjust="spacing" textLength="193.125" x="3226.875" y="1439.1248">extracts payload</text></g><!--link PLCOpenXmlSource to ExportXml--><g id="link_PLCOpenXmlSource_ExportXml"><path codeLine="127" d="M2380.7813,2336.0438 C2380.7813,2439.3188 2380.7813,2638.125 2380.7813,2638.125 C2380.7813,2638.125 2749.2563,2638.125 2924.3063,2638.125 " fill="none" id="PLCOpenXmlSource-to-ExportXml" style="stroke:#181818;stroke-width:1.875;stroke-dasharray:7.0,7.0;"/><polygon fill="#181818" points="2935.5563,2638.125,2918.6813,2630.625,2926.1813,2638.125,2918.6813,2645.625,2935.5563,2638.125" style="stroke:#181818;stroke-width:1.875;"/><text fill="#000000" font-family="sans-serif" font-size="26.25" lengthAdjust="spacing" textLength="67.5" x="2437.7438" y="2631.6248">reads</text></g><!--link IngestionPipeline to ExportXml--><g id="link_IngestionPipeline_ExportXml"><path codeLine="128" d="M3968.9063,2333.2688 C3968.9063,2440.0125 3968.9063,2656.875 3968.9063,2656.875 C3968.9063,2656.875 3353.5688,2656.875 3119.8125,2656.875 " fill="none" id="IngestionPipeline-to-ExportXml" style="stroke:#181818;stroke-width:1.875;stroke-dasharray:7.0,7.0;"/><polygon fill="#181818" points="3108.5625,2656.875,3125.4375,2664.375,3117.9375,2656.875,3125.4375,2649.375,3108.5625,2656.875" style="stroke:#181818;stroke-width:1.875;"/><text fill="#000000" font-family="sans-serif" font-size="26.25" lengthAdjust="spacing" textLength="245.625" x="3453.0375" y="2650.3748">produces / refreshes</text></g><!--link SimpleRagAgent to LLMFactory--><g id="link_SimpleRagAgent_LLMFactory"><path codeLine="129" d="M2385.4688,2051.5688 C2385.4688,2125.0875 2385.4688,2208.75 2385.4688,2208.75 C2385.4688,2208.75 2694.5063,2208.75 2925.3375,2208.75 " fill="none" id="SimpleRagAgent-to-LLMFactory" style="stroke:#181818;stroke-width:1.875;stroke-dasharray:7.0,7.0;"/><polygon fill="#181818" points="2936.5875,2208.75,2919.7125,2201.25,2927.2125,2208.75,2919.7125,2216.25,2936.5875,2208.75" style="stroke:#181818;stroke-width:1.875;"/><text fill="#000000" font-family="sans-serif" font-size="26.25" lengthAdjust="spacing" textLength="195" x="2385.5625" y="2202.2498">get_llm_invoke()</text></g><!--link RagAgentUI to RagIncidentContext--><!--link RagIncidentContext to SimpleRagAgent--><!--link SimpleRagAgent to ExportXml--><!--link SimpleRagSession to GMN50--><g id="link_SimpleRagSession_GMN50"><path d="M1451.7188,1042.1438 C1451.7188,1198.8 1451.7188,1445.625 1451.7188,1445.625 C1451.7188,1445.625 1158.5625,1445.625 949.5938,1445.625 " fill="none" id="SimpleRagSession-GMN50" style="stroke:#181818;stroke-width:1.875;stroke-dasharray:7.0,7.0;"/></g><!--SRC=[XLTjR-Cs3FxkNq7SfsHBsXqmO4DGPEZTxeOCRNTeTi01mo0eDkEeaILFafjam_ttKRATo2_jVIaQaHGVaWz9sUw5AhdX1QIIMtlhd16Rok4grMej_aNu8R5dbPAdUvxZsfqaWi7KSPLBZ1JiZcVw85GEMovjB952eJkL2DgudOu4MIdWxS-n5yFLtc89dKEbC_I7FyM7l-AMLz9zrCe5h6z_J9mkmMdOQESqNIuyIg5LaZJOuOtXEQD_b6ELU0F_9L173eyyl_N7drTmSrFeh9AuN0OvmFVM6UI558uLNAZ9T04FMc4huyOnhhWyMM4d-4oNT1HCfLWfIlGvcAJRV0QjJYPIL-iSZ738TENOazLgif5wGt9oI-AloHdaf-QQzrfjHKv0C-vu45smek8RYTc2ag1bVKHvQ2-hyIYC3z9mMtJWH84UYyLq0KAvNxeeA5Ml0JWMafNSxQ8BAPyeOmTOb6YugmmkO2irRz90vMFxuBBhyRDupQ4kAMR1U2dO7aziAoHsSdUs_cu-xwMmBps7HeA84LTNoulU0WXmPfEl4QkiA4g9x4ok7hDMAXKP7TCD3ezkF8nK6uEIUxwkiYXPfT4fMll02unERLKKt9pYf1gHvsW-U795n-J4hVT2nlaVAH5vUQ9cOKRhs1hhsovCJNL1KJiM12oj0vfqo4m4ymngXKnfXvDfT6bMDoxxfqBhmvsCSTsNObUf_Gl9yY8cuZpHN8X_gcw-F9AOaUYulpR6NHfy5dWOHVFfxlqVHBClXLphogJOul1KO245RKx7hCain8AcYpyO-ZypYCplX7KtRVZBxathGBH0gGoFv_c4tAIxIPlF6UpRQtnqBrqHsFrArtQwCPHjK-Mi8LwtvDpk8- -fEzAGEph3MmvSbCU0h8dUPDX2sH5mxQdTYU3R02gBXXMM1cnGxCWtbP0PQub7P2_A8MkPKC89BY_Jl7THbvuDx7V-QghiS6tKJcsjnhRab3oKbPlepTEbuZDejmEh9t5p6eRc3A9PIJzyIGXFFtKjja5A_L3h5lmbhU6OYZLhhlWvEEY4PXx2b_kxSOk8_Gj8QPCwj10Qm0uDvlDbd-IqodmYEygrn2kVvyIYVZgGLkJG-uyq6k_rTE_Lhr7jpsfQK9V2JL-qx8L1hhIYJgfIPxzjqzQ1Ga0gjEekbmz7XuOO2IkFmSQx9Gpxt-d9GEoZPuZOqcXUBY_YOqaFBah7k7YbyhfbswL8QjWuYzJkxku_aY6rP4VUiZn7nwJq6NhMUvmCQJiDxAI8UXjrc9IcqcCjC-rRZoJFZmsYbb3GNa2FCuTzozuhQW6wz4cW17UUQjCHl6UJaX93hgY7hqF0rw4p-nQNyhHD4jOcD5EnhpwiHumDjnJS3lIMHgilwnKv3pdjCxRlEKnYuY61FdaKoQ25WyMPAvw5_e4pXDFNepcQLVGuWUiM7lNMo0I86BI07b-c7LxC_zg9Z8BvUpxMZ6FHnXQzITSVBP7cEOeaySyJeBVJpldSzgwufvLGKFOVRt-3i1wJUQXaN8DvFSpEav7c82dXKQIXRFGkmsVkrQpm7qm-6y2LFQ197ZJyIS_qHynfrPdJ3DvnYy6pFwQl9IWbzy_rgmHL1Xvg0xZvn8aHjxjWLMyne7JIs_gmICQNNq9f65rwGL83h5igyosLxhY3PZLVmFmF]--></g></svg>