<?xml version="1.0" encoding="us-ascii" standalone="no"?><svg xmlns="http://www.w3.org/2000/svg" xmlns:xlink="http://www.w3.org/1999/xlink" contentStyleType="text/css" height="635px" preserveAspectRatio="none" style="width:672px;height:635px;background:#FFFFFF;" version="1.1" viewBox="0 0 672 635" width="672px" zoomAndPan="magnify"><defs/><g><text fill="#000000" font-family="sans-serif" font-size="14" font-weight="bold" lengthAdjust="spacing" textLength="329" x="173.25" y="29.5332">UC_R3: Fehler behandeln, ohne die Ressource</text><text fill="#000000" font-family="sans-serif" font-size="14" font-weight="bold" lengthAdjust="spacing" textLength="226" x="224.75" y="47.1426">f&#252;r weitere Prozesse zu sperren</text><line style="stroke:#181818;stroke-width:0.5;stroke-dasharray:5.0,5.0;" x1="80" x2="80" y1="156.4375" y2="536.0625"/><line style="stroke:#181818;stroke-width:0.5;stroke-dasharray:5.0,5.0;" x1="245.5" x2="245.5" y1="156.4375" y2="536.0625"/><line style="stroke:#181818;stroke-width:0.5;stroke-dasharray:5.0,5.0;" x1="409.5" x2="409.5" y1="156.4375" y2="536.0625"/><line style="stroke:#181818;stroke-width:0.5;stroke-dasharray:5.0,5.0;" x1="531.5" x2="531.5" y1="156.4375" y2="536.0625"/><line style="stroke:#181818;stroke-width:0.5;stroke-dasharray:5.0,5.0;" x1="638.5" x2="638.5" y1="156.4375" y2="536.0625"/><rect fill="#E2E2F0" height="49.2188" rx="2.5" ry="2.5" style="stroke:#181818;stroke-width:0.5;" width="131" x="15" y="106.2188"/><text fill="#000000" font-family="sans-serif" font-size="14" lengthAdjust="spacing" textLength="117" x="22" y="127.752">Steuerungssystem</text><text fill="#000000" font-family="sans-serif" font-size="14" lengthAdjust="spacing" textLength="28" x="66.5" y="145.3613">SM1</text><rect fill="#E2E2F0" height="49.2188" rx="2.5" ry="2.5" style="stroke:#181818;stroke-width:0.5;" width="131" x="15" y="535.0625"/><text fill="#000000" font-family="sans-serif" font-size="14" lengthAdjust="spacing" textLength="117" x="22" y="556.5957">Steuerungssystem</text><text fill="#000000" font-family="sans-serif" font-size="14" lengthAdjust="spacing" textLength="28" x="66.5" y="574.2051">SM1</text><rect fill="#E2E2F0" height="49.2188" rx="2.5" ry="2.5" style="stroke:#181818;stroke-width:0.5;" width="130" x="180.5" y="106.2188"/><text fill="#000000" font-family="sans-serif" font-size="14" lengthAdjust="spacing" textLength="36" x="227.5" y="127.752">ExcH-</text><text fill="#000000" font-family="sans-serif" font-size="14" lengthAdjust="spacing" textLength="116" x="187.5" y="145.3613">Laufzeitumgebung</text><rect fill="#E2E2F0" height="49.2188" rx="2.5" ry="2.5" style="stroke:#181818;stroke-width:0.5;" width="130" x="180.5" y="535.0625"/><text fill="#000000" font-family="sans-serif" font-size="14" lengthAdjust="spacing" textLength="36" x="227.5" y="556.5957">ExcH-</text><text fill="#000000" font-family="sans-serif" font-size="14" lengthAdjust="spacing" textLength="116" x="187.5" y="574.2051">Laufzeitumgebung</text><text fill="#000000" font-family="sans-serif" font-size="14" lengthAdjust="spacing" textLength="43" x="385" y="135.752">FMEA-</text><text fill="#000000" font-family="sans-serif" font-size="14" lengthAdjust="spacing" textLength="90" x="361.5" y="153.3613">Wissensgraph</text><path d="M391.5,85.2188 C391.5,75.2188 409.5,75.2188 409.5,75.2188 C409.5,75.2188 427.5,75.2188 427.5,85.2188 L427.5,111.2188 C427.5,121.2188 409.5,121.2188 409.5,121.2188 C409.5,121.2188 391.5,121.2188 391.5,111.2188 L391.5,85.2188 " fill="#E2E2F0" style="stroke:#181818;stroke-width:1.5;"/><path d="M391.5,85.2188 C391.5,95.2188 409.5,95.2188 409.5,95.2188 C409.5,95.2188 427.5,95.2188 427.5,85.2188 " fill="none" style="stroke:#181818;stroke-width:1.5;"/><text fill="#000000" font-family="sans-serif" font-size="14" lengthAdjust="spacing" textLength="43" x="385" y="549.5957">FMEA-</text><text fill="#000000" font-family="sans-serif" font-size="14" lengthAdjust="spacing" textLength="90" x="361.5" y="567.2051">Wissensgraph</text><path d="M391.5,580.2813 C391.5,570.2813 409.5,570.2813 409.5,570.2813 C409.5,570.2813 427.5,570.2813 427.5,580.2813 L427.5,606.2813 C427.5,616.2813 409.5,616.2813 409.5,616.2813 C409.5,616.2813 391.5,616.2813 391.5,606.2813 L391.5,580.2813 " fill="#E2E2F0" style="stroke:#181818;stroke-width:1.5;"/><path d="M391.5,580.2813 C391.5,590.2813 409.5,590.2813 409.5,590.2813 C409.5,590.2813 427.5,590.2813 427.5,580.2813 " fill="none" style="stroke:#181818;stroke-width:1.5;"/><rect fill="#E2E2F0" height="66.8281" rx="2.5" ry="2.5" style="stroke:#181818;stroke-width:0.5;" width="109" x="477.5" y="88.6094"/><text fill="#000000" font-family="sans-serif" font-size="14" lengthAdjust="spacing" textLength="95" x="484.5" y="110.1426">Unterst&#252;tzende</text><text fill="#000000" font-family="sans-serif" font-size="14" lengthAdjust="spacing" textLength="68" x="498" y="127.752">Ressource</text><text fill="#000000" font-family="sans-serif" font-size="14" lengthAdjust="spacing" textLength="39" x="512.5" y="145.3613">(VSG)</text><rect fill="#E2E2F0" height="66.8281" rx="2.5" ry="2.5" style="stroke:#181818;stroke-width:0.5;" width="109" x="477.5" y="535.0625"/><text fill="#000000" font-family="sans-serif" font-size="14" lengthAdjust="spacing" textLength="95" x="484.5" y="556.5957">Unterst&#252;tzende</text><text fill="#000000" font-family="sans-serif" font-size="14" lengthAdjust="spacing" textLength="68" x="498" y="574.2051">Ressource</text><text fill="#000000" font-family="sans-serif" font-size="14" lengthAdjust="spacing" textLength="39" x="512.5" y="591.8145">(VSG)</text><text fill="#000000" font-family="sans-serif" font-size="14" lengthAdjust="spacing" textLength="59" x="606.5" y="135.752">Nutzende</text><text fill="#000000" font-family="sans-serif" font-size="14" lengthAdjust="spacing" textLength="44" x="614" y="153.3613">Instanz</text><ellipse cx="639" cy="69.7188" fill="#E2E2F0" rx="8" ry="8" style="stroke:#181818;stroke-width:0.5;"/><path d="M639,77.7188 L639,104.7188 M626,85.7188 L652,85.7188 M639,104.7188 L626,119.7188 M639,104.7188 L652,119.7188 " fill="none" style="stroke:#181818;stroke-width:0.5;"/><text fill="#000000" font-family="sans-serif" font-size="14" lengthAdjust="spacing" textLength="59" x="606.5" y="549.5957">Nutzende</text><text fill="#000000" font-family="sans-serif" font-size="14" lengthAdjust="spacing" textLength="44" x="614" y="567.2051">Instanz</text><ellipse cx="639" cy="578.7813" fill="#E2E2F0" rx="8" ry="8" style="stroke:#181818;stroke-width:0.5;"/><path d="M639,586.7813 L639,613.7813 M626,594.7813 L652,594.7813 M639,613.7813 L626,628.7813 M639,613.7813 L652,628.7813 " fill="none" style="stroke:#181818;stroke-width:0.5;"/><polygon fill="#181818" points="233.5,201.1406,243.5,205.1406,233.5,209.1406,237.5,205.1406" style="stroke:#181818;stroke-width:1.0;"/><line style="stroke:#181818;stroke-width:1.0;" x1="80.5" x2="239.5" y1="205.1406" y2="205.1406"/><text fill="#000000" font-family="sans-serif" font-size="13" lengthAdjust="spacing" textLength="36" x="87.5" y="183.9326">Fehler</text><text fill="#000000" font-family="sans-serif" font-size="13" lengthAdjust="spacing" textLength="4" x="123.5" y="183.9326">&#160;</text><text fill="#000000" font-family="sans-serif" font-size="13" lengthAdjust="spacing" textLength="43" x="127.5" y="183.9326">erkannt</text><text fill="#000000" font-family="sans-serif" font-size="13" lengthAdjust="spacing" textLength="4" x="170.5" y="183.9326">&#160;</text><text fill="#000000" font-family="sans-serif" font-size="13" lengthAdjust="spacing" textLength="21" x="174.5" y="183.9326">und</text><text fill="#000000" font-family="sans-serif" font-size="13" lengthAdjust="spacing" textLength="68" x="87.5" y="200.2842">Fehlerdaten</text><text fill="#000000" font-family="sans-serif" font-size="13" lengthAdjust="spacing" textLength="4" x="155.5" y="200.2842">&#160;</text><text fill="#000000" font-family="sans-serif" font-size="13" lengthAdjust="spacing" textLength="42" x="159.5" y="200.2842">senden</text><polygon fill="#181818" points="397.5,247.8438,407.5,251.8438,397.5,255.8438,401.5,251.8438" style="stroke:#181818;stroke-width:1.0;"/><line style="stroke:#181818;stroke-width:1.0;" x1="245.5" x2="403.5" y1="251.8438" y2="251.8438"/><text fill="#000000" font-family="sans-serif" font-size="13" lengthAdjust="spacing" textLength="62" x="252.5" y="230.6357">Bedeutung</text><text fill="#000000" font-family="sans-serif" font-size="13" lengthAdjust="spacing" textLength="4" x="314.5" y="230.6357">&#160;</text><text fill="#000000" font-family="sans-serif" font-size="13" lengthAdjust="spacing" textLength="21" x="318.5" y="230.6357">und</text><text fill="#000000" font-family="sans-serif" font-size="13" lengthAdjust="spacing" textLength="68" x="252.5" y="246.9873">Behandlung</text><text fill="#000000" font-family="sans-serif" font-size="13" lengthAdjust="spacing" textLength="4" x="320.5" y="246.9873">&#160;</text><text fill="#000000" font-family="sans-serif" font-size="13" lengthAdjust="spacing" textLength="49" x="324.5" y="246.9873">abfragen</text><polygon fill="#181818" points="256.5,310.8984,246.5,314.8984,256.5,318.8984,252.5,314.8984" style="stroke:#181818;stroke-width:1.0;"/><line style="stroke:#181818;stroke-width:1.0;stroke-dasharray:2.0,2.0;" x1="250.5" x2="408.5" y1="314.8984" y2="314.8984"/><text fill="#000000" font-family="sans-serif" font-size="13" lengthAdjust="spacing" textLength="99" x="262.5" y="277.3389">Behandlungsplan</text><text fill="#000000" font-family="sans-serif" font-size="13" lengthAdjust="spacing" textLength="4" x="361.5" y="277.3389">&#160;</text><text fill="#000000" font-family="sans-serif" font-size="13" lengthAdjust="spacing" textLength="28" x="365.5" y="277.3389">ohne</text><text fill="#000000" font-family="sans-serif" font-size="13" lengthAdjust="spacing" textLength="56" x="262.5" y="293.6904">Sperrung,</text><text fill="#000000" font-family="sans-serif" font-size="13" lengthAdjust="spacing" textLength="4" x="318.5" y="293.6904">&#160;</text><text fill="#000000" font-family="sans-serif" font-size="13" lengthAdjust="spacing" textLength="27" x="322.5" y="293.6904">SM1</text><text fill="#000000" font-family="sans-serif" font-size="13" lengthAdjust="spacing" textLength="4" x="349.5" y="293.6904">&#160;</text><text fill="#000000" font-family="sans-serif" font-size="13" lengthAdjust="spacing" textLength="18" x="353.5" y="293.6904">hat</text><text fill="#000000" font-family="sans-serif" font-size="13" lengthAdjust="spacing" textLength="4" x="371.5" y="293.6904">&#160;</text><text fill="#000000" font-family="sans-serif" font-size="13" lengthAdjust="spacing" textLength="27" x="375.5" y="293.6904">alles</text><text fill="#000000" font-family="sans-serif" font-size="13" lengthAdjust="spacing" textLength="35" x="262.5" y="310.042">richtig</text><text fill="#000000" font-family="sans-serif" font-size="13" lengthAdjust="spacing" textLength="4" x="297.5" y="310.042">&#160;</text><text fill="#000000" font-family="sans-serif" font-size="13" lengthAdjust="spacing" textLength="50" x="301.5" y="310.042">gemacht</text><polygon fill="#181818" points="520,357.6016,530,361.6016,520,365.6016,524,361.6016" style="stroke:#181818;stroke-width:1.0;"/><line style="stroke:#181818;stroke-width:1.0;" x1="245.5" x2="526" y1="361.6016" y2="361.6016"/><text fill="#000000" font-family="sans-serif" font-size="13" lengthAdjust="spacing" textLength="123" x="252.5" y="340.3936">Ausschuss-Transport</text><text fill="#000000" font-family="sans-serif" font-size="13" lengthAdjust="spacing" textLength="56" x="252.5" y="356.7451">ausf&#252;hren</text><polygon fill="#181818" points="256.5,387.9531,246.5,391.9531,256.5,395.9531,252.5,391.9531" style="stroke:#181818;stroke-width:1.0;"/><line style="stroke:#181818;stroke-width:1.0;stroke-dasharray:2.0,2.0;" x1="250.5" x2="531" y1="391.9531" y2="391.9531"/><text fill="#000000" font-family="sans-serif" font-size="13" lengthAdjust="spacing" textLength="63" x="262.5" y="387.0967">Werkst&#252;ck</text><text fill="#000000" font-family="sans-serif" font-size="13" lengthAdjust="spacing" textLength="4" x="325.5" y="387.0967">&#160;</text><text fill="#000000" font-family="sans-serif" font-size="13" lengthAdjust="spacing" textLength="43" x="329.5" y="387.0967">entfernt</text><polygon fill="#181818" points="91.5,434.6563,81.5,438.6563,91.5,442.6563,87.5,438.6563" style="stroke:#181818;stroke-width:1.0;"/><line style="stroke:#181818;stroke-width:1.0;" x1="85.5" x2="244.5" y1="438.6563" y2="438.6563"/><text fill="#000000" font-family="sans-serif" font-size="13" lengthAdjust="spacing" textLength="62" x="97.5" y="417.4482">Ressource</text><text fill="#000000" font-family="sans-serif" font-size="13" lengthAdjust="spacing" textLength="4" x="159.5" y="417.4482">&#160;</text><text fill="#000000" font-family="sans-serif" font-size="13" lengthAdjust="spacing" textLength="14" x="163.5" y="417.4482">f&#252;r</text><text fill="#000000" font-family="sans-serif" font-size="13" lengthAdjust="spacing" textLength="85" x="97.5" y="433.7998">Folgeprozesse</text><text fill="#000000" font-family="sans-serif" font-size="13" lengthAdjust="spacing" textLength="4" x="182.5" y="433.7998">&#160;</text><text fill="#000000" font-family="sans-serif" font-size="13" lengthAdjust="spacing" textLength="52" x="186.5" y="433.7998">freigeben</text><polygon fill="#181818" points="627,514.0625,637,518.0625,627,522.0625,631,518.0625" style="stroke:#181818;stroke-width:1.0;"/><line style="stroke:#181818;stroke-width:1.0;stroke-dasharray:2.0,2.0;" x1="245.5" x2="633" y1="518.0625" y2="518.0625"/><text fill="#000000" font-family="sans-serif" font-size="13" lengthAdjust="spacing" textLength="96" x="252.5" y="464.1514">Abgeschlossene</text><text fill="#000000" font-family="sans-serif" font-size="13" lengthAdjust="spacing" textLength="68" x="252.5" y="480.5029">Behandlung</text><text fill="#000000" font-family="sans-serif" font-size="13" lengthAdjust="spacing" textLength="4" x="320.5" y="480.5029">&#160;</text><text fill="#000000" font-family="sans-serif" font-size="13" lengthAdjust="spacing" textLength="28" x="324.5" y="480.5029">ohne</text><text fill="#000000" font-family="sans-serif" font-size="13" lengthAdjust="spacing" textLength="52" x="252.5" y="496.8545">Sperrung</text><text fill="#000000" font-family="sans-serif" font-size="13" lengthAdjust="spacing" textLength="4" x="304.5" y="496.8545">&#160;</text><text fill="#000000" font-family="sans-serif" font-size="13" lengthAdjust="spacing" textLength="21" x="308.5" y="496.8545">und</text><text fill="#000000" font-family="sans-serif" font-size="13" lengthAdjust="spacing" textLength="77" x="252.5" y="513.2061">Materialfehler</text><text fill="#000000" font-family="sans-serif" font-size="13" lengthAdjust="spacing" textLength="4" x="329.5" y="513.2061">&#160;</text><text fill="#000000" font-family="sans-serif" font-size="13" lengthAdjust="spacing" textLength="42" x="333.5" y="513.2061">melden</text><!--SRC=[LL7BRjim4BppAnO-jK0Cn2XwyQ50NCHkuRerJBkv62ZMqaeYJAs49Occ-hRSycDToO_45u7YpivmPiBHSOk2DTJulA8Gi2JhEeB9vtiJhiCrIdIPQv7Z6lFSSGcJUsEYYvvWz_NFvjCKvbHv4ZXGXPoJvpjeAYR87S56YPia6UsvU7qH-4ikaX2ifUbqHD0b22s941lJlcd1o4PA98dB4Fw5IFMUxMeo0WnWjxV8n-VistZFFp0LdTAdkgI3xWtOpTRa6F60AZMQhnuV5FZaL9X3ATXM0sYvk2NSiRunnDUNs94QslCx5nz-syN74_MlcS4iDWAZd-c2_CuX8dS3O6UDiLiOVz5NN4CYEIAhIEByVANl8uRGxxFP3FZbOWepoYb5zJ50PqEsll_5Go7Q5Plb0iPdyhTnQ3toAN_RvwfNTw39GOKHq7iA82wheYkXf1hrTDPKErDuI25abNx6Mq4ERIEwb89ML_KDAUOg-QHE-eoo8n37WeGlJ5QdryHWg7tU-9BQI-U5aDEEpdPrOsTL-b2IQlkcBuVU6xunCwInqiZ4eIzEcTRaDRl_]--></g></svg>