<?xml version="1.0" encoding="us-ascii" standalone="no"?><svg xmlns="http://www.w3.org/2000/svg" xmlns:xlink="http://www.w3.org/1999/xlink" contentStyleType="text/css" height="559px" preserveAspectRatio="none" style="width:530px;height:559px;background:#FFFFFF;" version="1.1" viewBox="0 0 530 559" width="530px" zoomAndPan="magnify"><defs/><g><!--cluster Exception-Handling-Agent--><g id="cluster_Exception-Handling-Agent"><rect fill="none" height="441" rx="2.5" ry="2.5" style="stroke:#181818;stroke-width:1.0;" width="284" x="240" y="7"/><text fill="#000000" font-family="sans-serif" font-size="14" font-weight="bold" lengthAdjust="spacing" textLength="183" x="290.5" y="23.5332">Exception-Handling-Agent</text></g><g id="elem_UC4"><ellipse cx="381.93" cy="282.8551" fill="#F1F1F1" rx="115.43" ry="40.3551" style="stroke:#181818;stroke-width:0.5;"/><text fill="#000000" font-family="sans-serif" font-size="14" lengthAdjust="spacing" textLength="104" x="329.93" y="268.9743">Fragen aus dem</text><text fill="#000000" font-family="sans-serif" font-size="14" lengthAdjust="spacing" textLength="147" x="308.43" y="286.5836">FMEA-Wissensbestand</text><text fill="#000000" font-family="sans-serif" font-size="14" lengthAdjust="spacing" textLength="78" x="342.93" y="304.193">beantworten</text></g><g id="elem_UC4a"><ellipse cx="381.8295" cy="70.9034" fill="#F1F1F1" rx="125.3295" ry="27.9034" style="stroke:#181818;stroke-width:0.5;"/><text fill="#000000" font-family="sans-serif" font-size="14" lengthAdjust="spacing" textLength="117" x="323.3295" y="65.8272">Nat&#252;rlichsprachige</text><text fill="#000000" font-family="sans-serif" font-size="14" lengthAdjust="spacing" textLength="161" x="301.3295" y="83.4366">Fragen entgegennehmen</text></g><g id="elem_UC4b"><ellipse cx="382.0366" cy="403.9034" fill="#F1F1F1" rx="126.0366" ry="27.9034" style="stroke:#181818;stroke-width:0.5;"/><text fill="#000000" font-family="sans-serif" font-size="14" lengthAdjust="spacing" textLength="98" x="333.0366" y="398.8272">Fragen auf den</text><text fill="#000000" font-family="sans-serif" font-size="14" lengthAdjust="spacing" textLength="162" x="301.0366" y="416.4366">Wissensbestand abbilden</text></g><g id="elem_UC4c"><ellipse cx="381.9655" cy="161.9034" fill="#F1F1F1" rx="118.9655" ry="27.9034" style="stroke:#181818;stroke-width:0.5;"/><text fill="#000000" font-family="sans-serif" font-size="14" lengthAdjust="spacing" textLength="123" x="320.4655" y="156.8272">Ergebnisse fachlich</text><text fill="#000000" font-family="sans-serif" font-size="14" lengthAdjust="spacing" textLength="152" x="305.9655" y="174.4366">verst&#228;ndlich aufbereiten</text></g><!--entity FMEA--><g id="elem_FMEA"><ellipse cx="71.5" cy="141.5" fill="#F1F1F1" rx="8" ry="8" style="stroke:#181818;stroke-width:0.5;"/><path d="M71.5,149.5 L71.5,176.5 M58.5,157.5 L84.5,157.5 M71.5,176.5 L58.5,191.5 M71.5,176.5 L84.5,191.5 " fill="none" style="stroke:#181818;stroke-width:0.5;"/><text fill="#000000" font-family="sans-serif" font-size="14" lengthAdjust="spacing" textLength="79" x="32" y="207.5332">FMEA-Team</text></g><!--entity PE--><g id="elem_PE"><ellipse cx="71.5" cy="254.5" fill="#F1F1F1" rx="8" ry="8" style="stroke:#181818;stroke-width:0.5;"/><path d="M71.5,262.5 L71.5,289.5 M58.5,270.5 L84.5,270.5 M71.5,289.5 L58.5,304.5 M71.5,289.5 L84.5,304.5 " fill="none" style="stroke:#181818;stroke-width:0.5;"/><text fill="#000000" font-family="sans-serif" font-size="14" lengthAdjust="spacing" textLength="109" x="17" y="320.5332">Prozessingenieur</text></g><!--entity KG--><g id="elem_KG"><ellipse cx="71.5" cy="371.5" fill="#F1F1F1" rx="8" ry="8" style="stroke:#181818;stroke-width:0.5;"/><path d="M71.5,379.5 L71.5,406.5 M58.5,387.5 L84.5,387.5 M71.5,406.5 L58.5,421.5 M71.5,406.5 L84.5,421.5 " fill="none" style="stroke:#181818;stroke-width:0.5;"/><text fill="#000000" font-family="sans-serif" font-size="14" lengthAdjust="spacing" textLength="90" x="26.5" y="437.5332">Wissensgraph</text></g><!--entity DOC--><g id="elem_DOC"><ellipse cx="71.5" cy="484.5" fill="#F1F1F1" rx="8" ry="8" style="stroke:#181818;stroke-width:0.5;"/><path d="M71.5,492.5 L71.5,519.5 M58.5,500.5 L84.5,500.5 M71.5,519.5 L58.5,534.5 M71.5,519.5 L84.5,534.5 " fill="none" style="stroke:#181818;stroke-width:0.5;"/><text fill="#000000" font-family="sans-serif" font-size="14" lengthAdjust="spacing" textLength="131" x="6" y="550.5332">Dokumentenbestand</text></g><!--link FMEA to UC4--><g id="link_FMEA_UC4"><path d="M111.26,185.95 C158.51,202.95 233.9544,230.0884 294.9244,252.0284 " fill="none" id="FMEA-to-UC4" style="stroke:#181818;stroke-width:1.0;"/><polygon fill="#181818" points="300.57,254.06,293.456,247.2489,295.8653,252.367,290.7472,254.7764,300.57,254.06" style="stroke:#181818;stroke-width:1.0;"/></g><!--link PE to UC4--><g id="link_PE_UC4"><path d="M126.24,284.65 C164.82,284.4 212.2601,284.1 260.2401,283.78 " fill="none" id="PE-to-UC4" style="stroke:#181818;stroke-width:1.0;"/><polygon fill="#181818" points="266.24,283.74,257.2135,279.8001,261.2401,283.7733,257.2669,287.7999,266.24,283.74" style="stroke:#181818;stroke-width:1.0;"/></g><!--link KG to UC4b--><g id="link_KG_UC4b"><path d="M116.7,402.29 C153.1,402.52 200.5701,402.8311 249.9101,403.1511 " fill="none" id="KG-to-UC4b" style="stroke:#181818;stroke-width:1.0;"/><polygon fill="#181818" points="255.91,403.19,246.9361,399.1317,250.9101,403.1576,246.8842,407.1315,255.91,403.19" style="stroke:#181818;stroke-width:1.0;"/></g><!--link DOC to UC4b--><g id="link_DOC_UC4b"><path d="M137.17,491.73 C189.29,472.98 256.6544,448.7416 309.1744,429.8416 " fill="none" id="DOC-to-UC4b" style="stroke:#181818;stroke-width:1.0;"/><polygon fill="#181818" points="314.82,427.81,304.9972,427.0937,310.1154,429.503,307.7061,434.6212,314.82,427.81" style="stroke:#181818;stroke-width:1.0;"/></g><!--link UC4 to UC4a--><g id="link_UC4_UC4a"><path d="M305.59,252.46 C237.53,220.79 154.87,168.37 198,114 C213.19,94.85 229.3631,84.9007 252.8231,78.0107 " fill="none" id="UC4-to-UC4a" style="stroke:#181818;stroke-width:1.0;stroke-dasharray:7.0,7.0;"/><polygon fill="#181818" points="258.58,76.32,248.8176,75.0182,253.7826,77.7289,251.0719,82.694,258.58,76.32" style="stroke:#181818;stroke-width:1.0;"/><text fill="#000000" font-family="sans-serif" font-size="13" lengthAdjust="spacing" textLength="55" x="168" y="128.4951">&#171;include&#187;</text></g><!--link UC4 to UC4b--><g id="link_UC4_UC4b"><path d="M382,323.75 C382,340.91 382,354.44 382,369.94 " fill="none" id="UC4-to-UC4b" style="stroke:#181818;stroke-width:1.0;stroke-dasharray:7.0,7.0;"/><polygon fill="#181818" points="382,375.94,386,366.94,382,370.94,378,366.94,382,375.94" style="stroke:#181818;stroke-width:1.0;"/><text fill="#000000" font-family="sans-serif" font-size="13" lengthAdjust="spacing" textLength="55" x="342.5" y="355.2451">&#171;include&#187;</text></g><!--link UC4 to UC4c--><g id="link_UC4_UC4c"><path d="M382,242.37 C382,225.21 382,211.64 382,196.12 " fill="none" id="UC4-to-UC4c" style="stroke:#181818;stroke-width:1.0;stroke-dasharray:7.0,7.0;"/><polygon fill="#181818" points="382,190.12,378,199.12,382,195.12,386,199.12,382,190.12" style="stroke:#181818;stroke-width:1.0;"/><text fill="#000000" font-family="sans-serif" font-size="13" lengthAdjust="spacing" textLength="55" x="342.5" y="221.7451">&#171;include&#187;</text></g><!--SRC=[TL1BJiCm4Dtx5AFimueLgYfLRLga2gW4Y4qs4sVgM7KcaUrGFk8s78DTBuOT6ffAiB5czERzR6ZhmJTWjQeybDgIzBfXuNQQMxHOGujoXuhk_QiXY32oCZGwS1MMpLwpWYqQHqAWz8s5P7cJpT87mZe1T12t0TdOvesS2nHYJPtj3pRP03zfvuYTijXMFRHU3T2YsNKriISko8KaPOylxkP2_4Q397kHrCOQwNKuCS4ddGKhdy2x0EWSINJXR6b3BmRi79HKvzm7FfeVvVFWW-ptZGsMlTVZ_7AiSOl-y6MDbfLhBSfAAmf2FyB1KL4OcAhwnCO_8sn31Cxvt1smABGfJznYpCsiee8Z8Noyh6A6d9_9Ed_uZArb5NKBigH7uQNu428sXJITzcqssU-uNWrZ8SAddXOHNhZe5uGhc4mqIzELD9sEaE9VH9uZtm00]--></g></svg>