<?xml version="1.0" encoding="us-ascii" standalone="no"?><svg xmlns="http://www.w3.org/2000/svg" xmlns:xlink="http://www.w3.org/1999/xlink" contentStyleType="text/css" height="592px" preserveAspectRatio="none" style="width:616px;height:592px;background:#FFFFFF;" version="1.1" viewBox="0 0 616 592" width="616px" zoomAndPan="magnify"><defs/><g><!--cluster Exception-Handling-Agent--><g id="cluster_Exception-Handling-Agent"><rect fill="none" height="471" rx="2.5" ry="2.5" style="stroke:#181818;stroke-width:1.0;" width="375" x="235" y="7"/><text fill="#000000" font-family="sans-serif" font-size="14" font-weight="bold" lengthAdjust="spacing" textLength="183" x="331" y="23.5332">Exception-Handling-Agent</text></g><g id="elem_UC1"><ellipse cx="422.7451" cy="322.949" fill="#F1F1F1" rx="137.7451" ry="29.949" style="stroke:#181818;stroke-width:0.5;"/><text fill="#000000" font-family="sans-serif" font-size="14" lengthAdjust="spacing" textLength="136" x="354.7451" y="317.8729">Ausnahmewissen aus</text><text fill="#000000" font-family="sans-serif" font-size="14" lengthAdjust="spacing" textLength="192" x="326.7451" y="335.4822">FMEA-Artefakten strukturieren</text></g><g id="elem_UC1a"><ellipse cx="422.4802" cy="433.9034" fill="#F1F1F1" rx="110.4802" ry="27.9034" style="stroke:#181818;stroke-width:0.5;"/><text fill="#000000" font-family="sans-serif" font-size="14" lengthAdjust="spacing" textLength="113" x="365.9802" y="428.8272">Informationen aus</text><text fill="#000000" font-family="sans-serif" font-size="14" lengthAdjust="spacing" textLength="140" x="352.4802" y="446.4366">Artefakten extrahieren</text></g><g id="elem_UC1b"><ellipse cx="422.2914" cy="83.8551" fill="#F1F1F1" rx="171.2914" ry="40.3551" style="stroke:#181818;stroke-width:0.5;"/><text fill="#000000" font-family="sans-serif" font-size="14" lengthAdjust="spacing" textLength="143" x="350.7914" y="69.9743">Fehlermodi, Ursachen,</text><text fill="#000000" font-family="sans-serif" font-size="14" lengthAdjust="spacing" textLength="226" x="309.2914" y="87.5836">Wirkungen, Monitoring-Ma&#223;nahmen</text><text fill="#000000" font-family="sans-serif" font-size="14" lengthAdjust="spacing" textLength="188" x="328.2914" y="105.193">und Reaktionen konsolidieren</text></g><g id="elem_UC1c"><ellipse cx="422.3442" cy="199.8551" fill="#F1F1F1" rx="116.8442" ry="40.3551" style="stroke:#181818;stroke-width:0.5;"/><text fill="#000000" font-family="sans-serif" font-size="14" lengthAdjust="spacing" textLength="149" x="347.8442" y="185.9743">Konsistente Struktur f&#252;r</text><text fill="#000000" font-family="sans-serif" font-size="14" lengthAdjust="spacing" textLength="126" x="359.3442" y="203.5836">sp&#228;tere maschinelle</text><text fill="#000000" font-family="sans-serif" font-size="14" lengthAdjust="spacing" textLength="137" x="353.8442" y="221.193">Auswertung erzeugen</text></g><!--entity FMEA--><g id="elem_FMEA"><ellipse cx="69" cy="178.5" fill="#F1F1F1" rx="8" ry="8" style="stroke:#181818;stroke-width:0.5;"/><path d="M69,186.5 L69,213.5 M56,194.5 L82,194.5 M69,213.5 L56,228.5 M69,213.5 L82,228.5 " fill="none" style="stroke:#181818;stroke-width:0.5;"/><text fill="#000000" font-family="sans-serif" font-size="14" lengthAdjust="spacing" textLength="79" x="29.5" y="244.5332">FMEA-Team</text></g><!--entity PE--><g id="elem_PE"><ellipse cx="69" cy="291.5" fill="#F1F1F1" rx="8" ry="8" style="stroke:#181818;stroke-width:0.5;"/><path d="M69,299.5 L69,326.5 M56,307.5 L82,307.5 M69,326.5 L56,341.5 M69,326.5 L82,341.5 " fill="none" style="stroke:#181818;stroke-width:0.5;"/><text fill="#000000" font-family="sans-serif" font-size="14" lengthAdjust="spacing" textLength="109" x="14.5" y="357.5332">Prozessingenieur</text></g><!--entity DOC--><g id="elem_DOC"><ellipse cx="69" cy="404.5" fill="#F1F1F1" rx="8" ry="8" style="stroke:#181818;stroke-width:0.5;"/><path d="M69,412.5 L69,439.5 M56,420.5 L82,420.5 M69,439.5 L56,454.5 M69,439.5 L82,454.5 " fill="none" style="stroke:#181818;stroke-width:0.5;"/><text fill="#000000" font-family="sans-serif" font-size="14" lengthAdjust="spacing" textLength="126" x="6" y="470.5332">Dokumentenquellen</text></g><!--entity ART--><g id="elem_ART"><ellipse cx="69" cy="517.5" fill="#F1F1F1" rx="8" ry="8" style="stroke:#181818;stroke-width:0.5;"/><path d="M69,525.5 L69,552.5 M56,533.5 L82,533.5 M69,552.5 L56,567.5 M69,552.5 L82,567.5 " fill="none" style="stroke:#181818;stroke-width:0.5;"/><text fill="#000000" font-family="sans-serif" font-size="14" lengthAdjust="spacing" textLength="100" x="19" y="583.5332">FMEA-Artefakte</text></g><!--link FMEA to UC1--><g id="link_FMEA_UC1"><path d="M108.62,221.53 C165.25,239.89 266.2526,272.6492 339.1526,296.2892 " fill="none" id="FMEA-to-UC1" style="stroke:#181818;stroke-width:1.0;"/><polygon fill="#181818" points="344.86,298.14,337.5327,291.5589,340.1038,296.5977,335.065,299.1687,344.86,298.14" style="stroke:#181818;stroke-width:1.0;"/></g><!--link PE to UC1--><g id="link_PE_UC1"><path d="M123.77,322.15 C166.65,322.27 222.66,322.433 279,322.593 " fill="none" id="PE-to-UC1" style="stroke:#181818;stroke-width:1.0;"/><polygon fill="#181818" points="285,322.61,276.0114,318.5845,280,322.5958,275.9887,326.5844,285,322.61" style="stroke:#181818;stroke-width:1.0;"/></g><!--link DOC to UC1a--><g id="link_DOC_UC1a"><path d="M132.03,434.82 C181.7,434.68 246.6,434.4972 305.8,434.3272 " fill="none" id="DOC-to-UC1a" style="stroke:#181818;stroke-width:1.0;"/><polygon fill="#181818" points="311.8,434.31,302.7886,430.3359,306.8,434.3244,302.8115,438.3358,311.8,434.31" style="stroke:#181818;stroke-width:1.0;"/></g><!--link ART to UC1a--><g id="link_ART_UC1a"><path d="M119.24,532.03 C180.37,512.21 279.2127,480.1512 347.9027,457.8712 " fill="none" id="ART-to-UC1a" style="stroke:#181818;stroke-width:1.0;"/><polygon fill="#181818" points="353.61,456.02,343.8149,454.9919,348.8539,457.5627,346.2832,462.6016,353.61,456.02" style="stroke:#181818;stroke-width:1.0;"/></g><!--link UC1 to UC1a--><g id="link_UC1_UC1a"><path d="M422.5,353.34 C422.5,369.77 422.5,383.93 422.5,399.99 " fill="none" id="UC1-to-UC1a" style="stroke:#181818;stroke-width:1.0;stroke-dasharray:7.0,7.0;"/><polygon fill="#181818" points="422.5,405.99,426.5,396.99,422.5,400.99,418.5,396.99,422.5,405.99" style="stroke:#181818;stroke-width:1.0;"/><text fill="#000000" font-family="sans-serif" font-size="13" lengthAdjust="spacing" textLength="55" x="383" y="384.9951">&#171;include&#187;</text></g><!--link UC1 to UC1b--><g id="link_UC1_UC1b"><path d="M310.15,305.55 C279.77,295.95 249.2,281.07 227,258 C191.8,221.42 169.38,187.5 200,147 C216.59,125.06 234.6215,112.4918 260.3515,102.7118 " fill="none" id="UC1-to-UC1b" style="stroke:#181818;stroke-width:1.0;stroke-dasharray:7.0,7.0;"/><polygon fill="#181818" points="265.96,100.58,256.126,100.0387,261.2862,102.3565,258.9684,107.5167,265.96,100.58" style="stroke:#181818;stroke-width:1.0;"/><text fill="#000000" font-family="sans-serif" font-size="13" lengthAdjust="spacing" textLength="55" x="163" y="161.4951">&#171;include&#187;</text></g><!--link UC1 to UC1c--><g id="link_UC1_UC1c"><path d="M422.5,292.91 C422.5,277.26 422.5,263.91 422.5,246.92 " fill="none" id="UC1-to-UC1c" style="stroke:#181818;stroke-width:1.0;stroke-dasharray:7.0,7.0;"/><polygon fill="#181818" points="422.5,240.92,418.5,249.92,422.5,245.92,426.5,249.92,422.5,240.92" style="stroke:#181818;stroke-width:1.0;"/><text fill="#000000" font-family="sans-serif" font-size="13" lengthAdjust="spacing" textLength="55" x="383" y="272.2451">&#171;include&#187;</text></g><!--SRC=[TL7BRjj03BplLn0-MmLwBG83Gk8WGM7Ko0Ez-CAiA6cX5TSbT-4yq6_ffP_Hct-iAoLEf4Ck2nB3cU5mFTKHOW1nJHkXSa8ski16EyTx5EnXZxR3XcxZaoSOOEJ6qsH0Mwp2mN43DNebOz368B2utApBuewmNm0g3Dq9sKfu9jLC8NQKP1pOha_mHUXIJno9VoNoddZ4BtwSpvHBYLHZ5sb4ovixOzwtWyNwqT9-I59S8LS-MnLbTeiBU340IScYvh4oAMFRqy6f4WCctV5SdK6Zf2ucSIHlgzoVVvsAN7CTfCV1xQGneTDZ56ndP9ooBwdr97set1BkHT6snCiT_tJIfU50IzW4TZdta663np_ZmhpZn1NSK3PvzUq2Q_2kcZazJ9s-vmcdSRWitBw5WlhuJtQi- -FVc8dGezhMyN3sd2BfWIJcDO3acLBp8MpDRsE6Iq5HhCQ3RDVlPVwgKuqc_yn7O_8BNruR-0PdPuwjJnMjLXFauLF4pf7_]--></g></svg>