<?xml version="1.0" encoding="us-ascii" standalone="no"?><svg xmlns="http://www.w3.org/2000/svg" xmlns:xlink="http://www.w3.org/1999/xlink" contentStyleType="text/css" height="752px" preserveAspectRatio="none" style="width:825px;height:752px;background:#FFFFFF;" version="1.1" viewBox="0 0 825 752" width="825px" zoomAndPan="magnify"><defs/><g><!--cluster Kontext- und Sitzungs-Komponente--><g id="cluster_Kontext- und Sitzungs-Komponente"><rect fill="none" height="739" rx="2.5" ry="2.5" style="stroke:#000000;stroke-width:1.5;" width="812" x="7" y="7"/><text fill="#000000" font-family="sans-serif" font-size="14" font-weight="bold" lengthAdjust="spacing" textLength="250" x="288" y="23.5332">Kontext- und Sitzungs-Komponente</text></g><!--class RuntimeEvent--><g id="elem_RuntimeEvent"><rect codeLine="9" fill="#F1F1F1" height="76.3125" id="RuntimeEvent" rx="2.5" ry="2.5" style="stroke:#181818;stroke-width:0.5;" width="120" x="598" y="248"/><ellipse cx="613" cy="269.3516" fill="#ADD1B2" rx="11" ry="11" style="stroke:#181818;stroke-width:1.0;"/><path d="M615.7656,265.2266 Q615.9219,265.0078 616.1094,264.8984 Q616.2969,264.7891 616.5156,264.7891 Q616.8906,264.7891 617.125,265.0469 Q617.3594,265.3047 617.3594,265.9141 L617.3594,267.3672 Q617.3594,267.9766 617.125,268.2422 Q616.8906,268.5078 616.5156,268.5078 Q616.1719,268.5078 615.9688,268.3047 Q615.7656,268.1172 615.6563,267.6016 Q615.6094,267.2422 615.4219,267.0547 Q615.0938,266.6797 614.4844,266.4609 Q613.875,266.2422 613.25,266.2422 Q612.4844,266.2422 611.8516,266.5703 Q611.2188,266.8984 610.7266,267.6484 Q610.2344,268.3984 610.2344,269.4297 L610.2344,270.5234 Q610.2344,271.7578 611.125,272.5781 Q612.0156,273.3984 613.6094,273.3984 Q614.5469,273.3984 615.2031,273.1484 Q615.5938,272.9922 616.0156,272.5547 Q616.2813,272.2891 616.4297,272.2109 Q616.5781,272.1328 616.7813,272.1328 Q617.1094,272.1328 617.3672,272.3906 Q617.625,272.6484 617.625,272.9922 Q617.625,273.3359 617.2813,273.7422 Q616.7813,274.3203 615.9844,274.6484 Q614.9063,275.1016 613.6094,275.1016 Q612.0938,275.1016 610.8906,274.4766 Q609.9063,273.9766 609.2188,272.9063 Q608.5313,271.8359 608.5313,270.5547 L608.5313,269.3984 Q608.5313,268.0703 609.1484,266.9219 Q609.7656,265.7734 610.8594,265.1563 Q611.9531,264.5391 613.1875,264.5391 Q613.9219,264.5391 614.5703,264.7031 Q615.2188,264.8672 615.7656,265.2266 Z " fill="#000000"/><text fill="#000000" font-family="sans-serif" font-size="12" font-style="italic" lengthAdjust="spacing" textLength="41" x="650.5" y="265.457">&#171;input&#187;</text><text fill="#000000" font-family="sans-serif" font-size="14" lengthAdjust="spacing" textLength="88" x="627" y="282.627">RuntimeEvent</text><line style="stroke:#181818;stroke-width:0.5;" x1="599" x2="717" y1="290.7031" y2="290.7031"/><text fill="#000000" font-family="sans-serif" font-size="14" lengthAdjust="spacing" textLength="88" x="604" y="309.2363">+payload: dict</text><line style="stroke:#181818;stroke-width:0.5;" x1="599" x2="717" y1="316.3125" y2="316.3125"/></g><!--class ContextAssembler--><g id="elem_ContextAssembler"><rect codeLine="13" fill="#F1F1F1" height="65.6094" id="ContextAssembler" rx="2.5" ry="2.5" style="stroke:#181818;stroke-width:0.5;" width="337" x="465.5" y="51.5"/><ellipse cx="572.75" cy="67.5" fill="#ADD1B2" rx="11" ry="11" style="stroke:#181818;stroke-width:1.0;"/><path d="M575.5156,63.375 Q575.6719,63.1563 575.8594,63.0469 Q576.0469,62.9375 576.2656,62.9375 Q576.6406,62.9375 576.875,63.1953 Q577.1094,63.4531 577.1094,64.0625 L577.1094,65.5156 Q577.1094,66.125 576.875,66.3906 Q576.6406,66.6563 576.2656,66.6563 Q575.9219,66.6563 575.7188,66.4531 Q575.5156,66.2656 575.4063,65.75 Q575.3594,65.3906 575.1719,65.2031 Q574.8438,64.8281 574.2344,64.6094 Q573.625,64.3906 573,64.3906 Q572.2344,64.3906 571.6016,64.7188 Q570.9688,65.0469 570.4766,65.7969 Q569.9844,66.5469 569.9844,67.5781 L569.9844,68.6719 Q569.9844,69.9063 570.875,70.7266 Q571.7656,71.5469 573.3594,71.5469 Q574.2969,71.5469 574.9531,71.2969 Q575.3438,71.1406 575.7656,70.7031 Q576.0313,70.4375 576.1797,70.3594 Q576.3281,70.2813 576.5313,70.2813 Q576.8594,70.2813 577.1172,70.5391 Q577.375,70.7969 577.375,71.1406 Q577.375,71.4844 577.0313,71.8906 Q576.5313,72.4688 575.7344,72.7969 Q574.6563,73.25 573.3594,73.25 Q571.8438,73.25 570.6406,72.625 Q569.6563,72.125 568.9688,71.0547 Q568.2813,69.9844 568.2813,68.7031 L568.2813,67.5469 Q568.2813,66.2188 568.8984,65.0703 Q569.5156,63.9219 570.6094,63.3047 Q571.7031,62.6875 572.9375,62.6875 Q573.6719,62.6875 574.3203,62.8516 Q574.9688,63.0156 575.5156,63.375 Z " fill="#000000"/><text fill="#000000" font-family="sans-serif" font-size="14" lengthAdjust="spacing" textLength="114" x="593.25" y="73.2285">ContextAssembler</text><line style="stroke:#181818;stroke-width:0.5;" x1="466.5" x2="801.5" y1="83.5" y2="83.5"/><line style="stroke:#181818;stroke-width:0.5;" x1="466.5" x2="801.5" y1="91.5" y2="91.5"/><text fill="#000000" font-family="sans-serif" font-size="14" lengthAdjust="spacing" textLength="325" x="471.5" y="110.0332">+from_event(event: RuntimeEvent): IncidentContext</text></g><!--class IncidentContext--><g id="elem_IncidentContext"><rect codeLine="17" fill="#F1F1F1" height="199.5781" id="IncidentContext" rx="2.5" ry="2.5" style="stroke:#181818;stroke-width:0.5;" width="236" x="327" y="186"/><ellipse cx="392.25" cy="207.3516" fill="#ADD1B2" rx="11" ry="11" style="stroke:#181818;stroke-width:1.0;"/><path d="M395.0156,203.2266 Q395.1719,203.0078 395.3594,202.8984 Q395.5469,202.7891 395.7656,202.7891 Q396.1406,202.7891 396.375,203.0469 Q396.6094,203.3047 396.6094,203.9141 L396.6094,205.3672 Q396.6094,205.9766 396.375,206.2422 Q396.1406,206.5078 395.7656,206.5078 Q395.4219,206.5078 395.2188,206.3047 Q395.0156,206.1172 394.9063,205.6016 Q394.8594,205.2422 394.6719,205.0547 Q394.3438,204.6797 393.7344,204.4609 Q393.125,204.2422 392.5,204.2422 Q391.7344,204.2422 391.1016,204.5703 Q390.4688,204.8984 389.9766,205.6484 Q389.4844,206.3984 389.4844,207.4297 L389.4844,208.5234 Q389.4844,209.7578 390.375,210.5781 Q391.2656,211.3984 392.8594,211.3984 Q393.7969,211.3984 394.4531,211.1484 Q394.8438,210.9922 395.2656,210.5547 Q395.5313,210.2891 395.6797,210.2109 Q395.8281,210.1328 396.0313,210.1328 Q396.3594,210.1328 396.6172,210.3906 Q396.875,210.6484 396.875,210.9922 Q396.875,211.3359 396.5313,211.7422 Q396.0313,212.3203 395.2344,212.6484 Q394.1563,213.1016 392.8594,213.1016 Q391.3438,213.1016 390.1406,212.4766 Q389.1563,211.9766 388.4688,210.9063 Q387.7813,209.8359 387.7813,208.5547 L387.7813,207.3984 Q387.7813,206.0703 388.3984,204.9219 Q389.0156,203.7734 390.1094,203.1563 Q391.2031,202.5391 392.4375,202.5391 Q393.1719,202.5391 393.8203,202.7031 Q394.4688,202.8672 395.0156,203.2266 Z " fill="#000000"/><text fill="#000000" font-family="sans-serif" font-size="12" font-style="italic" lengthAdjust="spacing" textLength="66" x="428.25" y="203.457">&#171;dataclass&#187;</text><text fill="#000000" font-family="sans-serif" font-size="14" lengthAdjust="spacing" textLength="97" x="412.75" y="220.627">IncidentContext</text><line style="stroke:#181818;stroke-width:0.5;" x1="328" x2="562" y1="228.7031" y2="228.7031"/><text fill="#000000" font-family="sans-serif" font-size="14" lengthAdjust="spacing" textLength="110" x="333" y="247.2363">+correlationId: str</text><text fill="#000000" font-family="sans-serif" font-size="14" lengthAdjust="spacing" textLength="118" x="333" y="264.8457">+processName: str</text><text fill="#000000" font-family="sans-serif" font-size="14" lengthAdjust="spacing" textLength="89" x="333" y="282.4551">+summary: str</text><text fill="#000000" font-family="sans-serif" font-size="14" lengthAdjust="spacing" textLength="109" x="333" y="300.0645">+triggerEvent: str</text><text fill="#000000" font-family="sans-serif" font-size="14" lengthAdjust="spacing" textLength="79" x="333" y="317.6738">+lastSkill: str</text><text fill="#000000" font-family="sans-serif" font-size="14" lengthAdjust="spacing" textLength="224" x="333" y="335.2832">+lastGEMMAStateBeforeFailure: str</text><text fill="#000000" font-family="sans-serif" font-size="14" lengthAdjust="spacing" textLength="102" x="333" y="352.8926">+triggerD2: bool</text><line style="stroke:#181818;stroke-width:0.5;" x1="328" x2="562" y1="359.9688" y2="359.9688"/><text fill="#000000" font-family="sans-serif" font-size="14" lengthAdjust="spacing" textLength="209" x="333" y="378.502">+from_input(obj): IncidentContext</text></g><!--class RuntimeSnapshot--><g id="elem_RuntimeSnapshot"><rect codeLine="28" fill="#F1F1F1" height="93.9219" id="RuntimeSnapshot" rx="2.5" ry="2.5" style="stroke:#181818;stroke-width:0.5;" width="194" x="537" y="455"/><ellipse cx="574.5" cy="476.3516" fill="#ADD1B2" rx="11" ry="11" style="stroke:#181818;stroke-width:1.0;"/><path d="M577.2656,472.2266 Q577.4219,472.0078 577.6094,471.8984 Q577.7969,471.7891 578.0156,471.7891 Q578.3906,471.7891 578.625,472.0469 Q578.8594,472.3047 578.8594,472.9141 L578.8594,474.3672 Q578.8594,474.9766 578.625,475.2422 Q578.3906,475.5078 578.0156,475.5078 Q577.6719,475.5078 577.4688,475.3047 Q577.2656,475.1172 577.1563,474.6016 Q577.1094,474.2422 576.9219,474.0547 Q576.5938,473.6797 575.9844,473.4609 Q575.375,473.2422 574.75,473.2422 Q573.9844,473.2422 573.3516,473.5703 Q572.7188,473.8984 572.2266,474.6484 Q571.7344,475.3984 571.7344,476.4297 L571.7344,477.5234 Q571.7344,478.7578 572.625,479.5781 Q573.5156,480.3984 575.1094,480.3984 Q576.0469,480.3984 576.7031,480.1484 Q577.0938,479.9922 577.5156,479.5547 Q577.7813,479.2891 577.9297,479.2109 Q578.0781,479.1328 578.2813,479.1328 Q578.6094,479.1328 578.8672,479.3906 Q579.125,479.6484 579.125,479.9922 Q579.125,480.3359 578.7813,480.7422 Q578.2813,481.3203 577.4844,481.6484 Q576.4063,482.1016 575.1094,482.1016 Q573.5938,482.1016 572.3906,481.4766 Q571.4063,480.9766 570.7188,479.9063 Q570.0313,478.8359 570.0313,477.5547 L570.0313,476.3984 Q570.0313,475.0703 570.6484,473.9219 Q571.2656,472.7734 572.3594,472.1563 Q573.4531,471.5391 574.6875,471.5391 Q575.4219,471.5391 576.0703,471.7031 Q576.7188,471.8672 577.2656,472.2266 Z " fill="#000000"/><text fill="#000000" font-family="sans-serif" font-size="12" font-style="italic" lengthAdjust="spacing" textLength="66" x="616.5" y="472.457">&#171;dataclass&#187;</text><text fill="#000000" font-family="sans-serif" font-size="14" lengthAdjust="spacing" textLength="112" x="593.5" y="489.627">RuntimeSnapshot</text><line style="stroke:#181818;stroke-width:0.5;" x1="538" x2="730" y1="497.7031" y2="497.7031"/><text fill="#000000" font-family="sans-serif" font-size="14" lengthAdjust="spacing" textLength="182" x="543" y="516.2363">+vars: List&lt;ObservedSignal&gt;</text><text fill="#000000" font-family="sans-serif" font-size="14" lengthAdjust="spacing" textLength="162" x="543" y="533.8457">+rows: List&lt;BrowseNode&gt;</text><line style="stroke:#181818;stroke-width:0.5;" x1="538" x2="730" y1="540.9219" y2="540.9219"/></g><!--class ObservedSignal--><g id="elem_ObservedSignal"><rect codeLine="33" fill="#F1F1F1" height="111.5313" id="ObservedSignal" rx="2.5" ry="2.5" style="stroke:#181818;stroke-width:0.5;" width="133" x="474.5" y="618"/><ellipse cx="489.5" cy="639.3516" fill="#ADD1B2" rx="11" ry="11" style="stroke:#181818;stroke-width:1.0;"/><path d="M492.2656,635.2266 Q492.4219,635.0078 492.6094,634.8984 Q492.7969,634.7891 493.0156,634.7891 Q493.3906,634.7891 493.625,635.0469 Q493.8594,635.3047 493.8594,635.9141 L493.8594,637.3672 Q493.8594,637.9766 493.625,638.2422 Q493.3906,638.5078 493.0156,638.5078 Q492.6719,638.5078 492.4688,638.3047 Q492.2656,638.1172 492.1563,637.6016 Q492.1094,637.2422 491.9219,637.0547 Q491.5938,636.6797 490.9844,636.4609 Q490.375,636.2422 489.75,636.2422 Q488.9844,636.2422 488.3516,636.5703 Q487.7188,636.8984 487.2266,637.6484 Q486.7344,638.3984 486.7344,639.4297 L486.7344,640.5234 Q486.7344,641.7578 487.625,642.5781 Q488.5156,643.3984 490.1094,643.3984 Q491.0469,643.3984 491.7031,643.1484 Q492.0938,642.9922 492.5156,642.5547 Q492.7813,642.2891 492.9297,642.2109 Q493.0781,642.1328 493.2813,642.1328 Q493.6094,642.1328 493.8672,642.3906 Q494.125,642.6484 494.125,642.9922 Q494.125,643.3359 493.7813,643.7422 Q493.2813,644.3203 492.4844,644.6484 Q491.4063,645.1016 490.1094,645.1016 Q488.5938,645.1016 487.3906,644.4766 Q486.4063,643.9766 485.7188,642.9063 Q485.0313,641.8359 485.0313,640.5547 L485.0313,639.3984 Q485.0313,638.0703 485.6484,636.9219 Q486.2656,635.7734 487.3594,635.1563 Q488.4531,634.5391 489.6875,634.5391 Q490.4219,634.5391 491.0703,634.7031 Q491.7188,634.8672 492.2656,635.2266 Z " fill="#000000"/><text fill="#000000" font-family="sans-serif" font-size="12" font-style="italic" lengthAdjust="spacing" textLength="66" x="521" y="635.457">&#171;dataclass&#187;</text><text fill="#000000" font-family="sans-serif" font-size="14" lengthAdjust="spacing" textLength="101" x="503.5" y="652.627">ObservedSignal</text><line style="stroke:#181818;stroke-width:0.5;" x1="475.5" x2="606.5" y1="660.7031" y2="660.7031"/><text fill="#000000" font-family="sans-serif" font-size="14" lengthAdjust="spacing" textLength="43" x="480.5" y="679.2363">+id: str</text><text fill="#000000" font-family="sans-serif" font-size="14" lengthAdjust="spacing" textLength="59" x="480.5" y="696.8457">+type: str</text><text fill="#000000" font-family="sans-serif" font-size="14" lengthAdjust="spacing" textLength="74" x="480.5" y="714.4551">+value: Any</text><line style="stroke:#181818;stroke-width:0.5;" x1="475.5" x2="606.5" y1="721.5313" y2="721.5313"/></g><!--class BrowseNode--><g id="elem_BrowseNode"><rect codeLine="39" fill="#F1F1F1" height="111.5313" id="BrowseNode" rx="2.5" ry="2.5" style="stroke:#181818;stroke-width:0.5;" width="116" x="643" y="618"/><ellipse cx="660.25" cy="639.3516" fill="#ADD1B2" rx="11" ry="11" style="stroke:#181818;stroke-width:1.0;"/><path d="M663.0156,635.2266 Q663.1719,635.0078 663.3594,634.8984 Q663.5469,634.7891 663.7656,634.7891 Q664.1406,634.7891 664.375,635.0469 Q664.6094,635.3047 664.6094,635.9141 L664.6094,637.3672 Q664.6094,637.9766 664.375,638.2422 Q664.1406,638.5078 663.7656,638.5078 Q663.4219,638.5078 663.2188,638.3047 Q663.0156,638.1172 662.9063,637.6016 Q662.8594,637.2422 662.6719,637.0547 Q662.3438,636.6797 661.7344,636.4609 Q661.125,636.2422 660.5,636.2422 Q659.7344,636.2422 659.1016,636.5703 Q658.4688,636.8984 657.9766,637.6484 Q657.4844,638.3984 657.4844,639.4297 L657.4844,640.5234 Q657.4844,641.7578 658.375,642.5781 Q659.2656,643.3984 660.8594,643.3984 Q661.7969,643.3984 662.4531,643.1484 Q662.8438,642.9922 663.2656,642.5547 Q663.5313,642.2891 663.6797,642.2109 Q663.8281,642.1328 664.0313,642.1328 Q664.3594,642.1328 664.6172,642.3906 Q664.875,642.6484 664.875,642.9922 Q664.875,643.3359 664.5313,643.7422 Q664.0313,644.3203 663.2344,644.6484 Q662.1563,645.1016 660.8594,645.1016 Q659.3438,645.1016 658.1406,644.4766 Q657.1563,643.9766 656.4688,642.9063 Q655.7813,641.8359 655.7813,640.5547 L655.7813,639.3984 Q655.7813,638.0703 656.3984,636.9219 Q657.0156,635.7734 658.1094,635.1563 Q659.2031,634.5391 660.4375,634.5391 Q661.1719,634.5391 661.8203,634.7031 Q662.4688,634.8672 663.0156,635.2266 Z " fill="#000000"/><text fill="#000000" font-family="sans-serif" font-size="12" font-style="italic" lengthAdjust="spacing" textLength="66" x="681.25" y="635.457">&#171;dataclass&#187;</text><text fill="#000000" font-family="sans-serif" font-size="14" lengthAdjust="spacing" textLength="79" x="674.75" y="652.627">BrowseNode</text><line style="stroke:#181818;stroke-width:0.5;" x1="644" x2="758" y1="660.7031" y2="660.7031"/><text fill="#000000" font-family="sans-serif" font-size="14" lengthAdjust="spacing" textLength="43" x="649" y="679.2363">+id: str</text><text fill="#000000" font-family="sans-serif" font-size="14" lengthAdjust="spacing" textLength="104" x="649" y="696.8457">+node_class: str</text><text fill="#000000" font-family="sans-serif" font-size="14" lengthAdjust="spacing" textLength="59" x="649" y="714.4551">+type: str</text><line style="stroke:#181818;stroke-width:0.5;" x1="644" x2="758" y1="721.5313" y2="721.5313"/></g><!--class GraphContextRef--><g id="elem_GraphContextRef"><rect codeLine="45" fill="#F1F1F1" height="93.9219" id="GraphContextRef" rx="2.5" ry="2.5" style="stroke:#181818;stroke-width:0.5;" width="169" x="332.5" y="455"/><ellipse cx="359.65" cy="476.3516" fill="#ADD1B2" rx="11" ry="11" style="stroke:#181818;stroke-width:1.0;"/><path d="M362.4156,472.2266 Q362.5719,472.0078 362.7594,471.8984 Q362.9469,471.7891 363.1656,471.7891 Q363.5406,471.7891 363.775,472.0469 Q364.0094,472.3047 364.0094,472.9141 L364.0094,474.3672 Q364.0094,474.9766 363.775,475.2422 Q363.5406,475.5078 363.1656,475.5078 Q362.8219,475.5078 362.6188,475.3047 Q362.4156,475.1172 362.3063,474.6016 Q362.2594,474.2422 362.0719,474.0547 Q361.7438,473.6797 361.1344,473.4609 Q360.525,473.2422 359.9,473.2422 Q359.1344,473.2422 358.5016,473.5703 Q357.8688,473.8984 357.3766,474.6484 Q356.8844,475.3984 356.8844,476.4297 L356.8844,477.5234 Q356.8844,478.7578 357.775,479.5781 Q358.6656,480.3984 360.2594,480.3984 Q361.1969,480.3984 361.8531,480.1484 Q362.2438,479.9922 362.6656,479.5547 Q362.9313,479.2891 363.0797,479.2109 Q363.2281,479.1328 363.4313,479.1328 Q363.7594,479.1328 364.0172,479.3906 Q364.275,479.6484 364.275,479.9922 Q364.275,480.3359 363.9313,480.7422 Q363.4313,481.3203 362.6344,481.6484 Q361.5563,482.1016 360.2594,482.1016 Q358.7438,482.1016 357.5406,481.4766 Q356.5563,480.9766 355.8688,479.9063 Q355.1813,478.8359 355.1813,477.5547 L355.1813,476.3984 Q355.1813,475.0703 355.7984,473.9219 Q356.4156,472.7734 357.5094,472.1563 Q358.6031,471.5391 359.8375,471.5391 Q360.5719,471.5391 361.2203,471.7031 Q361.8688,471.8672 362.4156,472.2266 Z " fill="#000000"/><text fill="#000000" font-family="sans-serif" font-size="12" font-style="italic" lengthAdjust="spacing" textLength="66" x="398.35" y="472.457">&#171;dataclass&#187;</text><text fill="#000000" font-family="sans-serif" font-size="14" lengthAdjust="spacing" textLength="110" x="376.35" y="489.627">GraphContextRef</text><line style="stroke:#181818;stroke-width:0.5;" x1="333.5" x2="500.5" y1="497.7031" y2="497.7031"/><text fill="#000000" font-family="sans-serif" font-size="14" lengthAdjust="spacing" textLength="102" x="338.5" y="516.2363">+kg_ttl_path: str</text><text fill="#000000" font-family="sans-serif" font-size="14" lengthAdjust="spacing" textLength="157" x="338.5" y="533.8457">+focus_entities: List&lt;str&gt;</text><line style="stroke:#181818;stroke-width:0.5;" x1="333.5" x2="500.5" y1="540.9219" y2="540.9219"/></g><!--class SessionMemory--><g id="elem_SessionMemory"><rect codeLine="50" fill="#F1F1F1" height="83.2188" id="SessionMemory" rx="2.5" ry="2.5" style="stroke:#181818;stroke-width:0.5;" width="178" x="114" y="244.5"/><ellipse cx="149.7" cy="260.5" fill="#ADD1B2" rx="11" ry="11" style="stroke:#181818;stroke-width:1.0;"/><path d="M152.4656,256.375 Q152.6219,256.1563 152.8094,256.0469 Q152.9969,255.9375 153.2156,255.9375 Q153.5906,255.9375 153.825,256.1953 Q154.0594,256.4531 154.0594,257.0625 L154.0594,258.5156 Q154.0594,259.125 153.825,259.3906 Q153.5906,259.6563 153.2156,259.6563 Q152.8719,259.6563 152.6688,259.4531 Q152.4656,259.2656 152.3563,258.75 Q152.3094,258.3906 152.1219,258.2031 Q151.7938,257.8281 151.1844,257.6094 Q150.575,257.3906 149.95,257.3906 Q149.1844,257.3906 148.5516,257.7188 Q147.9188,258.0469 147.4266,258.7969 Q146.9344,259.5469 146.9344,260.5781 L146.9344,261.6719 Q146.9344,262.9063 147.825,263.7266 Q148.7156,264.5469 150.3094,264.5469 Q151.2469,264.5469 151.9031,264.2969 Q152.2938,264.1406 152.7156,263.7031 Q152.9813,263.4375 153.1297,263.3594 Q153.2781,263.2813 153.4813,263.2813 Q153.8094,263.2813 154.0672,263.5391 Q154.325,263.7969 154.325,264.1406 Q154.325,264.4844 153.9813,264.8906 Q153.4813,265.4688 152.6844,265.7969 Q151.6063,266.25 150.3094,266.25 Q148.7938,266.25 147.5906,265.625 Q146.6063,265.125 145.9188,264.0547 Q145.2313,262.9844 145.2313,261.7031 L145.2313,260.5469 Q145.2313,259.2188 145.8484,258.0703 Q146.4656,256.9219 147.5594,256.3047 Q148.6531,255.6875 149.8875,255.6875 Q150.6219,255.6875 151.2703,255.8516 Q151.9188,256.0156 152.4656,256.375 Z " fill="#000000"/><text fill="#000000" font-family="sans-serif" font-size="14" lengthAdjust="spacing" textLength="100" x="168.3" y="266.2285">SessionMemory</text><line style="stroke:#181818;stroke-width:0.5;" x1="115" x2="291" y1="276.5" y2="276.5"/><text fill="#000000" font-family="sans-serif" font-size="14" lengthAdjust="spacing" textLength="133" x="120" y="295.0332">+bootstrap_plan: dict</text><text fill="#000000" font-family="sans-serif" font-size="14" lengthAdjust="spacing" textLength="166" x="120" y="312.6426">+turns: List&lt;SessionTurn&gt;</text><line style="stroke:#181818;stroke-width:0.5;" x1="115" x2="291" y1="319.7188" y2="319.7188"/></g><!--class SessionTurn--><g id="elem_SessionTurn"><rect codeLine="55" fill="#F1F1F1" height="111.5313" id="SessionTurn" rx="2.5" ry="2.5" style="stroke:#181818;stroke-width:0.5;" width="134" x="136" y="446"/><ellipse cx="160.9" cy="467.3516" fill="#ADD1B2" rx="11" ry="11" style="stroke:#181818;stroke-width:1.0;"/><path d="M163.6656,463.2266 Q163.8219,463.0078 164.0094,462.8984 Q164.1969,462.7891 164.4156,462.7891 Q164.7906,462.7891 165.025,463.0469 Q165.2594,463.3047 165.2594,463.9141 L165.2594,465.3672 Q165.2594,465.9766 165.025,466.2422 Q164.7906,466.5078 164.4156,466.5078 Q164.0719,466.5078 163.8688,466.3047 Q163.6656,466.1172 163.5563,465.6016 Q163.5094,465.2422 163.3219,465.0547 Q162.9938,464.6797 162.3844,464.4609 Q161.775,464.2422 161.15,464.2422 Q160.3844,464.2422 159.7516,464.5703 Q159.1188,464.8984 158.6266,465.6484 Q158.1344,466.3984 158.1344,467.4297 L158.1344,468.5234 Q158.1344,469.7578 159.025,470.5781 Q159.9156,471.3984 161.5094,471.3984 Q162.4469,471.3984 163.1031,471.1484 Q163.4938,470.9922 163.9156,470.5547 Q164.1813,470.2891 164.3297,470.2109 Q164.4781,470.1328 164.6813,470.1328 Q165.0094,470.1328 165.2672,470.3906 Q165.525,470.6484 165.525,470.9922 Q165.525,471.3359 165.1813,471.7422 Q164.6813,472.3203 163.8844,472.6484 Q162.8063,473.1016 161.5094,473.1016 Q159.9938,473.1016 158.7906,472.4766 Q157.8063,471.9766 157.1188,470.9063 Q156.4313,469.8359 156.4313,468.5547 L156.4313,467.3984 Q156.4313,466.0703 157.0484,464.9219 Q157.6656,463.7734 158.7594,463.1563 Q159.8531,462.5391 161.0875,462.5391 Q161.8219,462.5391 162.4703,462.7031 Q163.1188,462.8672 163.6656,463.2266 Z " fill="#000000"/><text fill="#000000" font-family="sans-serif" font-size="12" font-style="italic" lengthAdjust="spacing" textLength="66" x="184.1" y="463.457">&#171;dataclass&#187;</text><text fill="#000000" font-family="sans-serif" font-size="14" lengthAdjust="spacing" textLength="80" x="177.1" y="480.627">SessionTurn</text><line style="stroke:#181818;stroke-width:0.5;" x1="137" x2="269" y1="488.7031" y2="488.7031"/><text fill="#000000" font-family="sans-serif" font-size="14" lengthAdjust="spacing" textLength="94" x="142" y="507.2363">+user_msg: str</text><text fill="#000000" font-family="sans-serif" font-size="14" lengthAdjust="spacing" textLength="122" x="142" y="524.8457">+assistant_msg: str</text><text fill="#000000" font-family="sans-serif" font-size="14" lengthAdjust="spacing" textLength="101" x="142" y="542.4551">+tool_trace: dict</text><line style="stroke:#181818;stroke-width:0.5;" x1="137" x2="269" y1="549.5313" y2="549.5313"/></g><!--class ExcHChatBotSession--><g id="elem_ExcHChatBotSession"><rect codeLine="61" fill="#F1F1F1" height="83.2188" id="ExcHChatBotSession" rx="2.5" ry="2.5" style="stroke:#181818;stroke-width:0.5;" width="407" x="23.5" y="43"/><ellipse cx="156.75" cy="59" fill="#ADD1B2" rx="11" ry="11" style="stroke:#181818;stroke-width:1.0;"/><path d="M159.5156,54.875 Q159.6719,54.6563 159.8594,54.5469 Q160.0469,54.4375 160.2656,54.4375 Q160.6406,54.4375 160.875,54.6953 Q161.1094,54.9531 161.1094,55.5625 L161.1094,57.0156 Q161.1094,57.625 160.875,57.8906 Q160.6406,58.1563 160.2656,58.1563 Q159.9219,58.1563 159.7188,57.9531 Q159.5156,57.7656 159.4063,57.25 Q159.3594,56.8906 159.1719,56.7031 Q158.8438,56.3281 158.2344,56.1094 Q157.625,55.8906 157,55.8906 Q156.2344,55.8906 155.6016,56.2188 Q154.9688,56.5469 154.4766,57.2969 Q153.9844,58.0469 153.9844,59.0781 L153.9844,60.1719 Q153.9844,61.4063 154.875,62.2266 Q155.7656,63.0469 157.3594,63.0469 Q158.2969,63.0469 158.9531,62.7969 Q159.3438,62.6406 159.7656,62.2031 Q160.0313,61.9375 160.1797,61.8594 Q160.3281,61.7813 160.5313,61.7813 Q160.8594,61.7813 161.1172,62.0391 Q161.375,62.2969 161.375,62.6406 Q161.375,62.9844 161.0313,63.3906 Q160.5313,63.9688 159.7344,64.2969 Q158.6563,64.75 157.3594,64.75 Q155.8438,64.75 154.6406,64.125 Q153.6563,63.625 152.9688,62.5547 Q152.2813,61.4844 152.2813,60.2031 L152.2813,59.0469 Q152.2813,57.7188 152.8984,56.5703 Q153.5156,55.4219 154.6094,54.8047 Q155.7031,54.1875 156.9375,54.1875 Q157.6719,54.1875 158.3203,54.3516 Q158.9688,54.5156 159.5156,54.875 Z " fill="#000000"/><text fill="#000000" font-family="sans-serif" font-size="14" lengthAdjust="spacing" textLength="132" x="177.25" y="64.7285">ExcHChatBotSession</text><line style="stroke:#181818;stroke-width:0.5;" x1="24.5" x2="429.5" y1="75" y2="75"/><line style="stroke:#181818;stroke-width:0.5;" x1="24.5" x2="429.5" y1="83" y2="83"/><text fill="#000000" font-family="sans-serif" font-size="14" lengthAdjust="spacing" textLength="195" x="29.5" y="101.5332">+ensure_bootstrap_plan(): dict</text><text fill="#000000" font-family="sans-serif" font-size="14" lengthAdjust="spacing" textLength="395" x="29.5" y="119.1426">+ask(user_msg: str, debug: bool, include_bootstrap: bool): dict</text></g><!--link ContextAssembler to RuntimeEvent--><g id="link_ContextAssembler_RuntimeEvent"><path codeLine="66" d="M658,117.77 C658,153.54 658,204.31 658,241.86 " fill="none" id="ContextAssembler-to-RuntimeEvent" style="stroke:#181818;stroke-width:1.0;stroke-dasharray:7.0,7.0;"/><polygon fill="#181818" points="658,247.86,662,238.86,658,242.86,654,238.86,658,247.86" style="stroke:#181818;stroke-width:1.0;"/><text fill="#000000" font-family="sans-serif" font-size="13" lengthAdjust="spacing" textLength="24" x="633" y="179.3151">liest</text></g><!--link ContextAssembler to IncidentContext--><g id="link_ContextAssembler_IncidentContext"><path codeLine="67" d="M514.25,117.77 C514.25,136.55 514.25,155.12 514.25,179.66 " fill="none" id="ContextAssembler-to-IncidentContext" style="stroke:#181818;stroke-width:1.0;"/><polygon fill="#181818" points="514.25,185.66,518.25,176.66,514.25,180.66,510.25,176.66,514.25,185.66" style="stroke:#181818;stroke-width:1.0;"/><text fill="#000000" font-family="sans-serif" font-size="13" lengthAdjust="spacing" textLength="43" x="470.25" y="148.2051">erzeugt</text></g><!--reverse link IncidentContext to RuntimeSnapshot--><g id="link_IncidentContext_RuntimeSnapshot"><path codeLine="68" d="M550,398.1 C550,422.04 550,434.51 550,454.76 " fill="none" id="IncidentContext-backto-RuntimeSnapshot" style="stroke:#181818;stroke-width:1.0;"/><polygon fill="none" points="550,386.1,546,392.1,550,398.1,554,392.1,550,386.1" style="stroke:#181818;stroke-width:1.0;"/></g><!--reverse link RuntimeSnapshot to ObservedSignal--><g id="link_RuntimeSnapshot_ObservedSignal"><path codeLine="69" d="M572.25,561.46 C572.25,582.63 572.25,595.75 572.25,617.85 " fill="none" id="RuntimeSnapshot-backto-ObservedSignal" style="stroke:#181818;stroke-width:1.0;"/><polygon fill="#181818" points="572.25,549.46,568.25,555.46,572.25,561.46,576.25,555.46,572.25,549.46" style="stroke:#181818;stroke-width:1.0;"/></g><!--reverse link RuntimeSnapshot to BrowseNode--><g id="link_RuntimeSnapshot_BrowseNode"><path codeLine="70" d="M687,561.46 C687,582.63 687,595.75 687,617.85 " fill="none" id="RuntimeSnapshot-backto-BrowseNode" style="stroke:#181818;stroke-width:1.0;"/><polygon fill="#181818" points="687,549.46,683,555.46,687,561.46,691,555.46,687,549.46" style="stroke:#181818;stroke-width:1.0;"/></g><!--reverse link IncidentContext to GraphContextRef--><g id="link_IncidentContext_GraphContextRef"><path codeLine="71" d="M417,398.1 C417,422.04 417,434.51 417,454.76 " fill="none" id="IncidentContext-backto-GraphContextRef" style="stroke:#181818;stroke-width:1.0;"/><polygon fill="none" points="417,386.1,413,392.1,417,398.1,421,392.1,417,386.1" style="stroke:#181818;stroke-width:1.0;"/></g><!--reverse link ExcHChatBotSession to IncidentContext--><g id="link_ExcHChatBotSession_IncidentContext"><path codeLine="72" d="M378.75,138.25 C378.75,155.66 378.75,164.69 378.75,185.7 " fill="none" id="ExcHChatBotSession-backto-IncidentContext" style="stroke:#181818;stroke-width:1.0;"/><polygon fill="#181818" points="378.75,126.25,374.75,132.25,378.75,138.25,382.75,132.25,378.75,126.25" style="stroke:#181818;stroke-width:1.0;"/></g><!--reverse link ExcHChatBotSession to SessionMemory--><g id="link_ExcHChatBotSession_SessionMemory"><path codeLine="73" d="M203,138.25 C203,172.83 203,209.73 203,244.3 " fill="none" id="ExcHChatBotSession-backto-SessionMemory" style="stroke:#181818;stroke-width:1.0;"/><polygon fill="#181818" points="203,126.25,199,132.25,203,138.25,207,132.25,203,126.25" style="stroke:#181818;stroke-width:1.0;"/></g><!--reverse link SessionMemory to SessionTurn--><g id="link_SessionMemory_SessionTurn"><path codeLine="74" d="M203,339.65 C203,373.24 203,408.81 203,445.78 " fill="none" id="SessionMemory-backto-SessionTurn" style="stroke:#181818;stroke-width:1.0;"/><polygon fill="none" points="203,327.65,199,333.65,203,339.65,207,333.65,203,327.65" style="stroke:#181818;stroke-width:1.0;"/></g><!--SRC=[ZLJ1Rjim3BtxAuITqgqfXXsD8a3QPLtHjGFgtGt6PXmjicX8LDfqwB-FJfp4TXni5yFcUtoag4VxbROLE2YLNq9EBzeMQW76O-GFI6R0-ocpq_F0U9-HJVGRgiyjIWNP2WfCU6DGESmOR67Q6aPRv4s5YXmlAMAg59EQ4pELAjTrYYORHOsG-l10bl6LnohON2MQtu8j_FY1oeei2lH1_OdKhZNr72ph4cTh0TJrjTGCF9bi2Kfzgc1Z2F9OocGieVVea7YxApBr7ikvGRTFMJWgKwpbHjjdt2bn4Qjxc-bSNXk1hceFb8voODXYnwuoSWuDrAU-bzuykwPRHnbw_mGbjg8-b2MuJIiYjr4Kw6QxzWvXASB9IXlJYztD7X-d2GFZ3Ix8uJVG9ZWy5Vpw9PPh8TCQn7QU8vh__jV1co4b5Yg_f3C7NuFpiVgXFL__d7jqQymJNLWmantkw6MFtzJl-4GvJhg5ked3TNHxghNrMfzhC46-ftRJrJqM_0zDAxHqIpXJg2Lyvw1QDZDxniMm-gf8cKrQ0IzRYWlAWazbv9erxYSZQ6yaYPX6lFI89RdDNb4kaeKALLePi8SDgFiCpkx5cjHV4XeMhP7XbeFSGrhwejMlu28Abdjn5bEbqak6GviuUys-tow1RuYReliIQBqODUqUPNJHFWpurQZJoQNASHwAdPClbRQP2NbBOmTST1iv-HbSNKswlvPOVcFeUOWx7azEzZvMwDum57L27wFnkBykmkelq4TXTRr-XdGqxfbQFGCAQs3YjTBfWfyXTWmdjAu1wSYetHEzHty1]--></g></svg>