<?xml version="1.0" encoding="us-ascii" standalone="no"?><svg xmlns="http://www.w3.org/2000/svg" xmlns:xlink="http://www.w3.org/1999/xlink" contentStyleType="text/css" height="1241px" preserveAspectRatio="none" style="width:1112px;height:1241px;background:#FAFAFA;" version="1.1" viewBox="0 0 1112 1241" width="1112px" zoomAndPan="magnify"><defs/><g><rect fill="#FAFAFA" height="1241" style="stroke:none;stroke-width:1.0;" width="1112" x="0" y="0"/><!--cluster ExcH-RAG-Agent--><g id="cluster_ExcH-RAG-Agent"><rect fill="#F4F6F7" height="1054" rx="2.5" ry="2.5" style="stroke:#2E4057;stroke-width:1.0;" width="512" x="275" y="181"/><text fill="#000000" font-family="sans-serif" font-size="14" font-weight="bold" lengthAdjust="spacing" textLength="116" x="473" y="209.5332">ExcH-RAG-Agent</text></g><!--entity UI--><g id="elem_UI"><rect fill="#EAF3FB" height="71.6719" rx="2.5" ry="2.5" style="stroke:#2E86C1;stroke-width:1.5;" width="167" x="603.5" y="929"/><text fill="#1A252F" font-family="sans-serif" font-size="11" font-weight="bold" lengthAdjust="spacing" textLength="95" x="639.5" y="962.4189">Interaktions- und</text><text fill="#1A252F" font-family="sans-serif" font-size="11" font-weight="bold" lengthAdjust="spacing" textLength="123" x="625.5" y="976.2549">Sitzungs-Komponente</text></g><!--entity Context--><g id="elem_Context"><rect fill="#EAF3FB" height="71.6719" rx="2.5" ry="2.5" style="stroke:#2E86C1;stroke-width:1.5;" width="115" x="449.5" y="1147"/><text fill="#1A252F" font-family="sans-serif" font-size="11" font-weight="bold" lengthAdjust="spacing" textLength="46" x="484" y="1180.4189">Kontext-</text><text fill="#1A252F" font-family="sans-serif" font-size="11" font-weight="bold" lengthAdjust="spacing" textLength="71" x="471.5" y="1194.2549">Komponente</text></g><!--entity Artifact--><g id="elem_Artifact"><rect fill="#EAF3FB" height="71.6719" rx="2.5" ry="2.5" style="stroke:#2E86C1;stroke-width:1.5;" width="190" x="534" y="241"/><text fill="#1A252F" font-family="sans-serif" font-size="11" font-weight="bold" lengthAdjust="spacing" textLength="73" x="592.5" y="274.4189">Artefakt- und</text><text fill="#1A252F" font-family="sans-serif" font-size="11" font-weight="bold" lengthAdjust="spacing" textLength="146" x="556" y="288.2549">Dokumenten-Komponente</text></g><!--entity Retrieval--><g id="elem_Retrieval"><rect fill="#EAF3FB" height="71.6719" rx="2.5" ry="2.5" style="stroke:#2E86C1;stroke-width:1.5;" width="115" x="571.5" y="459"/><text fill="#1A252F" font-family="sans-serif" font-size="11" font-weight="bold" lengthAdjust="spacing" textLength="52" x="603" y="492.4189">Retrieval-</text><text fill="#1A252F" font-family="sans-serif" font-size="11" font-weight="bold" lengthAdjust="spacing" textLength="71" x="593.5" y="506.2549">Komponente</text></g><!--entity Generation--><g id="elem_Generation"><rect fill="#EAF3FB" height="71.6719" rx="2.5" ry="2.5" style="stroke:#2E86C1;stroke-width:1.5;" width="184" x="537" y="697"/><text fill="#1A252F" font-family="sans-serif" font-size="11" font-weight="bold" lengthAdjust="spacing" textLength="105" x="576.5" y="730.4189">Generierungs- und</text><text fill="#1A252F" font-family="sans-serif" font-size="11" font-weight="bold" lengthAdjust="spacing" textLength="140" x="559" y="744.2549">Leitplanken-Komponente</text></g><!--entity FM--><g id="elem_FM"><rect fill="#EAF3FB" height="71.6719" rx="2.5" ry="2.5" style="stroke:#2E86C1;stroke-width:1.5;" width="150" x="373" y="929"/><text fill="#1A252F" font-family="sans-serif" font-size="11" font-weight="bold" lengthAdjust="spacing" textLength="106" x="395" y="962.4189">Foundation-Modell-</text><text fill="#1A252F" font-family="sans-serif" font-size="11" font-weight="bold" lengthAdjust="spacing" textLength="71" x="412.5" y="976.2549">Komponente</text></g><!--entity User--><g id="elem_User"><ellipse cx="1082" cy="685.5" fill="#D5E8D4" rx="8" ry="8" style="stroke:#2D6A4F;stroke-width:0.5;"/><path d="M1082,693.5 L1082,720.5 M1069,701.5 L1095,701.5 M1082,720.5 L1069,735.5 M1082,720.5 L1095,735.5 " fill="none" style="stroke:#2D6A4F;stroke-width:0.5;"/><text fill="#1A252F" font-family="sans-serif" font-size="11" lengthAdjust="spacing" textLength="46" x="1059" y="760.4189">Nutzende</text><text fill="#1A252F" font-family="sans-serif" font-size="11" lengthAdjust="spacing" textLength="35" x="1064.5" y="774.2549">Instanz</text></g><!--entity Runtime--><g id="elem_Runtime"><rect fill="#EAF3FB" height="71.6719" rx="2.5" ry="2.5" style="stroke:#2E86C1;stroke-width:1.5;" width="204" x="7" y="929"/><text fill="#1A252F" font-family="sans-serif" font-size="11" font-weight="bold" lengthAdjust="spacing" textLength="104" x="57" y="962.4189">Laufzeitumgebung</text><text fill="#1A252F" font-family="sans-serif" font-size="11" font-weight="bold" lengthAdjust="spacing" textLength="160" x="29" y="976.2549">Fehlerereignis und Snapshot</text></g><!--entity Docs--><g id="elem_Docs"><path d="M528.5,16 C528.5,6 629,6 629,6 C629,6 729.5,6 729.5,16 L729.5,90.5078 C729.5,100.5078 629,100.5078 629,100.5078 C629,100.5078 528.5,100.5078 528.5,90.5078 L528.5,16 " fill="#FFF3CD" style="stroke:#B7791F;stroke-width:0.5;"/><path d="M528.5,16 C528.5,26 629,26 629,26 C629,26 729.5,26 729.5,16 " fill="none" style="stroke:#B7791F;stroke-width:0.5;"/><text fill="#1A252F" font-family="sans-serif" font-size="11" lengthAdjust="spacing" textLength="45" x="606.5" y="53.4189">Statische</text><text fill="#1A252F" font-family="sans-serif" font-size="11" lengthAdjust="spacing" textLength="99" x="579.5" y="67.2549">Steuerungsartefakte</text><text fill="#1A252F" font-family="sans-serif" font-size="11" lengthAdjust="spacing" textLength="157" x="550.5" y="81.0908">PLCOpenXML / Dokumentkontext</text></g><g id="elem_GMN27"><path d="M851,929 L851,1000.7344 L1037,1000.7344 L1037,939 L1027,929 L851,929 " fill="#FDFCE4" style="stroke:#C9A227;stroke-width:0.5;"/><path d="M1027,929 L1027,939 L1037,939 L1027,929 " fill="#FDFCE4" style="stroke:#C9A227;stroke-width:1.0;"/><text fill="#4A4000" font-family="sans-serif" font-size="10" font-weight="bold" lengthAdjust="spacing" textLength="137" x="871" y="956.3809">Austauschbare Modellbasis</text><text fill="#4A4000" font-family="sans-serif" font-size="10" lengthAdjust="spacing" textLength="122" x="878.5" y="968.959">Erm&#246;glicht den Vergleich</text><text fill="#4A4000" font-family="sans-serif" font-size="10" lengthAdjust="spacing" textLength="141" x="869" y="981.5371">mehrerer Foundation-Modelle</text></g><g id="elem_GMN30"><path d="M803.5,1141 L803.5,1197 L564.84,1201 L803.5,1205 L803.5,1225.3125 A0,0 0 0 0 803.5,1225.3125 L994.5,1225.3125 A0,0 0 0 0 994.5,1225.3125 L994.5,1151 L984.5,1141 L803.5,1141 A0,0 0 0 0 803.5,1141 " fill="#FDFCE4" style="stroke:#C9A227;stroke-width:0.5;"/><path d="M984.5,1141 L984.5,1151 L994.5,1151 L984.5,1141 " fill="#FDFCE4" style="stroke:#C9A227;stroke-width:0.5;"/><text fill="#4A4000" font-family="sans-serif" font-size="10" font-weight="bold" lengthAdjust="spacing" textLength="96" x="846.5" y="1168.3809">Kontextverdichtung</text><text fill="#4A4000" font-family="sans-serif" font-size="10" lengthAdjust="spacing" textLength="146" x="821.5" y="1180.959">Verdichtet das Laufzeitereignis</text><text fill="#4A4000" font-family="sans-serif" font-size="10" lengthAdjust="spacing" textLength="106" x="841.5" y="1193.5371">zu einem strukturierten</text><text fill="#4A4000" font-family="sans-serif" font-size="10" lengthAdjust="spacing" textLength="77" x="856" y="1206.1152">Diagnosekontext</text></g><g id="elem_GMN33"><path d="M804,241 L804,273 L724.31,277 L804,281 L804,312.7344 A0,0 0 0 0 804,312.7344 L982,312.7344 A0,0 0 0 0 982,312.7344 L982,251 L972,241 L804,241 A0,0 0 0 0 804,241 " fill="#FDFCE4" style="stroke:#C9A227;stroke-width:0.5;"/><path d="M972,241 L972,251 L982,251 L972,241 " fill="#FDFCE4" style="stroke:#C9A227;stroke-width:0.5;"/><text fill="#4A4000" font-family="sans-serif" font-size="10" font-weight="bold" lengthAdjust="spacing" textLength="99" x="839" y="268.3809">Artefaktaufbereitung</text><text fill="#4A4000" font-family="sans-serif" font-size="10" lengthAdjust="spacing" textLength="133" x="822" y="280.959">Bereitet Steuerungsartefakte</text><text fill="#4A4000" font-family="sans-serif" font-size="10" lengthAdjust="spacing" textLength="114" x="831.5" y="293.5371">f&#252;r den Wissensabruf auf</text></g><g id="elem_GMN36"><path d="M803,453 L803,473 L686.81,477 L803,481 L803,537.3125 A0,0 0 0 0 803,537.3125 L959,537.3125 A0,0 0 0 0 959,537.3125 L959,463 L949,453 L803,453 A0,0 0 0 0 803,453 " fill="#FDFCE4" style="stroke:#C9A227;stroke-width:0.5;"/><path d="M949,453 L949,463 L959,463 L949,453 " fill="#FDFCE4" style="stroke:#C9A227;stroke-width:0.5;"/><text fill="#4A4000" font-family="sans-serif" font-size="10" font-weight="bold" lengthAdjust="spacing" textLength="79" x="837" y="480.3809">Kontextauswahl</text><text fill="#4A4000" font-family="sans-serif" font-size="10" lengthAdjust="spacing" textLength="111" x="821" y="492.959">W&#228;hlt die relevantesten</text><text fill="#4A4000" font-family="sans-serif" font-size="10" lengthAdjust="spacing" textLength="90" x="831.5" y="505.5371">Ausschnitte f&#252;r den</text><text fill="#4A4000" font-family="sans-serif" font-size="10" lengthAdjust="spacing" textLength="109" x="822" y="518.1152">aktuellen Fehlerkontext</text></g><g id="elem_GMN39"><path d="M803,691 L803,729 L721.06,733 L803,737 L803,775.3125 A0,0 0 0 0 803,775.3125 L967,775.3125 A0,0 0 0 0 967,775.3125 L967,701 L957,691 L803,691 A0,0 0 0 0 803,691 " fill="#FDFCE4" style="stroke:#C9A227;stroke-width:0.5;"/><path d="M957,691 L957,701 L967,701 L957,691 " fill="#FDFCE4" style="stroke:#C9A227;stroke-width:0.5;"/><text fill="#4A4000" font-family="sans-serif" font-size="10" font-weight="bold" lengthAdjust="spacing" textLength="95" x="833" y="718.3809">Antwortbegrenzung</text><text fill="#4A4000" font-family="sans-serif" font-size="10" lengthAdjust="spacing" textLength="119" x="821" y="730.959">Begrenzt auf verf&#252;gbaren</text><text fill="#4A4000" font-family="sans-serif" font-size="10" lengthAdjust="spacing" textLength="90" x="835.5" y="743.5371">Kontext und macht</text><text fill="#4A4000" font-family="sans-serif" font-size="10" lengthAdjust="spacing" textLength="96" x="832.5" y="756.1152">Unsicherheit explizit</text></g><!--link UI to Context--><!--link UI to Context--><g id="link_UI_Context"><path d="M603.41,987 C579.12,987 559,987 559,987 C559,987 559,1083.91 559,1140.59 " fill="none" id="UI-to-Context-1" style="stroke:#2E4057;stroke-width:1.5;"/><polygon fill="#2E4057" points="559,1146.59,563,1137.59,559,1141.59,555,1137.59,559,1146.59" style="stroke:#2E4057;stroke-width:1.5;"/><text fill="#2E4057" font-family="sans-serif" font-size="10" lengthAdjust="spacing" textLength="73" x="462.5" y="1067.9709">Initiale Anfrage</text><text fill="#2E4057" font-family="sans-serif" font-size="10" lengthAdjust="spacing" textLength="94" x="452" y="1080.549">und Sitzungsaufbau</text></g><!--link Context to Retrieval--><!--link Context to Retrieval--><g id="link_Context_Retrieval"><path d="M564.71,1183 C648.03,1183 792.17,1183 792.17,1183 C792.17,1183 792.17,495 792.17,495 C792.17,495 739.5,495 692.53,495 " fill="none" id="Context-to-Retrieval-1" style="stroke:#2E4057;stroke-width:1.5;"/><polygon fill="#2E4057" points="686.53,495,695.53,499,691.53,495,695.53,491,686.53,495" style="stroke:#2E4057;stroke-width:1.5;"/><text fill="#2E4057" font-family="sans-serif" font-size="10" lengthAdjust="spacing" textLength="59" x="714.67" y="872.2909">Strukturierter</text><text fill="#2E4057" font-family="sans-serif" font-size="10" lengthAdjust="spacing" textLength="70" x="709.17" y="884.869">Analysekontext</text></g><!--link Retrieval to Generation--><!--link Retrieval to Generation--><g id="link_Retrieval_Generation"><path d="M609.83,531.15 C609.83,576.01 609.83,646.06 609.83,690.9 " fill="none" id="Retrieval-to-Generation-1" style="stroke:#2E4057;stroke-width:1.5;"/><polygon fill="#2E4057" points="609.83,696.9,613.83,687.9,609.83,691.9,605.83,687.9,609.83,696.9" style="stroke:#2E4057;stroke-width:1.5;"/><text fill="#2E4057" font-family="sans-serif" font-size="10" lengthAdjust="spacing" textLength="48" x="528.33" y="586.4109">Relevante</text><text fill="#2E4057" font-family="sans-serif" font-size="10" lengthAdjust="spacing" textLength="89" x="507.83" y="598.989">Kontextausschnitte</text></g><!--link Artifact to Retrieval--><!--link Artifact to Retrieval--><g id="link_Artifact_Retrieval"><path d="M609.83,313.49 C609.83,353.85 609.83,412.49 609.83,452.76 " fill="none" id="Artifact-to-Retrieval-1" style="stroke:#2E4057;stroke-width:1.5;"/><polygon fill="#2E4057" points="609.83,458.76,613.83,449.76,609.83,453.76,605.83,449.76,609.83,458.76" style="stroke:#2E4057;stroke-width:1.5;"/><text fill="#2E4057" font-family="sans-serif" font-size="10" lengthAdjust="spacing" textLength="72" x="514.33" y="358.5009">Retrievalf&#228;hige</text><text fill="#2E4057" font-family="sans-serif" font-size="10" lengthAdjust="spacing" textLength="93" x="503.83" y="371.079">Dokumentsegmente</text></g><!--link Generation to FM--><!--link FM to Generation--><g id="link_FM_Generation"><path d="M523.02,958 C537.36,958 548,958 548,958 C548,958 548,838.75 548,775.15 " fill="none" id="FM-to-Generation" style="stroke:#2E4057;stroke-width:1.5;"/><polygon fill="#2E4057" points="548,769.15,544,778.15,548,774.15,552,778.15,548,769.15" style="stroke:#2E4057;stroke-width:1.5;"/><text fill="#2E4057" font-family="sans-serif" font-size="10" lengthAdjust="spacing" textLength="67" x="446" y="848.4409">Sprachmodell</text><text fill="#2E4057" font-family="sans-serif" font-size="10" lengthAdjust="spacing" textLength="111" x="424" y="861.019">f&#252;r Analyse und Antwort</text></g><!--link User to UI--><g id="link_User_UI"><path d="M1046.78,782 C961.34,782 750,782 750,782 C750,782 750,869.51 750,922.85 " fill="none" id="User-to-UI" style="stroke:#2E4057;stroke-width:1.5;"/><polygon fill="#2E4057" points="750,928.85,754,919.85,750,923.85,746,919.85,750,928.85" style="stroke:#2E4057;stroke-width:1.5;"/><text fill="#2E4057" font-family="sans-serif" font-size="10" lengthAdjust="spacing" textLength="43" x="750.97" y="805.3809">Anfrage /</text><text fill="#2E4057" font-family="sans-serif" font-size="10" lengthAdjust="spacing" textLength="53" x="745.97" y="817.959">R&#252;ckfrage /</text><text fill="#2E4057" font-family="sans-serif" font-size="10" lengthAdjust="spacing" textLength="79" x="732.97" y="830.5371">Ergebnisnutzung</text></g><!--link Runtime to Context--><g id="link_Runtime_Context"><path d="M109,1001.49 C109,1063.55 109,1183 109,1183 C109,1183 332.74,1183 443.13,1183 " fill="none" id="Runtime-to-Context" style="stroke:#2E4057;stroke-width:1.5;"/><polygon fill="#2E4057" points="449.13,1183,440.13,1179,444.13,1183,440.13,1187,449.13,1183" style="stroke:#2E4057;stroke-width:1.5;"/><text fill="#2E4057" font-family="sans-serif" font-size="10" lengthAdjust="spacing" textLength="66" x="109.31" y="1143.3809">Fehlerkontext,</text><text fill="#2E4057" font-family="sans-serif" font-size="10" lengthAdjust="spacing" textLength="47" x="118.81" y="1155.959">Snapshot,</text><text fill="#2E4057" font-family="sans-serif" font-size="10" lengthAdjust="spacing" textLength="64" x="110.31" y="1168.5371">Prozessbezug</text></g><!--link Docs to Artifact--><g id="link_Docs_Artifact"><path d="M629,101.17 C629,142.97 629,196.82 629,234.79 " fill="none" id="Docs-to-Artifact" style="stroke:#2E4057;stroke-width:1.5;"/><polygon fill="#2E4057" points="629,240.79,633,231.79,629,235.79,625,231.79,629,240.79" style="stroke:#2E4057;stroke-width:1.5;"/><text fill="#2E4057" font-family="sans-serif" font-size="10" lengthAdjust="spacing" textLength="44" x="564.5" y="143.3609">Statische</text><text fill="#2E4057" font-family="sans-serif" font-size="10" lengthAdjust="spacing" textLength="59" x="557" y="155.939">Wissensbasis</text></g><!--link Generation to UI--><g id="link_Generation_UI"><path d="M681.83,769.25 C681.83,812.71 681.83,879.11 681.83,922.62 " fill="none" id="Generation-to-UI" style="stroke:#2E4057;stroke-width:1.5;"/><polygon fill="#2E4057" points="681.83,928.62,685.83,919.62,681.83,923.62,677.83,919.62,681.83,928.62" style="stroke:#2E4057;stroke-width:1.5;"/><text fill="#2E4057" font-family="sans-serif" font-size="10" lengthAdjust="spacing" textLength="95" x="573.83" y="809.3209">Diagnose, Hinweise,</text><text fill="#2E4057" font-family="sans-serif" font-size="10" lengthAdjust="spacing" textLength="62" x="590.33" y="821.899">Unsicherheit,</text><text fill="#2E4057" font-family="sans-serif" font-size="10" lengthAdjust="spacing" textLength="91" x="575.83" y="834.4771">N&#228;chster Pr&#252;fschritt</text></g><!--link UI to Generation--><g id="link_UI_Generation"><path d="M642.67,928.75 C642.67,885.29 642.67,818.89 642.67,775.38 " fill="none" id="UI-to-Generation" style="stroke:#2E4057;stroke-width:1.5;"/><polygon fill="#2E4057" points="642.67,769.38,638.67,778.38,642.67,774.38,646.67,778.38,642.67,769.38" style="stroke:#2E4057;stroke-width:1.5;"/><text fill="#2E4057" font-family="sans-serif" font-size="10" lengthAdjust="spacing" textLength="77" x="575.92" y="872.4409">Vertiefungsfrage</text><text fill="#2E4057" font-family="sans-serif" font-size="10" lengthAdjust="spacing" textLength="87" x="570.92" y="885.019">oder Folgeanfrage</text></g><!--link FM to GMN27--><g id="link_FM_GMN27"><path d="M486.25,1001.18 C486.25,1031.89 486.25,1071 486.25,1071 C486.25,1071 922.75,1071 922.75,1071 C922.75,1071 922.75,1031.89 922.75,1001.18 " fill="none" id="FM-GMN27" style="stroke:#2E4057;stroke-width:1.5;stroke-dasharray:7.0,7.0;"/></g><!--SRC=[pLVDRXit4BxlKn3kmO0HDP8i_yI70cj9cnYnNSEEam9L3zJkQ9VGQYYGtDXMK20FaKV8C_JaczuaJz8XHQrszOEs9zVoOKaE-SrydFb8xXjXSc3zn_XTupPysmXJGCD-VFt6til9L2Ar0EVFGr1Qn9a90YEdp4WsbCR82Kk4WjW8YO4U2vnonITCPpoH3m9JDkAvXif80YDUvEO3F9em5obEB5Pi8LJ5Abu2tvadSiq2S4ppwa9J7ezv2hiDSe5WdgR0f3APh0oWJ433b9qsAvsAuzXsjZhD6aYIs2XQxQ3IEoJeLCa2awxCfM8_HQ7z1Ti2O5y2nixN9_J3w30wjoDI9Q1yRxj_UjnjbRqVCX6F4RHchP-Fg3UIQBnbAsmVjIFVToTcm5gjPSiHCfHv4lmPRFArtP-e4nr79vl-T9f79rlyQTUzAUrMtXp-WpSyDZHpgo-ze_vfhxFXI-yux4J_WeKQJC8D7tAzA-eeEkpsrf7EJqxUjFup4agp2wKNTViRyNJVXEtsIHsb4tQQpMODfRb6crBomS5ietxtTjX5w-b4o-wp7z- -qZzLFbKV0Wl71We5llkb_eD5RknT5sO6cC00Br1JTS_s6DViNfDGhAfhxv8Nena8KqnI61QO3Z22B0T5Fr8NeHbj1Bj3FjMPD6w5smADc41GviRUdU56w3WZg3jY01Ijexao95N4o01lBhk_JW5_kxfahrbFZWihMcCYbqJCBTcJiQxmwGGKK3zf0vCNPjDpkgp-lRhAxr4kKMfK-BomIanXavxhXYMFE15cPXbfh8w3nLPSrAU-Np3I6E2QONSnKBSEFRyUP4ahu3eC6OeHvKHz-YqO9U0pppVXog7wZBU0GFrkSpte9INED2VbtqHrrjmTQxLL8blPhhznHUT8lWK_khASxhDB_YGBqtWdq6ZgkBzW_g_nUoQI1F0FEYEnyGkh4EI_jXbLmog_DyrgZY-vgoodH9ePCgmkjvgpQKVHRDEAZw260XCY4_05KZomEk2uj36Nr9wn44VA9lhh0TxEd-DnsUeh4WWI12nSDWTU1XOBbBIViOLy-Ef-HTdljOC-RvISaNuEOLQaWQtvqe6IvpDM4PDFGckI0H8PKPK7Ls94OOzJje_o-JDPlOnA1AkSNEF1Cd61mWXEnxVdT81EIxqQaEuEUH5KPZHgMSeS5weOcy9M7OKym11v_gJ1ankiidFBtB8ncd_FX4LVIeI6r2b5KB5lr5FVpSzf2Ar-Us7YXQPzeQ1eQdHL3xmszMwgU9nDN7aFS3H_LinxxawJ4Cq3tIc3QjNKij2wtnCyHQdX5QFwVm11NmEyHtk31fMHxb3pUluzpkYCKEn6pPz7v9mYvpOsfUORrPqHCB8xu3U5t5HqrESfyCK-LLBjMXew__5_SGPjpq1tRt9Qm-J8YWrZ1mTXeUrknTcGqtLaeREkYWuEQBol9lE_qjo-HUWvWPOIklbJayOcaDcZtnAofjCGq6N2NTE2DT2L-XuS-5Jv32gnwnFD3lAZRmCXai8lBntBImPPp0e6zE2Wfqyrvwq6BpDXcVMxtAYSSyI0FnrjbLcKqfDpro8_jjnKQDWbgoN5QmyVgcB4Q9MTiDLpe8oVo7_WMUuGFr7zvHItiCyiNrDw4LguggWIcRh9by8oZdKntUb2xSYYs1VrDOHK0SvMWRkciS4msX_2Isrws3dUQrUT4sxVg5IDbLfZy3ZDnKnKNFWR]--></g></svg>